<?xml version="1.0" encoding="utf-8"?>
<!-- Generator: Adobe Illustrator 28.0.0, SVG Export Plug-In . SVG Version: 6.00 Build 0)  -->
<svg version="1.1" id="Capa_1" xmlns="http://www.w3.org/2000/svg" xmlns:xlink="http://www.w3.org/1999/xlink" x="0px" y="0px"
	 viewBox="0 0 26.19 26.19" style="enable-background:new 0 0 26.19 26.19;" xml:space="preserve">
<style type="text/css">
	.st0{fill:#1F86BD;}
	.st1{fill:none;}
	.st2{fill:#396DB4;}
	.st3{fill-rule:evenodd;clip-rule:evenodd;fill:#FFFFFF;}
	.st4{fill:#FFFFFF;}
</style>
<path class="st3" d="M14.25,5.95l-0.38,0.01L13.53,6l-0.32,0.08l-0.29,0.09l-0.26,0.11L12.42,6.4l-0.21,0.15l-0.2,0.17l-0.17,0.16
	l-0.15,0.19l-0.14,0.2l-0.1,0.2l-0.11,0.21L11.26,7.9l-0.06,0.21l-0.05,0.21l-0.04,0.21l-0.02,0.2l-0.02,0.2v0.19v1.74h-1.5v2.68
	h1.5v7.59h3.15v-7.59h2.13l0.28-2.68h-2.41V9.29l0.02-0.18l0.04-0.14l0.06-0.13l0.07-0.1l0.09-0.08l0.1-0.05l0.1-0.03l0.1-0.02
	l0.1-0.01h1.69V5.96L14.25,5.95z M13.1,0l0.83,0.03l0.81,0.07l0.79,0.13l0.79,0.17l0.76,0.22l0.75,0.26l0.71,0.31l0.71,0.35
	l0.67,0.38l0.64,0.43l0.63,0.47l0.6,0.49l0.56,0.54l0.52,0.56l0.5,0.59l0.47,0.62l0.42,0.66l0.39,0.67L25,7.65l0.31,0.72l0.26,0.74
	l0.22,0.77l0.17,0.77l0.12,0.81l0.07,0.81l0.03,0.83l-0.03,0.83l-0.07,0.81l-0.12,0.81l-0.17,0.77l-0.22,0.77l-0.26,0.74L25,18.54
	l-0.35,0.7l-0.39,0.67l-0.42,0.66l-0.47,0.62l-0.5,0.59l-0.52,0.56l-0.56,0.53l-0.6,0.5l-0.63,0.47l-0.64,0.43l-0.67,0.38
	l-0.71,0.35l-0.71,0.31l-0.75,0.26l-0.76,0.22l-0.79,0.17l-0.79,0.13l-0.81,0.07l-0.83,0.03l-0.83-0.03l-0.82-0.07l-0.8-0.13
	l-0.78-0.17l-0.77-0.22L8.37,25.3l-0.73-0.31l-0.7-0.35l-0.67-0.38l-0.65-0.43l-0.63-0.47l-0.59-0.5l-0.56-0.53l-0.54-0.56
	l-0.5-0.59l-0.46-0.62l-0.42-0.66l-0.39-0.67l-0.35-0.7l-0.3-0.72l-0.26-0.74L0.4,16.31l-0.17-0.77L0.1,14.73l-0.08-0.81L0,13.09
	l0.02-0.83l0.08-0.81l0.13-0.81L0.4,9.88l0.22-0.77l0.26-0.74l0.3-0.72l0.35-0.7l0.39-0.67l0.42-0.66l0.46-0.62l0.5-0.59l0.54-0.56
	L4.41,3.3l0.59-0.49l0.63-0.47l0.65-0.43l0.67-0.38l0.7-0.35l0.73-0.31l0.74-0.26L9.88,0.4l0.78-0.17l0.8-0.13l0.82-0.07L13.1,0z"/>
</svg>
