<?xml version="1.0" encoding="utf-8"?>
<!-- Generator: Adobe Illustrator 28.0.0, SVG Export Plug-In . SVG Version: 6.00 Build 0)  -->
<svg version="1.1" id="Capa_1" xmlns="http://www.w3.org/2000/svg" xmlns:xlink="http://www.w3.org/1999/xlink" x="0px" y="0px"
	 viewBox="0 0 26.97 26.97" style="enable-background:new 0 0 26.97 26.97;" xml:space="preserve">
<style type="text/css">
	.st0{fill:#1F86BD;}
	.st1{fill:none;}
	.st2{fill:#396DB4;}
	.st3{fill-rule:evenodd;clip-rule:evenodd;fill:#FFFFFF;}
	.st4{fill:#FFFFFF;}
</style>
<path class="st4" d="M13.49,10.77c-1.5,0-2.71,1.21-2.71,2.71s1.22,2.71,2.71,2.71s2.71-1.21,2.71-2.71S14.98,10.77,13.49,10.77"/>
<path class="st4" d="M19.83,8.69c-0.15-0.38-0.32-0.65-0.61-0.94c-0.28-0.28-0.56-0.46-0.94-0.61C18,7.03,17.57,6.9,16.77,6.86
	c-0.86-0.04-1.11-0.05-3.29-0.05c-2.17,0-2.43,0.01-3.29,0.05C9.4,6.9,8.97,7.03,8.69,7.14C8.31,7.29,8.04,7.47,7.75,7.75
	C7.47,8.03,7.29,8.31,7.14,8.69C7.03,8.97,6.9,9.4,6.86,10.2c-0.04,0.86-0.05,1.12-0.05,3.29c0,2.17,0.01,2.43,0.05,3.29
	C6.9,17.57,7.03,18,7.14,18.28c0.15,0.38,0.32,0.65,0.61,0.94c0.28,0.28,0.56,0.46,0.94,0.61c0.29,0.11,0.72,0.24,1.51,0.28
	c0.86,0.04,1.11,0.05,3.29,0.05c2.17,0,2.43-0.01,3.29-0.05c0.79-0.04,1.23-0.17,1.51-0.28c0.38-0.15,0.65-0.32,0.94-0.61
	c0.29-0.28,0.46-0.56,0.61-0.94c0.11-0.29,0.24-0.72,0.28-1.51c0.04-0.86,0.05-1.12,0.05-3.29c0-2.17-0.01-2.43-0.05-3.29
	C20.07,9.4,19.94,8.97,19.83,8.69 M13.49,17.66c-2.31,0-4.18-1.87-4.18-4.18c0-2.31,1.87-4.18,4.18-4.18s4.18,1.87,4.18,4.18
	C17.66,15.79,15.79,17.66,13.49,17.66 M17.83,10.12c-0.54,0-0.98-0.44-0.98-0.98c0-0.54,0.44-0.98,0.98-0.98s0.98,0.44,0.98,0.98
	C18.81,9.68,18.37,10.12,17.83,10.12"/>
<path class="st4" d="M13.48,0C6.04,0,0,6.04,0,13.48s6.04,13.48,13.48,13.48c7.45,0,13.48-6.04,13.48-13.48S20.93,0,13.48,0
	 M21.57,16.84c-0.04,0.87-0.18,1.46-0.38,1.97c-0.21,0.54-0.49,0.99-0.94,1.44c-0.45,0.45-0.91,0.73-1.44,0.94
	c-0.52,0.2-1.11,0.34-1.98,0.38c-0.87,0.04-1.15,0.05-3.35,0.05c-2.21,0-2.49-0.01-3.36-0.05c-0.87-0.04-1.46-0.18-1.97-0.38
	c-0.53-0.21-0.99-0.49-1.44-0.94c-0.45-0.45-0.73-0.91-0.94-1.44c-0.2-0.52-0.34-1.11-0.38-1.97c-0.04-0.87-0.05-1.15-0.05-3.35
	S5.36,11,5.4,10.13c0.04-0.87,0.18-1.46,0.38-1.98c0.21-0.53,0.49-0.99,0.94-1.44c0.45-0.45,0.91-0.73,1.44-0.94
	c0.52-0.2,1.11-0.34,1.97-0.38c0.87-0.04,1.15-0.05,3.36-0.05c2.21,0,2.49,0.01,3.35,0.05c0.87,0.04,1.46,0.18,1.98,0.38
	c0.53,0.21,0.99,0.49,1.44,0.94c0.45,0.45,0.73,0.91,0.94,1.44c0.2,0.52,0.34,1.11,0.38,1.98c0.04,0.87,0.05,1.15,0.05,3.35
	S21.61,15.97,21.57,16.84"/>
</svg>
