<?xml version="1.0" encoding="utf-8"?>
<!-- Generator: Adobe Illustrator 28.0.0, SVG Export Plug-In . SVG Version: 6.00 Build 0)  -->
<svg version="1.1" id="Capa_1" xmlns="http://www.w3.org/2000/svg" xmlns:xlink="http://www.w3.org/1999/xlink" x="0px" y="0px"
	 viewBox="0 0 26.19 26.19" style="enable-background:new 0 0 26.19 26.19;" xml:space="preserve">
<style type="text/css">
	.st0{fill:#1F86BD;}
	.st1{fill:none;}
	.st2{fill:#396DB4;}
	.st3{fill-rule:evenodd;clip-rule:evenodd;fill:#FFFFFF;}
	.st4{fill:#FFFFFF;}
</style>
<polygon class="st4" points="13.23,11.96 9.81,6.98 7.98,6.98 12.22,13.14 12.74,13.9 16.4,19.2 18.22,19.2 13.75,12.72 "/>
<path class="st4" d="M13.09,0C5.86,0,0,5.86,0,13.09c0,7.23,5.86,13.09,13.09,13.09c7.23,0,13.09-5.86,13.09-13.09
	C26.19,5.86,20.32,0,13.09,0 M15.91,20.12l-0.27-0.4l-3.52-5.11l-4.73,5.5H6.23l5.38-6.26L7.23,7.5L6.24,6.07h4.04l0.27,0.4
	l3.29,4.78l3.45-4.02l1-1.16h1.17L14.37,12l4.6,6.68l0.99,1.43H15.91z"/>
</svg>
