<?xml version="1.0" encoding="utf-8"?>
<!-- Generator: Adobe Illustrator 28.0.0, SVG Export Plug-In . SVG Version: 6.00 Build 0)  -->
<svg version="1.1" id="Capa_1" xmlns="http://www.w3.org/2000/svg" xmlns:xlink="http://www.w3.org/1999/xlink" x="0px" y="0px"
	 viewBox="0 0 27 27.01" style="enable-background:new 0 0 27 27.01;" xml:space="preserve">
<style type="text/css">
	.st0{fill:#1F86BD;}
	.st1{fill:none;}
	.st2{fill:#396DB4;}
	.st3{fill-rule:evenodd;clip-rule:evenodd;fill:#FFFFFF;}
	.st4{fill:#FFFFFF;}
</style>
<line class="st1" x1="21.6" y1="141.4" x2="-39.26" y2="-200.22"/>
<path class="st4" d="M13.51,0C20.99,0.01,27.01,6.05,27,13.53c-0.01,7.47-6.06,13.5-13.53,13.48C6,26.99-0.01,20.94,0,13.47
	C0.01,6.01,6.06-0.01,13.51,0 M13.06,18.86c1.99-0.03,3.89-0.07,5.79-0.08c0.88-0.01,1.46-0.39,1.77-1.21
	c0.3-0.8,0.48-1.63,0.49-2.48c0.02-1.04-0.04-2.08-0.04-3.12c0-0.87-0.19-1.69-0.5-2.5c-0.23-0.58-0.64-0.93-1.21-1.06
	c-0.45-0.1-0.92-0.15-1.39-0.16c-2.14-0.04-4.29-0.06-6.43-0.06c-1.11,0-2.23,0.02-3.34,0.05C7.44,8.26,6.9,8.61,6.51,9.25
	c-0.43,0.71-0.49,1.51-0.56,2.28c-0.09,1.07-0.08,2.15-0.05,3.23c0.03,1.17,0.23,2.31,0.85,3.34c0.16,0.27,0.36,0.44,0.65,0.5
	c0.26,0.05,0.53,0.11,0.79,0.11C9.84,18.77,11.5,18.81,13.06,18.86"/>
<path class="st4" d="M12.05,16.1v-5.27c1.41,0.91,2.76,1.79,4.11,2.66C15.85,13.96,12.89,15.84,12.05,16.1"/>
</svg>
