<svg width="300" height="300" viewBox="0 0 300 300" fill="none" xmlns="http://www.w3.org/2000/svg">
<path d="M244.01 87.152L243.98 68.762C243.98 68.6821 244 68.6035 244.038 68.5335C244.077 68.4635 244.132 68.4045 244.2 68.362L269.83 52.072C269.901 52.0272 269.983 52.0024 270.067 52.0002C270.151 51.9979 270.235 52.0183 270.308 52.0591C270.382 52.1 270.443 52.1599 270.486 52.2325C270.528 52.3051 270.55 52.3879 270.55 52.472L270.65 239.742C270.65 239.867 270.6 239.986 270.512 240.074C270.424 240.162 270.305 240.212 270.18 240.212L254.54 240.272C254.415 240.272 254.296 240.222 254.208 240.134C254.119 240.046 254.07 239.927 254.07 239.802L254.22 82.412C254.219 82.3287 254.195 82.2473 254.152 82.176C254.109 82.1048 254.047 82.0464 253.974 82.0067C253.901 81.967 253.818 81.9475 253.735 81.9502C253.652 81.9529 253.571 81.9777 253.5 82.022L244.73 87.552C244.659 87.5968 244.577 87.6216 244.493 87.6238C244.408 87.6261 244.325 87.6057 244.252 87.5649C244.178 87.524 244.117 87.4641 244.074 87.3915C244.032 87.3189 244.01 87.2362 244.01 87.152Z" fill="#1F3E95"/>
<path d="M212.09 108.292L203.44 113.962C203.39 113.994 203.332 114.013 203.273 114.015C203.213 114.017 203.154 114.003 203.101 113.974C203.049 113.946 203.005 113.903 202.975 113.852C202.945 113.8 202.93 113.741 202.93 113.682L202.95 94.7616C202.95 94.706 202.963 94.6513 202.989 94.6023C203.016 94.5534 203.054 94.5119 203.1 94.4816L228.73 78.1516C228.78 78.119 228.838 78.1006 228.898 78.0984C228.958 78.0961 229.017 78.1101 229.069 78.1389C229.121 78.1676 229.165 78.21 229.195 78.2616C229.225 78.3131 229.241 78.3719 229.24 78.4316L229.22 213.362C229.22 213.449 229.185 213.533 229.124 213.595C229.062 213.657 228.978 213.692 228.89 213.692L212.92 213.582C212.833 213.582 212.749 213.547 212.687 213.485C212.625 213.423 212.59 213.339 212.59 213.252L212.6 108.572C212.601 108.512 212.585 108.453 212.555 108.402C212.525 108.35 212.481 108.308 212.429 108.279C212.377 108.25 212.318 108.236 212.258 108.238C212.198 108.241 212.14 108.259 212.09 108.292Z" fill="#1F3E95"/>
<path d="M72.29 206.522C72.29 207.495 72.63 207.635 73.31 206.942C81.41 198.775 89.2167 190.975 96.73 183.542C98.16 182.132 99.79 181.452 101.83 181.492C107.337 181.598 112.703 181.648 117.93 181.642C118.109 181.642 118.28 181.712 118.407 181.837C118.535 181.963 118.607 182.133 118.61 182.312L118.79 197.552C118.791 197.616 118.78 197.679 118.756 197.738C118.733 197.798 118.698 197.852 118.653 197.898C118.608 197.943 118.555 197.98 118.496 198.004C118.437 198.029 118.374 198.042 118.31 198.042L107.52 198.082C106.271 198.088 105.074 198.591 104.19 199.482C87.8433 215.888 72.1133 231.622 57 246.682C56.76 246.922 56.47 247.035 56.13 247.022C56.0326 247.017 55.941 246.973 55.874 246.901C55.807 246.828 55.7697 246.732 55.77 246.632L55.75 198.802C55.75 198.6 55.6689 198.407 55.5245 198.264C55.3801 198.122 55.1842 198.042 54.98 198.042L29.53 198.102C29.3947 198.102 29.265 198.049 29.1694 197.955C29.0737 197.862 29.02 197.734 29.02 197.602L29 104.812C29 104.6 29.0843 104.396 29.2343 104.246C29.3843 104.096 29.5878 104.012 29.8 104.012L117.95 104.022C118.147 104.022 118.336 104.1 118.477 104.241C118.617 104.381 118.697 104.572 118.7 104.772L118.72 119.632C118.721 119.763 118.697 119.892 118.648 120.014C118.598 120.135 118.526 120.245 118.434 120.338C118.342 120.431 118.232 120.505 118.111 120.555C117.99 120.606 117.861 120.632 117.73 120.632H45.79C45.7343 120.632 45.6809 120.654 45.6415 120.693C45.6021 120.733 45.58 120.786 45.58 120.842L45.57 180.722C45.57 180.832 45.5917 180.941 45.6339 181.043C45.6762 181.145 45.738 181.238 45.816 181.316C45.894 181.394 45.9866 181.456 46.0885 181.498C46.1905 181.54 46.2997 181.562 46.41 181.562L71.45 181.632C71.6834 181.632 71.9072 181.725 72.0723 181.892C72.2373 182.059 72.33 182.286 72.33 182.522L72.29 206.522Z" fill="#51B849"/>
<path d="M170.54 120.592L135.5 120.612C135.147 120.612 134.97 120.432 134.97 120.072L135 104.582C135 104.235 135.177 104.062 135.53 104.062L187.28 104.052C187.747 104.052 187.98 104.285 187.98 104.752C188.014 130.525 188.024 156.298 188.01 182.072C188.01 187.872 187.52 193.312 182.35 196.822C181.117 197.662 179.507 198.082 177.52 198.082C163.874 198.095 149.85 198.092 135.45 198.072C135.157 198.072 135.01 197.922 135.01 197.622L135.02 182.092C135.02 181.758 135.187 181.592 135.52 181.592L170.83 181.602C170.984 181.602 171.132 181.541 171.24 181.432C171.349 181.323 171.41 181.176 171.41 181.022L171.3 160.612C171.3 160.272 171.13 160.102 170.79 160.102H144.54C144.047 160.102 143.8 159.855 143.8 159.362L143.77 143.982C143.764 143.568 143.967 143.362 144.38 143.362L170.47 143.382C170.957 143.382 171.197 143.135 171.19 142.642L171.06 121.112C171.054 120.765 170.88 120.592 170.54 120.592Z" fill="#1F3E95"/>
</svg>
