<svg width="1000" height="600" viewBox="0 0 1000 600" fill="none" xmlns="http://www.w3.org/2000/svg">
<path d="M796.841 90.9922C797.288 91.4522 797.744 91.4589 798.211 91.0122L802.971 86.3922C803.064 86.3025 803.138 86.1952 803.19 86.0767C803.241 85.9581 803.268 85.8306 803.27 85.7014C803.272 85.5722 803.248 85.4439 803.2 85.3239C803.152 85.204 803.081 85.0946 802.991 85.0022L792.151 73.9822C792.08 73.9101 792.031 73.8191 792.011 73.7201C791.99 73.6211 791.998 73.5182 792.033 73.4236C792.069 73.3289 792.131 73.2465 792.212 73.186C792.293 73.1255 792.39 73.0895 792.491 73.0822C795.578 72.8222 798.531 72.3789 801.351 71.7522C806.111 70.7022 810.301 67.2722 814.621 65.0322C818.641 62.9522 822.988 62.4689 827.661 63.5822C831.631 64.5222 835.901 68.0922 839.741 70.1222C844.131 72.4622 849.161 73.1022 854.141 73.3022C854.242 73.307 854.339 73.3412 854.421 73.4005C854.503 73.4598 854.566 73.5416 854.602 73.6361C854.638 73.7305 854.646 73.8334 854.624 73.9322C854.603 74.031 854.553 74.1213 854.481 74.1922L843.351 85.0922C842.878 85.5589 842.874 86.0256 843.341 86.4922L848.111 91.2622C848.504 91.6489 848.891 91.6489 849.271 91.2622L860.181 80.1822C860.928 79.4222 861.298 79.5756 861.291 80.6422C861.264 87.6156 863.058 93.6622 866.671 98.7822C868.631 101.556 869.978 104.139 870.711 106.532C873.421 115.302 868.831 121.272 864.551 128.282C862.271 132.022 861.821 137.662 861.521 142.092C861.515 142.19 861.481 142.285 861.423 142.364C861.365 142.443 861.285 142.504 861.193 142.539C861.101 142.574 861.001 142.581 860.905 142.56C860.809 142.54 860.72 142.492 860.651 142.422L849.301 131.502C848.934 131.149 848.578 131.159 848.231 131.532L843.641 136.412C843.241 136.839 843.248 137.262 843.661 137.682C847.014 141.129 850.508 144.562 854.141 147.982C854.341 148.169 854.471 148.392 854.531 148.652C854.556 148.755 854.556 148.862 854.533 148.966C854.509 149.069 854.462 149.165 854.396 149.247C854.329 149.33 854.244 149.395 854.148 149.439C854.052 149.484 853.947 149.505 853.841 149.502C847.781 149.372 841.951 150.812 836.881 154.102C834.351 155.732 831.641 157.682 828.811 158.652C823.611 160.432 818.458 159.856 813.351 156.922C809.331 154.612 805.581 151.632 800.831 150.712C798.144 150.192 795.501 149.862 792.901 149.722C792.751 149.714 792.606 149.663 792.484 149.574C792.362 149.485 792.269 149.363 792.215 149.223C792.161 149.082 792.149 148.929 792.18 148.781C792.211 148.634 792.285 148.499 792.391 148.392L802.761 137.912C802.99 137.684 803.119 137.374 803.119 137.05C803.119 136.726 802.99 136.414 802.761 136.182L798.331 131.742C798.119 131.528 797.83 131.406 797.528 131.404C797.226 131.403 796.936 131.52 796.721 131.732L785.851 142.392C785.775 142.468 785.679 142.521 785.574 142.543C785.469 142.565 785.359 142.556 785.259 142.516C785.159 142.477 785.073 142.409 785.011 142.322C784.949 142.234 784.914 142.13 784.911 142.022C784.721 136.282 783.711 130.812 780.561 126.052C776.431 119.802 773.411 113.712 775.761 106.262C776.951 102.502 779.601 99.2622 781.541 95.8422C783.868 91.7489 785.044 86.9956 785.071 81.5822C785.078 79.8022 785.701 79.5489 786.941 80.8222L796.841 90.9922Z" fill="#FF0000"/>
<path d="M297.771 346.402C297.771 346.115 297.627 345.972 297.341 345.972C257.281 346.012 215.681 345.989 172.541 345.902C150.051 345.852 130.401 337.542 123.881 314.032C121.891 306.832 121.001 299.152 121.001 291.692C120.994 233.139 121.027 175.012 121.101 117.312C121.111 107.302 123.001 97.092 127.171 88.562C136.141 70.262 155.001 65.322 173.811 65.332C230.537 65.352 287.621 65.3587 345.061 65.352C369.951 65.352 390.751 73.132 397.581 98.772C399.591 106.292 400.081 114.602 400.071 122.672C400.024 242.045 400.024 361.362 400.071 480.622C400.081 503.572 394.211 525.532 369.801 533.272C359.441 536.562 348.781 536.572 337.791 536.562C282.958 536.542 228.124 536.522 173.291 536.502C167.444 536.502 161.158 535.572 154.431 533.712C130.961 527.232 123.001 506.282 122.951 483.832C122.884 451.125 122.874 418.875 122.921 387.082C122.923 386.938 122.983 386.801 123.085 386.7C123.188 386.599 123.327 386.542 123.471 386.542L224.551 386.532C224.731 386.532 224.904 386.603 225.032 386.728C225.159 386.854 225.231 387.024 225.231 387.202L225.131 446.382C225.131 447.189 225.534 447.592 226.341 447.592L296.631 447.602C297.391 447.602 297.771 447.225 297.771 446.472V346.402ZM297.761 154.522C297.761 154.403 297.713 154.288 297.629 154.204C297.545 154.119 297.43 154.072 297.311 154.072H223.771C223.712 154.072 223.653 154.084 223.599 154.106C223.544 154.129 223.494 154.162 223.453 154.204C223.411 154.246 223.378 154.295 223.355 154.35C223.332 154.404 223.321 154.463 223.321 154.522V256.662C223.321 256.721 223.332 256.78 223.355 256.834C223.378 256.889 223.411 256.938 223.453 256.98C223.494 257.022 223.544 257.055 223.599 257.078C223.653 257.1 223.712 257.112 223.771 257.112H297.311C297.43 257.112 297.545 257.065 297.629 256.98C297.713 256.896 297.761 256.781 297.761 256.662V154.522Z" fill="#FF0000"/>
<path d="M461.541 197.222C461.541 197.065 461.479 196.915 461.368 196.805C461.257 196.694 461.107 196.632 460.951 196.632L424.541 196.712C424.426 196.712 424.315 196.666 424.233 196.583C424.151 196.501 424.103 196.389 424.101 196.272C423.974 190.925 423.978 185.802 424.111 180.902C424.171 178.748 424.668 176.595 425.601 174.442C441.461 137.782 456.994 101.745 472.201 66.3318C472.328 66.0318 472.542 65.776 472.814 65.5964C473.086 65.4168 473.405 65.3213 473.731 65.3218L566.551 65.3718C566.67 65.3718 566.785 65.4192 566.869 65.5036C566.953 65.588 567.001 65.7024 567.001 65.8218L566.991 535.812C566.991 535.904 566.973 535.995 566.938 536.08C566.902 536.165 566.851 536.242 566.786 536.307C566.721 536.372 566.644 536.423 566.559 536.458C566.474 536.494 566.383 536.512 566.291 536.512L461.771 536.522C461.71 536.522 461.651 536.5 461.608 536.46C461.565 536.421 461.541 536.367 461.541 536.312V197.222Z" fill="#FF0000"/>
<path d="M631.041 197.482C631.041 197.262 630.954 197.051 630.798 196.895C630.642 196.739 630.431 196.652 630.211 196.652L594.261 196.692C593.774 196.692 593.524 196.445 593.511 195.952C593.351 190.232 593.374 184.715 593.581 179.402C593.634 178.042 593.924 176.752 594.451 175.532C609.664 140.392 625.368 103.969 641.561 66.262C641.679 65.9804 641.878 65.74 642.132 65.5709C642.387 65.4019 642.686 65.3118 642.991 65.312L735.831 65.392C735.89 65.392 735.949 65.4039 736.003 65.427C736.058 65.4501 736.107 65.484 736.149 65.5267C736.191 65.5695 736.224 65.6202 736.247 65.676C736.269 65.7318 736.281 65.7916 736.281 65.852L736.291 536.042C736.291 536.169 736.24 536.291 736.15 536.381C736.06 536.471 735.938 536.522 735.811 536.522L631.521 536.532C631.201 536.532 631.041 536.369 631.041 536.042V197.482Z" fill="#FF0000"/>
<path d="M792.541 253.522C783.831 237.022 781.571 218.062 783.061 198.742C783.128 197.949 783.528 197.409 784.261 197.122C809.161 187.442 836.601 186.652 861.081 197.012C861.981 197.399 862.501 198.065 862.641 199.012C867.951 234.472 854.581 265.162 825.181 284.612C824.268 285.219 823.328 285.249 822.361 284.702C809.668 277.529 799.728 267.135 792.541 253.522Z" fill="#008FD5"/>
<path d="M841.631 335.282C842.058 335.549 842.541 335.699 843.081 335.732C843.343 335.745 843.591 335.857 843.774 336.046C843.958 336.235 844.064 336.487 844.071 336.752C844.071 336.852 844.074 336.949 844.081 337.042C844.121 337.602 843.861 337.882 843.301 337.882L829.821 337.842C829.702 337.843 829.586 337.81 829.485 337.747C829.385 337.684 829.304 337.594 829.254 337.486C829.203 337.379 829.185 337.259 829.2 337.141C829.216 337.024 829.265 336.913 829.341 336.822C829.774 336.295 830.338 335.892 831.031 335.612C831.391 335.472 831.644 335.225 831.791 334.872C832.661 332.752 833.131 330.722 835.851 330.382C839.184 329.962 840.994 331.402 841.281 334.702C841.301 334.956 841.418 335.149 841.631 335.282Z" fill="#FF0000"/>
<path d="M865.371 386.572C861.741 376.282 847.231 375.352 842.271 385.082C841.411 386.752 841.111 388.542 840.761 390.392C840.694 390.752 840.474 390.932 840.101 390.932L811.041 390.952C810.654 390.952 810.418 390.762 810.331 390.382C809.841 388.162 809.461 385.892 808.131 383.992C802.531 375.982 791.101 376.352 786.251 385.082C785.351 386.692 785.191 388.722 784.651 390.492C784.594 390.675 784.479 390.834 784.323 390.944C784.168 391.055 783.981 391.11 783.791 391.102L777.941 390.822C776.581 390.755 775.761 390.055 775.481 388.722C775.228 387.502 775.101 386.282 775.101 385.062C775.134 373.229 775.141 360.359 775.121 346.452C775.121 345.005 775.291 343.575 775.631 342.162C775.721 341.802 775.942 341.491 776.251 341.292C777.238 340.659 778.288 340.339 779.401 340.332C799.734 340.279 825.348 340.262 856.241 340.282C859.181 340.289 861.218 341.685 862.351 344.472C864.731 350.332 867.101 356.112 869.461 361.812C869.603 362.156 869.814 362.467 870.081 362.725C870.348 362.983 870.664 363.183 871.011 363.312C873.861 364.382 875.071 367.782 875.651 370.692C876.691 375.912 877.498 381.142 878.071 386.382C878.391 389.282 876.291 390.932 873.571 390.852C871.364 390.792 869.251 390.875 867.231 391.102C867.021 391.125 866.81 391.066 866.643 390.938C866.475 390.809 866.363 390.621 866.331 390.412C866.124 389.085 865.804 387.805 865.371 386.572ZM844.361 361.842C844.361 361.969 844.412 362.092 844.502 362.182C844.592 362.272 844.714 362.322 844.841 362.322L864.161 362.432C864.24 362.433 864.318 362.414 864.388 362.378C864.458 362.341 864.518 362.288 864.563 362.223C864.607 362.157 864.635 362.082 864.643 362.003C864.652 361.925 864.641 361.845 864.611 361.772L857.731 344.872C857.696 344.784 857.635 344.709 857.557 344.655C857.478 344.602 857.386 344.573 857.291 344.572L844.831 344.632C844.704 344.632 844.582 344.683 844.492 344.773C844.402 344.863 844.351 344.985 844.351 345.112L844.361 361.842ZM826.331 360.182C826.26 360.183 826.189 360.17 826.123 360.144C826.057 360.117 825.997 360.077 825.946 360.027C825.896 359.977 825.856 359.916 825.829 359.85C825.803 359.784 825.79 359.713 825.791 359.642L826.031 349.802C826.032 349.732 826.02 349.662 825.994 349.596C825.968 349.531 825.929 349.471 825.879 349.421C825.83 349.371 825.771 349.331 825.706 349.303C825.641 349.276 825.572 349.262 825.501 349.262L815.541 349.252C815.401 349.252 815.266 349.308 815.166 349.407C815.067 349.507 815.011 349.642 815.011 349.782L815.041 359.632C815.041 359.773 814.985 359.907 814.886 360.007C814.786 360.106 814.652 360.162 814.511 360.162L804.711 360.112C804.57 360.112 804.436 360.168 804.336 360.267C804.237 360.367 804.181 360.502 804.181 360.642V370.462C804.181 370.532 804.195 370.601 804.221 370.665C804.248 370.729 804.287 370.788 804.336 370.837C804.386 370.886 804.444 370.925 804.508 370.952C804.573 370.978 804.641 370.992 804.711 370.992L814.561 371.012C814.702 371.012 814.836 371.068 814.936 371.167C815.035 371.267 815.091 371.402 815.091 371.542L815.021 381.462C815.02 381.534 815.033 381.606 815.06 381.673C815.088 381.74 815.128 381.8 815.18 381.851C815.231 381.901 815.292 381.941 815.36 381.967C815.427 381.993 815.499 382.005 815.571 382.002L825.461 381.782C825.531 381.781 825.599 381.766 825.663 381.738C825.727 381.71 825.785 381.67 825.833 381.62C825.881 381.57 825.919 381.511 825.945 381.446C825.97 381.381 825.982 381.312 825.981 381.242L825.801 371.582C825.8 371.512 825.812 371.442 825.839 371.376C825.865 371.311 825.903 371.251 825.953 371.201C826.002 371.151 826.061 371.111 826.126 371.083C826.191 371.056 826.261 371.042 826.331 371.042L836.271 371.032C836.341 371.032 836.41 371.018 836.474 370.992C836.538 370.965 836.597 370.926 836.646 370.877C836.695 370.828 836.734 370.769 836.761 370.705C836.787 370.641 836.801 370.572 836.801 370.502L836.811 360.582C836.811 360.512 836.797 360.442 836.77 360.377C836.743 360.312 836.703 360.253 836.652 360.204C836.602 360.154 836.542 360.116 836.477 360.09C836.412 360.064 836.341 360.051 836.271 360.052L826.331 360.182Z" fill="#FF0000"/>
<path d="M807.351 390.752C807.351 393.348 806.32 395.839 804.484 397.674C802.648 399.51 800.158 400.542 797.561 400.542C794.965 400.542 792.474 399.51 790.638 397.674C788.802 395.839 787.771 393.348 787.771 390.752C787.771 388.155 788.802 385.665 790.638 383.829C792.474 381.993 794.965 380.962 797.561 380.962C800.158 380.962 802.648 381.993 804.484 383.829C806.32 385.665 807.351 388.155 807.351 390.752ZM802.221 390.822C802.221 389.591 801.732 388.411 800.862 387.541C799.992 386.671 798.812 386.182 797.581 386.182C796.35 386.182 795.17 386.671 794.3 387.541C793.43 388.411 792.941 389.591 792.941 390.822C792.941 392.053 793.43 393.233 794.3 394.103C795.17 394.973 796.35 395.462 797.581 395.462C798.812 395.462 799.992 394.973 800.862 394.103C801.732 393.233 802.221 392.053 802.221 390.822Z" fill="#FF0000"/>
<path d="M863.321 390.862C863.321 393.464 862.288 395.959 860.448 397.799C858.608 399.638 856.113 400.672 853.511 400.672C850.909 400.672 848.414 399.638 846.574 397.799C844.735 395.959 843.701 393.464 843.701 390.862C843.701 388.26 844.735 385.765 846.574 383.925C848.414 382.086 850.909 381.052 853.511 381.052C856.113 381.052 858.608 382.086 860.448 383.925C862.288 385.765 863.321 388.26 863.321 390.862ZM858.181 390.902C858.181 389.666 857.69 388.481 856.816 387.607C855.942 386.733 854.757 386.242 853.521 386.242C852.285 386.242 851.1 386.733 850.226 387.607C849.352 388.481 848.861 389.666 848.861 390.902C848.861 391.514 848.982 392.12 849.216 392.685C849.45 393.251 849.793 393.764 850.226 394.197C850.659 394.63 851.173 394.973 851.738 395.207C852.303 395.441 852.909 395.562 853.521 395.562C854.133 395.562 854.739 395.441 855.305 395.207C855.87 394.973 856.384 394.63 856.816 394.197C857.249 393.764 857.592 393.251 857.826 392.685C858.061 392.12 858.181 391.514 858.181 390.902Z" fill="#FF0000"/>
<path d="M835.521 467.842C835.521 468.209 835.681 468.299 836.001 468.112L856.241 456.132C856.382 456.049 856.537 455.995 856.699 455.972C856.86 455.949 857.024 455.957 857.181 455.997C857.338 456.037 857.485 456.108 857.614 456.205C857.742 456.301 857.85 456.423 857.931 456.562L869.341 476.022C869.446 476.205 869.475 476.423 869.421 476.627C869.366 476.831 869.233 477.005 869.051 477.112L848.281 489.282C848.213 489.323 848.157 489.38 848.118 489.448C848.079 489.517 848.059 489.594 848.059 489.672C848.059 489.75 848.079 489.826 848.118 489.893C848.157 489.96 848.213 490.014 848.281 490.052L868.951 501.872C869.075 501.943 869.183 502.037 869.27 502.15C869.358 502.262 869.422 502.391 869.459 502.529C869.496 502.666 869.506 502.81 869.487 502.951C869.469 503.092 869.422 503.229 869.351 503.352L858.311 522.582C858.227 522.73 858.114 522.861 857.979 522.965C857.845 523.07 857.691 523.147 857.526 523.191C857.361 523.236 857.189 523.248 857.02 523.225C856.851 523.203 856.688 523.148 856.541 523.062L836.061 511.262C835.707 511.055 835.531 511.155 835.531 511.562L835.521 536.082C835.521 536.215 835.468 536.342 835.374 536.436C835.281 536.529 835.153 536.582 835.021 536.582L812.821 536.562C812.507 536.562 812.217 536.642 811.951 536.802C811.617 537.002 811.371 536.949 811.211 536.642C811.091 536.409 811.031 536.162 811.031 535.902C810.997 528.369 810.984 520.445 810.991 512.132C810.991 512.038 810.967 511.946 810.921 511.864C810.874 511.783 810.806 511.715 810.725 511.669C810.644 511.622 810.551 511.597 810.457 511.598C810.364 511.599 810.272 511.624 810.191 511.672L790.011 523.582C789.893 523.65 789.764 523.695 789.63 523.714C789.496 523.732 789.36 523.725 789.23 523.691C789.1 523.658 788.978 523.599 788.872 523.519C788.766 523.438 788.677 523.337 788.611 523.222L777.201 503.732C777.136 503.623 777.093 503.503 777.075 503.377C777.057 503.252 777.064 503.124 777.096 503.001C777.127 502.878 777.183 502.763 777.259 502.662C777.336 502.561 777.431 502.476 777.541 502.412L797.951 490.432C798.042 490.378 798.117 490.302 798.169 490.21C798.221 490.118 798.247 490.015 798.246 489.909C798.245 489.804 798.217 489.7 798.163 489.61C798.109 489.519 798.033 489.444 797.941 489.392L777.421 477.732C777.306 477.667 777.206 477.579 777.125 477.475C777.044 477.371 776.985 477.251 776.951 477.124C776.916 476.997 776.907 476.864 776.925 476.733C776.942 476.602 776.985 476.476 777.051 476.362L788.341 456.622C788.397 456.524 788.472 456.437 788.562 456.368C788.651 456.299 788.753 456.248 788.862 456.218C788.971 456.188 789.084 456.18 789.195 456.195C789.307 456.209 789.414 456.246 789.511 456.302L810.191 468.232C810.272 468.278 810.363 468.302 810.456 468.302C810.549 468.302 810.64 468.278 810.72 468.233C810.8 468.187 810.866 468.121 810.912 468.042C810.958 467.963 810.982 467.873 810.981 467.782L811.001 443.562C811.001 443.209 811.177 443.032 811.531 443.032L835.031 443.062C835.364 443.062 835.531 443.225 835.531 443.552L835.521 467.842Z" fill="#008FD5"/>
</svg>
