<svg width="223" height="114" viewBox="0 0 223 114" fill="none" xmlns="http://www.w3.org/2000/svg">
<path d="M103.4 47.3502C103.4 51.0902 99.9901 53.5002 94.9601 53.5002C93.5101 53.5002 91.8301 53.3202 89.6001 53.3202C88.0214 53.2948 86.4424 53.3549 84.8701 53.5002C84.5901 53.5002 84.4401 52.5002 84.6801 52.4102C86.4301 51.9602 87.7901 51.6902 87.7901 49.4102V36.0802C87.7901 34.1502 86.5501 33.6402 85.2601 33.3102C85.0201 33.2502 85.1701 32.2502 85.4101 32.3102C86.619 32.4415 87.8342 32.5049 89.0501 32.5002C91.4601 32.5002 93.2401 32.3102 94.5701 32.3102C98.4501 32.3102 101.65 33.9402 101.68 37.3102C101.697 38.3981 101.323 39.4559 100.625 40.291C99.9278 41.1261 98.9536 41.683 97.8801 41.8602V42.0402C98.5932 42.0189 99.3033 42.1401 99.9689 42.3968C100.634 42.6535 101.242 43.0404 101.756 43.535C102.27 44.0295 102.681 44.6217 102.963 45.2768C103.245 45.932 103.394 46.6369 103.4 47.3502ZM91.4001 36.0802V41.4402H94.5101C96.6801 41.4402 97.9401 40.3602 97.9401 38.0402C97.9401 35.1802 96.0101 33.8502 93.5401 33.8502C91.9501 33.8502 91.4001 34.3902 91.4001 36.0802ZM99.5101 48.0102C99.5617 47.3377 99.4681 46.662 99.2359 46.0288C99.0037 45.3956 98.6382 44.8196 98.1642 44.3399C97.6901 43.8601 97.1185 43.4878 96.4881 43.248C95.8577 43.0083 95.1832 42.9067 94.5101 42.9502H91.4001V49.4602C91.4001 51.1202 92.2501 51.9302 94.8701 51.9302C97.4901 51.9302 99.5101 51.1602 99.5101 48.0102Z" fill="#002F6C"/>
<path d="M105.15 52.4102C106.9 51.9602 108.25 51.6902 108.25 49.4102V36.0802C108.25 34.1502 107.02 33.6402 105.72 33.3102C105.48 33.2502 105.63 32.2502 105.87 32.3102C108.07 32.5602 111.87 32.5002 113.71 32.5002C116.45 32.5002 118.44 32.3702 120.91 32.3102C121.63 32.3102 121.63 32.8002 121.48 33.4902L120.76 36.3502C120.67 36.7702 119.91 36.7702 119.76 36.3502C119.31 34.8802 118.41 34.0302 114.64 34.0302C112.53 34.0302 111.84 34.5702 111.84 36.1402V41.0502C111.84 41.8402 112.23 41.9902 112.84 41.9902H113.51C115.95 41.9902 118.06 41.7502 119.29 40.6302C119.59 40.3602 120.29 40.4202 119.98 41.0202L118.27 44.8202C118.03 45.3602 117.57 45.3002 117.27 44.8202C116.58 43.8202 115.04 43.4602 113.27 43.4602H112.83C112.23 43.4602 111.83 43.6102 111.83 44.4002V49.4602C111.83 51.1802 112.55 51.8102 115.05 51.8102C119.6 51.8102 121.41 49.7302 122.13 48.5902C122.34 48.2502 123.13 48.4002 123.13 48.9202C123.13 50.4502 121.83 53.5002 119.93 53.5002C118.25 53.4102 116.59 53.3202 114.06 53.3202C111.29 53.3202 108 53.2302 105.26 53.5002C105.03 53.5302 104.91 52.4702 105.15 52.4102Z" fill="#002F6C"/>
<path d="M125.4 43.2803C125.4 38.0703 128.59 31.8604 137.03 31.8604C140.53 31.8604 143.54 32.9504 143.18 34.0004L142.83 35.1604C141.74 38.3804 140.57 34.2504 135.2 34.2504C130.89 34.2504 128.78 37.0604 128.78 41.3904C128.713 42.6435 128.904 43.8971 129.343 45.0729C129.781 46.2487 130.458 47.3215 131.329 48.2243C132.201 49.127 133.25 49.8403 134.409 50.3197C135.569 50.799 136.815 51.0342 138.07 51.0103C139.766 50.8705 141.416 50.3874 142.92 49.5904C143.16 49.4404 143.79 50.1304 143.61 50.4004C142.31 52.3004 138.28 53.9004 137.34 53.9004C132.24 53.9204 125.4 50.9703 125.4 43.2803Z" fill="#002F6C"/>
<path d="M167.04 53.4402H159.04C158.65 53.4402 158.62 52.4402 158.95 52.4402C160.06 52.2302 161.27 51.8402 160.15 49.2502L159.83 48.4602C159.53 47.7402 159.02 47.6802 158.11 47.6802H151.97C151.06 47.6802 150.55 47.7402 150.25 48.4602L149.95 49.2202C148.89 51.8102 150.04 52.2202 151.48 52.4102C151.88 52.4702 151.79 53.4102 151.39 53.4102H144.89C144.52 53.4102 144.43 52.4102 144.8 52.4102C146.03 52.2002 146.8 51.7802 147.87 49.2202L152.96 37.5302C154.14 34.8802 154.5 33.6402 154.5 32.5302C155.178 32.1788 155.938 32.0198 156.7 32.0702L164.09 49.1602C165.17 51.7202 165.9 52.1602 167.09 52.3802C167.52 52.4702 167.4 53.4402 167.04 53.4402ZM158.64 45.5102L155.11 37.0802L151.55 45.5102C151.37 45.9302 151.83 45.9902 152.25 45.9902H157.94C158.36 45.9902 158.83 45.9302 158.64 45.5102Z" fill="#002F6C"/>
<path d="M178.28 52.4403C180.36 52.1703 181.75 51.7503 181.75 50.1203V35.2703C181.75 34.5103 181.48 34.2703 180.75 34.2703H179.94C177.08 34.2703 175.48 34.9403 174.88 36.2703C174.61 36.8703 173.58 36.7803 173.7 36.2703C174.021 35.0861 174.252 33.8793 174.39 32.6603C174.46 32.0803 174.79 32.1103 175.33 32.1703C178.118 32.3927 180.915 32.4628 183.71 32.3803C189.43 32.3803 191.45 32.3203 192.9 32.1703C193.44 32.1103 193.95 32.0803 193.77 32.6603C193.373 33.8396 193.062 35.0461 192.84 36.2703C192.804 36.3738 192.736 36.4635 192.646 36.527C192.557 36.5904 192.45 36.6245 192.34 36.6245C192.23 36.6245 192.123 36.5904 192.034 36.527C191.944 36.4635 191.877 36.3738 191.84 36.2703C191.54 35.0103 190.21 34.2703 187.62 34.2703H186.69C185.97 34.2703 185.51 34.5103 185.51 35.2703V50.1603C185.51 51.7903 186.9 52.1603 188.98 52.4803C189.22 52.4803 189.04 53.4803 188.77 53.4803H178.49C178.22 53.4403 178.04 52.4703 178.28 52.4403Z" fill="#002F6C"/>
<path d="M198.08 45.5401V36.0801C198.127 35.7362 198.098 35.3863 197.996 35.0547C197.893 34.7231 197.72 34.4177 197.488 34.1599C197.256 33.902 196.97 33.6977 196.651 33.5613C196.332 33.425 195.987 33.3597 195.64 33.3701C195.4 33.3701 195.58 32.3701 195.82 32.3701H204.05C204.29 32.3701 204.47 33.3701 204.23 33.3701C203.886 33.3639 203.545 33.4323 203.23 33.5707C202.915 33.7092 202.634 33.9142 202.405 34.1718C202.177 34.4294 202.008 34.7334 201.908 35.0629C201.809 35.3923 201.782 35.7394 201.83 36.0801V45.6901C201.83 49.9101 204.27 51.8701 207.46 51.8701C210.65 51.8701 213.37 49.8701 213.37 45.6901V36.0801C213.37 34.0801 212.25 33.5801 210.78 33.3701C210.57 33.3701 210.72 32.3701 210.96 32.3701H217.74C217.95 32.3701 218.13 33.3701 217.89 33.3701C217.545 33.3624 217.203 33.4298 216.887 33.5676C216.57 33.7053 216.288 33.9102 216.059 34.1679C215.829 34.4257 215.659 34.7302 215.559 35.0604C215.459 35.3906 215.432 35.7385 215.48 36.0801V45.5101C215.48 51.0601 211.89 53.9201 207.1 53.9201C202.83 53.9201 198.08 51.6601 198.08 45.5401Z" fill="#002F6C"/>
<path d="M84.6902 80.6303C86.4402 80.1803 87.8002 79.9103 87.8002 77.6303V64.3003C87.8002 62.3703 86.5602 61.8603 85.2602 61.5303C85.0202 61.4703 85.1702 60.5303 85.4202 60.5303C87.6102 60.7703 91.4202 60.7103 93.2502 60.7103C95.9902 60.7103 97.9802 60.5903 100.45 60.5303C101.17 60.5303 101.17 61.0103 101.02 61.7003L100.3 64.5603C100.21 64.9903 99.4602 64.9903 99.3002 64.5603C98.8402 63.0903 97.9402 62.2403 94.1702 62.2403C92.0602 62.2403 91.3702 62.7903 91.3702 64.3503V69.5703C91.3702 70.3503 91.7602 70.5003 92.3702 70.5003H93.0302C95.4702 70.5003 97.5802 70.2603 98.8102 69.1403C99.1202 68.8703 99.8102 68.9303 99.5102 69.5403L97.8302 73.3103C97.5902 73.8503 97.1402 73.7903 96.8302 73.3103C96.1402 72.3103 94.6102 71.9603 92.8302 71.9603H92.4102C91.8002 71.9603 91.4102 72.1103 91.4102 72.8903V77.6503C91.4102 79.8803 92.8002 80.0603 95.2702 80.6503C95.5402 80.7103 95.3902 81.7703 95.0902 81.7403C92.9202 81.5903 91.3502 81.5603 89.6002 81.5603C88.0215 81.5391 86.4427 81.5991 84.8702 81.7403C84.5702 81.7503 84.4502 80.6903 84.6902 80.6303Z" fill="#002F6C"/>
<path d="M105.83 73.7603V64.3003C105.877 63.9565 105.848 63.6065 105.746 63.2749C105.643 62.9433 105.47 62.638 105.238 62.3801C105.006 62.1222 104.72 61.9179 104.401 61.7816C104.082 61.6452 103.737 61.5799 103.39 61.5903C103.15 61.5903 103.33 60.5903 103.57 60.5903H111.83C112.08 60.5903 112.26 61.5903 112.02 61.5903C111.675 61.5826 111.333 61.65 111.017 61.7878C110.7 61.9255 110.418 62.1304 110.189 62.3881C109.959 62.6459 109.789 62.9504 109.689 63.2806C109.589 63.6108 109.562 63.9587 109.61 64.3003V73.9103C109.61 78.1303 112.05 80.0903 115.24 80.0903C118.43 80.0903 121.15 78.0903 121.15 73.9103V64.3003C121.15 62.3003 120.03 61.8003 118.55 61.5903C118.34 61.5903 118.49 60.5903 118.73 60.5903H125.51C125.73 60.5903 125.91 61.5903 125.67 61.5903C125.324 61.5812 124.981 61.6474 124.663 61.7845C124.346 61.9217 124.062 62.1263 123.832 62.3842C123.602 62.6422 123.43 62.9472 123.33 63.2781C123.229 63.609 123.202 63.9579 123.25 64.3003V73.7303C123.25 79.2803 119.67 82.1403 114.88 82.1403C110.61 82.1603 105.83 79.8803 105.83 73.7603Z" fill="#002F6C"/>
<path d="M131.88 80.66C133.96 80.39 135.35 79.97 135.35 78.34V63.49C135.35 62.74 135.08 62.49 134.35 62.49H133.53C130.67 62.49 129.07 63.15 128.47 64.49C128.2 65.1 127.17 65.01 127.3 64.49C127.621 63.3058 127.852 62.099 127.99 60.88C128.05 60.31 128.38 60.34 128.92 60.4C131.708 60.6221 134.505 60.6922 137.3 60.61C143.02 60.61 145.04 60.55 146.49 60.4C147.03 60.34 147.54 60.31 147.36 60.88C146.963 62.0593 146.652 63.2658 146.43 64.49C146.394 64.5935 146.326 64.6832 146.236 64.7467C146.147 64.8101 146.04 64.8442 145.93 64.8442C145.82 64.8442 145.713 64.8101 145.624 64.7467C145.534 64.6832 145.467 64.5935 145.43 64.49C145.13 63.23 143.81 62.49 141.22 62.49H140.28C139.56 62.49 139.11 62.73 139.11 63.49V78.34C139.11 79.97 140.49 80.34 142.57 80.66C142.81 80.66 142.63 81.66 142.36 81.66H132.1C131.83 81.66 131.64 80.69 131.88 80.66Z" fill="#002F6C"/>
<path d="M151.83 73.7603V64.3003C151.877 63.9565 151.848 63.6065 151.746 63.2749C151.643 62.9433 151.47 62.638 151.238 62.3801C151.006 62.1222 150.72 61.9179 150.401 61.7816C150.082 61.6452 149.737 61.5799 149.39 61.5903C149.15 61.5903 149.33 60.5903 149.57 60.5903H157.83C158.08 60.5903 158.26 61.5903 158.02 61.5903C157.675 61.5826 157.333 61.65 157.017 61.7878C156.7 61.9255 156.418 62.1304 156.189 62.3881C155.959 62.6459 155.789 62.9504 155.689 63.2806C155.589 63.6108 155.562 63.9587 155.61 64.3003V73.9103C155.61 78.1303 158.05 80.0903 161.24 80.0903C164.43 80.0903 167.15 78.0903 167.15 73.9103V64.3003C167.15 62.3003 166.03 61.8003 164.55 61.5903C164.34 61.5903 164.49 60.5903 164.73 60.5903H171.51C171.73 60.5903 171.91 61.5903 171.66 61.5903C171.315 61.5826 170.973 61.65 170.657 61.7878C170.34 61.9255 170.058 62.1304 169.829 62.3881C169.599 62.6459 169.429 62.9504 169.329 63.2806C169.229 63.6108 169.202 63.9587 169.25 64.3003V73.7303C169.25 79.2803 165.67 82.1403 160.88 82.1403C156.63 82.1603 151.83 79.8803 151.83 73.7603Z" fill="#002F6C"/>
<path d="M195.96 81.7803C194.853 82.1985 193.641 82.2513 192.502 81.931C191.363 81.6107 190.357 80.9341 189.63 80.0003L184.99 74.0003C183.69 72.3103 182.16 72.0703 180.05 72.0003V77.8403C180.05 79.9503 181.49 80.3103 183.42 80.5503C183.63 80.5503 183.48 81.5503 183.24 81.5503H174.11C173.87 81.5503 173.69 80.5503 173.93 80.5503C175.47 80.3403 176.43 79.7403 176.43 77.8403V64.4803C176.43 62.4803 175.43 61.9203 173.93 61.5303C173.69 61.4703 173.84 60.5303 174.11 60.5303C175.262 60.6597 176.421 60.7199 177.58 60.7103C179.81 60.7103 181.88 60.5303 183.33 60.5303C187.88 60.5303 190.92 62.3903 190.92 66.1003C190.92 69.6003 188.09 71.3103 185.56 71.4603V71.6103C186.77 71.6103 187.64 72.1303 188.97 73.7803L193.45 79.4203C193.726 79.8461 194.096 80.2035 194.531 80.4651C194.966 80.7268 195.454 80.8858 195.96 80.9303C196.2 80.9103 196.14 81.7203 195.96 81.7803ZM187.13 66.8903C187.19 66.2501 187.11 65.6045 186.894 64.9986C186.679 64.3927 186.334 63.8411 185.884 63.3822C185.434 62.9233 184.889 62.5681 184.287 62.3415C183.685 62.1149 183.041 62.0224 182.4 62.0703C180.62 62.0703 180.05 62.8003 180.05 64.4803V70.6903H180.92C185.41 70.6903 187.13 69.9103 187.13 66.8903Z" fill="#002F6C"/>
<path d="M196.18 71.2301C196.18 65.1501 200.52 60.0801 207.12 60.0801C208.561 60.0341 209.996 60.2843 211.336 60.8149C212.676 61.3456 213.893 62.1455 214.912 63.1652C215.931 64.185 216.73 65.4029 217.259 66.7436C217.788 68.0843 218.037 69.5194 217.99 70.9601C217.99 77.0801 213.68 82.1401 207.06 82.1401C205.618 82.1802 204.182 81.9253 202.842 81.3908C201.502 80.8564 200.285 80.0537 199.266 79.0321C198.248 78.0105 197.448 76.7914 196.918 75.4498C196.387 74.1081 196.136 72.6722 196.18 71.2301ZM214.41 72.6501C214.41 66.5601 210.28 62.1301 205.94 62.1301C203.29 62.1301 199.79 63.8801 199.79 69.5501C199.79 75.6901 203.92 80.0901 208.23 80.0901C210.88 80.0901 214.41 78.3401 214.41 72.6501Z" fill="#002F6C"/>
<path d="M84.5601 92.6C84.5521 92.1502 84.634 91.7034 84.8009 91.2857C84.9678 90.868 85.2164 90.4879 85.5321 90.1675C85.8478 89.8471 86.2243 89.593 86.6395 89.42C87.0547 89.2469 87.5003 89.1586 87.9501 89.16C88.4306 89.1378 88.9104 89.2152 89.3596 89.3873C89.8087 89.5594 90.2175 89.8224 90.5601 90.16L90.0401 90.72C89.7713 90.4315 89.4464 90.201 89.0852 90.0428C88.7241 89.8846 88.3344 89.8019 87.9401 89.8C87.5882 89.8036 87.2407 89.8781 86.9183 90.019C86.5958 90.1599 86.3051 90.3643 86.0633 90.62C85.8216 90.8758 85.6339 91.1776 85.5113 91.5074C85.3888 91.8373 85.334 92.1884 85.3501 92.54C85.334 92.8924 85.3887 93.2446 85.511 93.5755C85.6334 93.9065 85.8208 94.2096 86.0622 94.4669C86.3037 94.7242 86.5943 94.9305 86.9168 95.0736C87.2394 95.2167 87.5873 95.2936 87.9401 95.3C88.3502 95.2943 88.7545 95.2023 89.1266 95.03C89.4988 94.8577 89.8305 94.609 90.1001 94.3L90.5901 94.79C90.2561 95.1664 89.8445 95.466 89.3835 95.668C88.9226 95.87 88.4233 95.9696 87.9201 95.96C87.4781 95.9626 87.04 95.8775 86.6311 95.7096C86.2223 95.5417 85.8508 95.2943 85.5383 94.9818C85.2258 94.6692 84.9784 94.2978 84.8105 93.8889C84.6425 93.4801 84.5574 93.0419 84.5601 92.6Z" fill="#DC052D"/>
<path d="M91.6 90.99H92.33V92.28C92.4805 91.8719 92.7534 91.5202 93.1115 91.2732C93.4695 91.0262 93.8951 90.8958 94.33 90.9V91.69H94.27C93.9831 91.6874 93.6989 91.7465 93.4368 91.8635C93.1747 91.9804 92.9408 92.1524 92.7511 92.3678C92.5614 92.5831 92.4202 92.8368 92.3372 93.1115C92.2542 93.3862 92.2313 93.6756 92.27 93.96V95.96H91.54L91.6 90.99Z" fill="#DC052D"/>
<path d="M97.24 95.4004C97.5356 95.4063 97.8289 95.3465 98.0986 95.2255C98.3684 95.1044 98.6079 94.9251 98.8 94.7004L99.26 95.1104C99.018 95.4058 98.7125 95.6428 98.3662 95.8038C98.02 95.9648 97.6419 96.0457 97.26 96.0404C96.6129 95.9974 96.0055 95.7132 95.5579 95.2439C95.1102 94.7747 94.8548 94.1546 94.8423 93.5063C94.8297 92.8579 95.0609 92.2283 95.49 91.7421C95.9192 91.2559 96.5151 90.9484 97.16 90.8804C97.488 90.8867 97.8111 90.9614 98.1086 91.0995C98.4061 91.2377 98.6716 91.4364 98.888 91.683C99.1044 91.9295 99.2671 92.2185 99.3656 92.5314C99.4641 92.8443 99.4962 93.1743 99.46 93.5004C99.46 93.5704 99.46 93.6404 99.46 93.7604H95.55C95.5703 94.1974 95.7564 94.6103 96.0704 94.9149C96.3843 95.2196 96.8026 95.3932 97.24 95.4004ZM98.69 93.1604C98.6981 92.7314 98.5368 92.3166 98.241 92.0058C97.9452 91.6951 97.5388 91.5134 97.11 91.5004C96.6835 91.5254 96.2821 91.7101 95.9856 92.0177C95.6891 92.3253 95.5193 92.7332 95.51 93.1604H98.69Z" fill="#DC052D"/>
<path d="M100.23 93.4799C100.227 92.9551 100.385 92.4419 100.682 92.0094C100.98 91.5769 101.402 91.2458 101.893 91.0607C102.385 90.8755 102.921 90.8452 103.43 90.9738C103.938 91.1024 104.396 91.3837 104.74 91.7799L104.25 92.2999C104.069 92.0738 103.841 91.8896 103.582 91.7601C103.323 91.6306 103.039 91.5589 102.75 91.5499C102.508 91.5576 102.27 91.6133 102.049 91.7138C101.829 91.8143 101.631 91.9575 101.466 92.1351C101.301 92.3128 101.174 92.5214 101.09 92.7488C101.007 92.9762 100.969 93.2179 100.98 93.4599C100.969 93.7091 101.009 93.9578 101.097 94.191C101.185 94.4243 101.32 94.6371 101.493 94.8167C101.666 94.9962 101.874 95.1388 102.104 95.2356C102.334 95.3324 102.581 95.3815 102.83 95.3799C103.119 95.3716 103.403 95.3022 103.663 95.1764C103.923 95.0506 104.154 94.8712 104.34 94.6499L104.8 95.0799C104.567 95.3904 104.265 95.6424 103.918 95.816C103.571 95.9896 103.188 96.0799 102.8 96.0799C102.458 96.0855 102.119 96.0218 101.803 95.8927C101.487 95.7636 101.2 95.5718 100.96 95.3288C100.72 95.0859 100.531 94.7968 100.406 94.4791C100.28 94.1613 100.22 93.8214 100.23 93.4799Z" fill="#DC052D"/>
<path d="M107.83 95.4002C108.126 95.4061 108.419 95.3463 108.689 95.2253C108.958 95.1043 109.198 94.9249 109.39 94.7002L109.83 95.1602C109.588 95.4556 109.283 95.6926 108.936 95.8536C108.59 96.0146 108.212 96.0955 107.83 96.0902C107.183 96.0457 106.577 95.7602 106.13 95.2901C105.684 94.8201 105.43 94.1997 105.418 93.5515C105.407 92.9032 105.639 92.2743 106.069 91.789C106.499 91.3037 107.095 90.9972 107.74 90.9302C108.068 90.9365 108.391 91.0112 108.689 91.1494C108.986 91.2876 109.252 91.4863 109.468 91.7328C109.685 91.9793 109.847 92.2683 109.946 92.5812C110.044 92.8941 110.076 93.2241 110.04 93.5502C110.04 93.6202 110.04 93.6902 110.04 93.8102H106.13C106.16 94.2409 106.353 94.6442 106.668 94.9391C106.983 95.234 107.398 95.3987 107.83 95.4002ZM109.28 93.1602C109.288 92.7312 109.127 92.3164 108.831 92.0056C108.535 91.6949 108.129 91.5133 107.7 91.5002C107.274 91.5252 106.872 91.7099 106.576 92.0175C106.279 92.3251 106.109 92.7331 106.1 93.1602H109.28Z" fill="#DC052D"/>
<path d="M114.06 94.6202V91.6202H113.37V90.9702H114.06V89.4702H114.83V90.9702H116.4V91.6202H114.83V94.5002C114.815 94.6123 114.826 94.7265 114.863 94.8336C114.899 94.9407 114.96 95.0378 115.04 95.1173C115.121 95.1969 115.219 95.2566 115.326 95.2918C115.434 95.327 115.548 95.3367 115.66 95.3202C115.911 95.325 116.158 95.2665 116.38 95.1502V95.7802C116.106 95.9257 115.8 95.998 115.49 95.9902C115.301 96.0189 115.108 96.0037 114.925 95.9459C114.743 95.8882 114.576 95.7893 114.438 95.6569C114.3 95.5246 114.194 95.3623 114.129 95.1825C114.063 95.0028 114.04 94.8104 114.06 94.6202Z" fill="#DC052D"/>
<path d="M117.39 94.0502V90.9902H118.13V93.8702C118.103 94.061 118.119 94.2554 118.176 94.4394C118.233 94.6234 118.33 94.7926 118.46 94.9349C118.59 95.0772 118.749 95.189 118.928 95.2626C119.106 95.3361 119.298 95.3694 119.49 95.3602C119.691 95.3634 119.891 95.3249 120.077 95.2472C120.262 95.1695 120.43 95.0542 120.569 94.9087C120.708 94.7631 120.815 94.5904 120.884 94.4014C120.953 94.2124 120.983 94.0111 120.97 93.8102V90.9902H121.7V95.9302H120.97V95.0702C120.808 95.3765 120.564 95.6319 120.266 95.8084C119.968 95.9849 119.627 96.0755 119.28 96.0702C119.017 96.0855 118.753 96.0425 118.508 95.9445C118.263 95.8465 118.042 95.6958 117.862 95.503C117.681 95.3103 117.546 95.0802 117.464 94.8291C117.383 94.5781 117.357 94.3122 117.39 94.0502Z" fill="#DC052D"/>
<path d="M126.1 94.6202V91.6202H125.41V90.9702H126.1V89.4702H126.83V90.9702H128.4V91.6202H126.83V94.5002C126.815 94.6123 126.826 94.7265 126.863 94.8336C126.899 94.9407 126.96 95.0378 127.041 95.1173C127.121 95.1969 127.219 95.2566 127.326 95.2918C127.434 95.327 127.548 95.3367 127.66 95.3202C127.911 95.325 128.158 95.2665 128.38 95.1502V95.7802C128.107 95.9257 127.8 95.998 127.49 95.9902C127.304 96.0122 127.115 95.9921 126.938 95.9313C126.761 95.8705 126.6 95.7707 126.466 95.6391C126.333 95.5076 126.23 95.3477 126.167 95.1713C126.104 94.995 126.081 94.8066 126.1 94.6202Z" fill="#DC052D"/>
<path d="M129.13 94.4899C129.13 93.4299 129.99 92.8799 131.25 92.8799C131.761 92.8723 132.27 92.9432 132.76 93.0899V92.9399C132.76 92.0599 132.22 91.5999 131.29 91.5999C130.77 91.6021 130.257 91.7217 129.79 91.9499L129.57 91.3499C130.129 91.0713 130.746 90.9275 131.37 90.9299C131.954 90.8921 132.529 91.0862 132.97 91.4699C133.148 91.6673 133.284 91.898 133.372 92.1486C133.46 92.3993 133.496 92.6649 133.48 92.9299V95.9299H132.76V95.1599C132.55 95.4297 132.28 95.6463 131.97 95.7923C131.661 95.9382 131.322 96.0093 130.98 95.9999C130.759 96.0262 130.535 96.0077 130.321 95.9454C130.107 95.8832 129.907 95.7784 129.735 95.6375C129.562 95.4966 129.42 95.3224 129.316 95.1252C129.212 94.9281 129.149 94.712 129.13 94.4899ZM132.77 94.1099V93.6499C132.299 93.5141 131.811 93.4435 131.32 93.4399C130.41 93.4399 129.88 93.8399 129.88 94.4399C129.88 95.0699 130.45 95.4399 131.12 95.4399C131.508 95.4854 131.898 95.3768 132.207 95.1374C132.515 94.898 132.718 94.547 132.77 94.1599V94.1099Z" fill="#DC052D"/>
<path d="M134.92 88.9502H135.65V95.9502H134.92V88.9502Z" fill="#DC052D"/>
<path d="M139.35 95.4004C139.646 95.4063 139.939 95.3465 140.209 95.2255C140.478 95.1044 140.718 94.9251 140.91 94.7004L141.37 95.1104C141.128 95.4058 140.823 95.6428 140.476 95.8038C140.13 95.9648 139.752 96.0457 139.37 96.0404C138.723 95.9958 138.117 95.7104 137.67 95.2403C137.224 94.7703 136.97 94.1499 136.958 93.5016C136.947 92.8534 137.179 92.2245 137.609 91.7392C138.039 91.2539 138.635 90.9474 139.28 90.8804C139.608 90.8867 139.931 90.9614 140.229 91.0995C140.526 91.2377 140.792 91.4364 141.008 91.683C141.225 91.9295 141.387 92.2185 141.486 92.5314C141.584 92.8443 141.616 93.1743 141.58 93.5004C141.58 93.5704 141.58 93.6404 141.58 93.7604H137.66C137.683 94.1966 137.87 94.6081 138.183 94.9123C138.497 95.2165 138.913 95.3909 139.35 95.4004ZM140.83 93.1604C140.841 92.7324 140.682 92.3175 140.388 92.0065C140.093 91.6954 139.688 91.5134 139.26 91.5004C138.826 91.5178 138.415 91.6986 138.109 92.0064C137.803 92.3143 137.625 92.7265 137.61 93.1604H140.83Z" fill="#DC052D"/>
<path d="M142.64 90.9899H143.37V91.8499C143.531 91.543 143.775 91.2869 144.073 91.1103C144.372 90.9337 144.713 90.8435 145.06 90.8499C145.322 90.8354 145.584 90.878 145.828 90.9748C146.072 91.0716 146.292 91.2203 146.473 91.4105C146.653 91.6008 146.791 91.8281 146.875 92.0766C146.959 92.3252 146.988 92.589 146.96 92.8499V95.9199H146.22V93.0399C146.246 92.8468 146.228 92.6505 146.169 92.465C146.109 92.2795 146.01 92.1094 145.877 91.967C145.744 91.8246 145.581 91.7133 145.4 91.6412C145.219 91.5691 145.025 91.5379 144.83 91.5499C144.628 91.5453 144.428 91.5828 144.242 91.6599C144.055 91.7371 143.887 91.8523 143.748 91.9982C143.609 92.1441 143.501 92.3174 143.433 92.5071C143.364 92.6968 143.336 92.8987 143.35 93.0999V95.9299H142.62L142.64 90.9899Z" fill="#DC052D"/>
<path d="M148.59 94.6202V91.6202H147.9V90.9702H148.59V89.4702H149.33V90.9702H150.89V91.6202H149.33V94.5002C149.315 94.6123 149.326 94.7265 149.363 94.8336C149.399 94.9407 149.46 95.0378 149.541 95.1173C149.621 95.1969 149.719 95.2566 149.826 95.2918C149.934 95.327 150.048 95.3367 150.16 95.3202C150.393 95.3223 150.623 95.2673 150.83 95.1602V95.7902C150.56 95.9366 150.257 96.009 149.95 96.0002C149.766 96.0158 149.58 95.9906 149.407 95.9265C149.234 95.8624 149.076 95.7608 148.947 95.6291C148.817 95.4974 148.718 95.3387 148.656 95.1644C148.594 94.99 148.572 94.8042 148.59 94.6202Z" fill="#DC052D"/>
<path d="M151.55 93.48C151.591 92.8248 151.88 92.2098 152.358 91.7603C152.837 91.3108 153.469 91.0605 154.125 91.0605C154.782 91.0605 155.413 91.3108 155.892 91.7603C156.37 92.2098 156.659 92.8248 156.7 93.48C156.659 94.1352 156.37 94.7502 155.892 95.1997C155.413 95.6492 154.782 95.8995 154.125 95.8995C153.469 95.8995 152.837 95.6492 152.358 95.1997C151.88 94.7502 151.591 94.1352 151.55 93.48ZM155.95 93.48C155.958 93.2319 155.917 92.9848 155.828 92.7529C155.74 92.521 155.606 92.3091 155.434 92.1294C155.263 91.9498 155.058 91.806 154.831 91.7066C154.603 91.6071 154.358 91.5539 154.11 91.55C153.865 91.5524 153.623 91.6043 153.398 91.7025C153.174 91.8007 152.971 91.9433 152.803 92.1217C152.635 92.3001 152.505 92.5105 152.42 92.7405C152.335 92.9705 152.298 93.2152 152.31 93.46C152.301 93.7063 152.341 93.9519 152.428 94.1825C152.514 94.4132 152.647 94.6241 152.816 94.8029C152.986 94.9818 153.189 95.125 153.415 95.2241C153.64 95.3232 153.884 95.3762 154.13 95.38C154.376 95.3788 154.618 95.3283 154.844 95.2314C155.069 95.1345 155.273 94.9932 155.443 94.8159C155.613 94.6386 155.745 94.429 155.832 94.1995C155.919 93.97 155.959 93.7253 155.95 93.48Z" fill="#DC052D"/>
<path d="M157.27 96.7602C157.75 96.5902 157.95 96.3402 157.91 95.9302H157.56V94.9302H158.44V95.7902C158.459 95.9463 158.447 96.1047 158.404 96.256C158.361 96.4072 158.287 96.5482 158.188 96.6705C158.09 96.7928 157.967 96.8939 157.828 96.9677C157.689 97.0415 157.537 97.0866 157.38 97.1002L157.27 96.7602Z" fill="#DC052D"/>
<path d="M162.17 93.4799C162.167 92.9551 162.325 92.4419 162.622 92.0094C162.92 91.5769 163.342 91.2458 163.833 91.0607C164.325 90.8755 164.861 90.8452 165.37 90.9738C165.878 91.1024 166.336 91.3837 166.68 91.7799L166.19 92.2999C166.009 92.0738 165.781 91.8896 165.522 91.7601C165.263 91.6306 164.979 91.5589 164.69 91.5499C164.448 91.5576 164.211 91.6134 163.991 91.7139C163.771 91.8145 163.573 91.9579 163.409 92.1357C163.245 92.3135 163.119 92.5222 163.036 92.7496C162.954 92.977 162.918 93.2184 162.93 93.4599C162.919 93.7057 162.958 93.9511 163.044 94.1817C163.129 94.4123 163.261 94.6233 163.429 94.8023C163.598 94.9813 163.801 95.1247 164.026 95.2239C164.251 95.3231 164.494 95.3762 164.74 95.3799C165.03 95.3748 165.315 95.3069 165.575 95.1809C165.836 95.0548 166.066 94.8737 166.25 94.6499L166.72 95.0799C166.39 95.4965 165.939 95.7999 165.429 95.9476C164.919 96.0952 164.375 96.0799 163.874 95.9037C163.373 95.7275 162.939 95.3992 162.634 94.9647C162.328 94.5302 162.166 94.0111 162.17 93.4799Z" fill="#DC052D"/>
<path d="M167.74 90.9901H168.48V92.2801C168.629 91.8711 168.902 91.5187 169.26 91.2714C169.618 91.0242 170.045 90.8944 170.48 90.9001V91.6901C170.193 91.6875 169.909 91.7466 169.647 91.8636C169.385 91.9805 169.151 92.1525 168.961 92.3678C168.771 92.5832 168.63 92.8369 168.547 93.1116C168.464 93.3863 168.441 93.6757 168.48 93.9601V95.9601H167.74V90.9901Z" fill="#DC052D"/>
<path d="M173.39 95.4004C173.686 95.4063 173.979 95.3465 174.249 95.2255C174.518 95.1044 174.758 94.9251 174.95 94.7004L175.41 95.1104C175.168 95.4058 174.863 95.6428 174.516 95.8038C174.17 95.9648 173.792 96.0457 173.41 96.0404C172.763 95.9974 172.156 95.7132 171.708 95.2439C171.26 94.7747 171.005 94.1546 170.992 93.5063C170.98 92.8579 171.211 92.2283 171.64 91.7421C172.069 91.2559 172.665 90.9484 173.31 90.8804C173.639 90.8853 173.963 90.959 174.262 91.0966C174.561 91.2341 174.827 91.4327 175.045 91.6793C175.262 91.926 175.426 92.2155 175.525 92.5291C175.624 92.8426 175.656 93.1735 175.62 93.5004C175.62 93.5704 175.62 93.6404 175.62 93.7604H171.7C171.723 94.1966 171.91 94.6081 172.223 94.9123C172.537 95.2165 172.953 95.3909 173.39 95.4004ZM174.83 93.1604C174.841 92.7324 174.682 92.3175 174.388 92.0065C174.093 91.6954 173.688 91.5134 173.26 91.5004C172.833 91.5275 172.432 91.7125 172.135 92.0194C171.837 92.3263 171.664 92.7331 171.65 93.1604H174.83Z" fill="#DC052D"/>
<path d="M176.37 93.4799C176.367 92.9551 176.525 92.4419 176.822 92.0094C177.12 91.5769 177.543 91.2458 178.034 91.0607C178.525 90.8755 179.061 90.8452 179.57 90.9738C180.079 91.1024 180.536 91.3837 180.88 91.7799L180.39 92.2999C180.209 92.0738 179.982 91.8896 179.723 91.7601C179.464 91.6306 179.18 91.5589 178.89 91.5499C178.649 91.5576 178.411 91.6134 178.191 91.7139C177.971 91.8145 177.773 91.9579 177.61 92.1357C177.446 92.3135 177.319 92.5222 177.237 92.7496C177.154 92.977 177.118 93.2184 177.13 93.4599C177.119 93.7057 177.158 93.9511 177.244 94.1817C177.33 94.4123 177.461 94.6233 177.63 94.8023C177.798 94.9813 178.001 95.1247 178.226 95.2239C178.451 95.3231 178.694 95.3762 178.94 95.3799C179.23 95.3748 179.515 95.3069 179.775 95.1809C180.036 95.0548 180.266 94.8737 180.45 94.6499L180.92 95.0799C180.591 95.4965 180.139 95.7999 179.629 95.9476C179.119 96.0952 178.575 96.0799 178.074 95.9037C177.573 95.7275 177.14 95.3992 176.834 94.9647C176.529 94.5302 176.366 94.0111 176.37 93.4799Z" fill="#DC052D"/>
<path d="M183.98 95.4004C184.275 95.4022 184.567 95.3406 184.836 95.2199C185.105 95.0991 185.345 94.9219 185.54 94.7004L185.99 95.1104C185.749 95.4074 185.444 95.6457 185.098 95.8068C184.751 95.968 184.372 96.0479 183.99 96.0404C183.343 95.9974 182.736 95.7132 182.288 95.2439C181.84 94.7747 181.585 94.1546 181.572 93.5063C181.56 92.8579 181.791 92.2283 182.22 91.7421C182.649 91.2559 183.245 90.9484 183.89 90.8804C184.219 90.8853 184.543 90.959 184.842 91.0966C185.14 91.2341 185.407 91.4327 185.625 91.6793C185.842 91.926 186.006 92.2155 186.105 92.5291C186.204 92.8426 186.236 93.1735 186.2 93.5004C186.2 93.5704 186.2 93.6404 186.2 93.7604H182.28C182.3 94.1991 182.488 94.6134 182.804 94.9183C183.12 95.2233 183.541 95.3957 183.98 95.4004ZM185.42 93.1604C185.425 92.9468 185.388 92.7343 185.311 92.535C185.234 92.3358 185.118 92.1538 184.97 91.9995C184.823 91.8452 184.646 91.7217 184.45 91.636C184.254 91.5504 184.044 91.5043 183.83 91.5004C183.405 91.5278 183.006 91.7136 182.712 92.0209C182.418 92.3283 182.249 92.7349 182.24 93.1604H185.42Z" fill="#DC052D"/>
<path d="M192.12 95.4004C192.416 95.4063 192.709 95.3465 192.979 95.2255C193.249 95.1044 193.488 94.9251 193.68 94.7004L194.14 95.1104C193.898 95.4058 193.593 95.6428 193.246 95.8038C192.9 95.9648 192.522 96.0457 192.14 96.0404C191.493 95.9958 190.887 95.7104 190.44 95.2403C189.994 94.7703 189.74 94.1499 189.728 93.5016C189.717 92.8534 189.949 92.2245 190.379 91.7392C190.809 91.2539 191.405 90.9474 192.05 90.8804C192.378 90.8867 192.701 90.9614 192.999 91.0995C193.296 91.2377 193.562 91.4364 193.778 91.683C193.995 91.9295 194.157 92.2185 194.256 92.5314C194.354 92.8443 194.386 93.1743 194.35 93.5004C194.35 93.5704 194.35 93.6404 194.35 93.7604H190.43C190.453 94.1966 190.64 94.6081 190.953 94.9123C191.267 95.2165 191.683 95.3909 192.12 95.4004ZM193.56 93.1604C193.571 92.7324 193.412 92.3175 193.118 92.0065C192.823 91.6954 192.418 91.5134 191.99 91.5004C191.564 91.5275 191.162 91.7125 190.865 92.0194C190.567 92.3263 190.394 92.7331 190.38 93.1604H193.56Z" fill="#DC052D"/>
<path d="M195.47 88.9502H196.21V95.9502H195.47V88.9502Z" fill="#DC052D"/>
<path d="M200.41 90.9901H201.14V91.9901C201.334 91.6599 201.61 91.3852 201.941 91.1926C202.272 90.9999 202.647 90.8957 203.03 90.8901C203.355 90.8963 203.676 90.9682 203.973 91.1015C204.27 91.2349 204.536 91.427 204.757 91.6662C204.977 91.9054 205.147 92.1868 205.256 92.4934C205.365 92.8 205.41 93.1254 205.39 93.4501C205.412 93.7756 205.367 94.1022 205.259 94.41C205.151 94.7177 204.981 95.0003 204.761 95.2406C204.54 95.4809 204.273 95.6739 203.975 95.8079C203.678 95.9419 203.356 96.0141 203.03 96.0201C202.652 96.0188 202.281 95.9219 201.95 95.7383C201.62 95.5547 201.341 95.2904 201.14 94.9701V97.4401H200.41V90.9901ZM204.64 93.4701C204.658 93.229 204.626 92.9868 204.547 92.7583C204.468 92.5298 204.344 92.3198 204.181 92.1411C204.018 91.9623 203.82 91.8186 203.6 91.7188C203.38 91.6189 203.142 91.5649 202.9 91.5601C202.658 91.5666 202.419 91.621 202.197 91.7201C201.976 91.8192 201.776 91.9612 201.61 92.1377C201.444 92.3143 201.314 92.5221 201.228 92.749C201.142 92.976 201.102 93.2177 201.11 93.4601C201.101 93.7034 201.14 93.9462 201.225 94.1743C201.31 94.4024 201.44 94.6113 201.606 94.789C201.773 94.9667 201.973 95.1095 202.195 95.2093C202.417 95.309 202.657 95.3637 202.9 95.3701C203.143 95.3712 203.383 95.3214 203.605 95.2242C203.827 95.1269 204.027 94.9842 204.191 94.8053C204.355 94.6264 204.479 94.4152 204.557 94.1852C204.634 93.9553 204.662 93.7117 204.64 93.4701Z" fill="#DC052D"/>
<path d="M206.19 94.4902C206.19 93.4302 207.05 92.8802 208.3 92.8802C208.811 92.8726 209.321 92.9434 209.81 93.0902V92.9402C209.81 92.0602 209.27 91.6002 208.35 91.6002C207.83 91.5999 207.317 91.7196 206.85 91.9502L206.63 91.3502C207.186 91.0731 207.799 90.9293 208.42 90.9302C209.004 90.8913 209.579 91.0855 210.02 91.4702C210.198 91.6675 210.334 91.8982 210.422 92.1489C210.51 92.3996 210.546 92.6652 210.53 92.9302V95.9302H209.83V95.1602C209.62 95.43 209.35 95.6466 209.04 95.7925C208.731 95.9384 208.392 96.0096 208.05 96.0002C207.828 96.0294 207.602 96.013 207.386 95.9519C207.171 95.8909 206.969 95.7866 206.795 95.6452C206.621 95.5039 206.478 95.3286 206.374 95.13C206.27 94.9314 206.207 94.7137 206.19 94.4902ZM209.83 94.1602V93.7002C209.362 93.5643 208.878 93.4936 208.39 93.4902C207.47 93.4902 206.94 93.8902 206.94 94.4902C206.94 95.1202 207.52 95.4902 208.18 95.4902C208.376 95.5124 208.574 95.4955 208.764 95.4404C208.953 95.3854 209.129 95.2934 209.283 95.1697C209.436 95.046 209.564 94.8931 209.658 94.7198C209.752 94.5465 209.81 94.3563 209.83 94.1602Z" fill="#DC052D"/>
<path d="M211.97 90.9901H212.7V95.9301H211.97V90.9901ZM212.97 88.8501L213.74 89.2101L212.66 90.2101H212.07L212.97 88.8501Z" fill="#DC052D"/>
<path d="M213.83 95.3001L214.21 94.7701C214.697 95.1603 215.297 95.3814 215.92 95.4001C216.51 95.4001 216.92 95.0901 216.92 94.6201C216.92 94.1201 216.34 93.9301 215.69 93.7501C215.04 93.5701 214.05 93.2601 214.05 92.3501C214.059 92.1442 214.111 91.9424 214.203 91.7576C214.294 91.5728 214.423 91.409 214.581 91.2764C214.739 91.1439 214.922 91.0456 215.12 90.9877C215.318 90.9298 215.526 90.9136 215.73 90.9401C216.362 90.9517 216.978 91.1386 217.51 91.4801L217.18 92.0401C216.745 91.7448 216.236 91.5784 215.71 91.5601C215.13 91.5601 214.76 91.8701 214.76 92.2801C214.76 92.7401 215.37 92.9301 216.03 93.1301C216.69 93.3301 217.62 93.6501 217.62 94.5401C217.62 95.4801 216.84 96.0201 215.86 96.0201C215.124 96.0015 214.413 95.7493 213.83 95.3001Z" fill="#DC052D"/>
<path d="M50.9502 15.1602C53.6102 21.8702 55.7702 24.0302 62.4802 26.7002C55.7702 29.3602 53.6102 31.5202 50.9502 38.2302C48.2802 31.5202 46.1202 29.3602 39.4102 26.7002C46.1202 24.0302 48.2802 21.8702 50.9502 15.1602Z" fill="#002F6C"/>
<path d="M70.8301 8C72.8901 13.2 74.5701 14.88 79.7701 16.94C74.5701 19.01 72.8901 20.69 70.8301 25.94C68.7601 20.74 67.0801 19.06 61.8301 16.99C67.1101 14.88 68.8301 13.16 70.8301 8Z" fill="#DC052D"/>
<path d="M39.3501 45.3404L35.5101 43.7803L30.3801 45.8604L39.3501 49.4904L72.7101 36.0103L62.4401 31.8604L57.3101 33.9403L62.4501 36.0103L39.3501 45.3404Z" fill="#98B4D4"/>
<path d="M39.32 101.34C34.8063 101.343 30.3487 100.341 26.2702 98.4071C22.1918 96.4734 18.5948 93.6563 15.74 90.1602L11.74 91.7702C14.9625 96.0386 19.1315 99.5011 23.9189 101.885C28.7064 104.27 33.9817 105.51 39.33 105.51C44.6783 105.51 49.9536 104.27 54.7411 101.885C59.5285 99.5011 63.6974 96.0386 66.92 91.7702L62.92 90.1602C60.0626 93.6584 56.4623 96.4767 52.3802 98.4104C48.2982 100.344 43.8369 101.345 39.32 101.34Z" fill="#98B4D4"/>
<path d="M27.12 50.7701V54.9101L37.33 59.0001V75.0601V90.9801C31.09 90.3901 27.39 87.0501 23.5 83.5201C19.83 80.1601 15.94 76.3201 9.99 75.7901V47.9801L19.91 51.9801V58.8001L16.04 68.6601L19.74 70.1601L21.91 64.5501L24.09 70.1601L27.83 68.6701L24 58.9201V45.3401L38.24 39.5601C38.5891 39.717 38.9673 39.7988 39.35 39.8001C39.852 39.8067 40.3464 39.6763 40.7798 39.4228C41.2132 39.1694 41.5693 38.8025 41.8096 38.3617C42.05 37.9209 42.1656 37.4228 42.1439 36.9212C42.1222 36.4196 41.9641 35.9334 41.6866 35.515C41.4091 35.0965 41.0228 34.7617 40.5691 34.5466C40.1155 34.3314 39.6117 34.2441 39.1121 34.294C38.6125 34.3439 38.136 34.5292 37.7339 34.8298C37.3317 35.1304 37.0192 35.535 36.83 36.0001L26.52 40.1601L16.26 36.0101L39.35 26.6801L34.22 24.6001L6 36.0101L21.39 42.2301L19.91 42.8301V47.8301L6.01 42.2101V79.5501C6.33 79.5501 6.8 79.5501 7.25 79.5501C7.97 79.5501 9.37 79.6701 9.69 79.7001C14.29 80.1601 17.36 83.3001 20.83 86.4601C25.27 90.4601 30.3 95.0401 39.3 95.0401C48.3 95.0401 53.3 90.4801 57.77 86.4601C61.23 83.3401 64.26 80.2401 68.77 79.7601C69.23 79.7601 71.77 79.5401 72.66 79.5401V42.2201L39.41 55.7101L27.12 50.7701ZM41.31 75.0301V59.0301L68.66 48.0301V75.7901C62.66 76.3101 58.85 80.1401 55.11 83.5201C51.22 87.0501 47.52 90.3901 41.28 90.9801L41.31 75.0301Z" fill="#98B4D4"/>
</svg>
