<svg width="281" height="99" viewBox="0 0 281 99" fill="none" xmlns="http://www.w3.org/2000/svg">
<path d="M41.2423 71.169C50.5923 72.519 56.5023 69.419 63.2223 63.469C63.3956 63.309 63.5656 63.3124 63.7323 63.479L73.0323 72.889C73.1053 72.9654 73.1469 73.0664 73.1488 73.1721C73.1506 73.2777 73.1126 73.3802 73.0423 73.459C65.8689 81.419 56.7189 85.4857 45.5923 85.659C21.4823 86.049 4.42226 66.239 8.64226 42.319C10.9123 29.449 20.7723 18.529 33.1923 14.849C40.4523 12.7024 48.0323 12.5157 55.9323 14.289C61.8989 15.629 67.4189 18.669 72.4923 23.409C72.8189 23.7157 72.8356 24.0357 72.5423 24.369L63.4223 34.839C63.1223 35.179 62.8056 35.199 62.4723 34.899C57.1823 30.239 51.9823 27.279 44.7623 27.339C29.1423 27.459 21.2623 42.979 25.5123 56.809C27.6623 63.819 33.7823 70.089 41.2423 71.169Z" fill="#004E98"/>
<path d="M168.772 58.4288C171.132 64.7888 177.542 70.4788 184.612 71.2888C193.672 72.3188 199.382 69.2688 205.722 63.5688C206.009 63.3088 206.292 63.3155 206.572 63.5888L215.682 72.7288C215.798 72.841 215.865 72.9946 215.868 73.157C215.872 73.3194 215.812 73.4778 215.702 73.5988C209.555 80.3055 201.992 84.2122 193.012 85.3188C185.672 86.2255 179.029 85.4655 173.082 83.0388C149.262 73.3088 143.302 42.3288 160.822 24.1088C174.952 9.40884 200.682 9.39883 215.202 23.4788C215.495 23.7588 215.509 24.0522 215.242 24.3588L206.152 34.8088C205.859 35.1422 205.545 35.1588 205.212 34.8588C198.962 29.1188 191.952 26.1788 183.212 27.7888C179.122 28.5488 175.382 30.5688 172.782 33.6888C166.709 40.9955 165.372 49.2422 168.772 58.4288Z" fill="#004E98"/>
<path d="M273.322 68.1889C271.882 75.6622 267.359 80.7555 259.752 83.4689C246.422 88.2289 229.012 84.3189 218.382 74.6789C218.082 74.3989 218.062 74.1022 218.322 73.7889L226.672 63.8289C226.784 63.6958 226.943 63.611 227.115 63.5923C227.286 63.5737 227.458 63.6226 227.592 63.7289C234.912 69.4889 243.092 73.3089 252.642 71.3489C256.492 70.5489 259.502 67.8589 258.332 63.5289C257.392 60.0889 252.632 58.4589 249.432 57.5689C238.522 54.5189 223.402 52.4289 220.992 39.0189C218.452 24.8389 227.932 14.6189 241.652 13.4389C252.512 12.5122 262.386 15.3189 271.272 21.8589C271.539 22.0522 271.579 22.2822 271.392 22.5489L263.932 33.1389C263.873 33.2243 263.798 33.2972 263.711 33.3535C263.623 33.4098 263.526 33.4483 263.424 33.4669C263.321 33.4855 263.217 33.4837 263.115 33.4618C263.014 33.4398 262.918 33.398 262.832 33.3389C256.492 28.8989 247.262 24.9489 239.682 27.8789C238.109 28.4855 237.062 29.4455 236.542 30.7589C234.752 35.2989 237.812 38.6389 242.132 39.8389C256.522 43.8189 277.382 47.0889 273.322 68.1889Z" fill="#B30627"/>
<path d="M95.2521 40.6889L95.2721 84.0789C95.2721 84.1638 95.2384 84.2452 95.1784 84.3052C95.1184 84.3652 95.037 84.3989 94.9521 84.3989H80.2621C80.1772 84.3989 80.0959 84.3652 80.0358 84.3052C79.9758 84.2452 79.9421 84.1638 79.9421 84.0789L79.9221 14.4789C79.9221 14.3941 79.9558 14.3127 80.0158 14.2527C80.0759 14.1927 80.1572 14.1589 80.2421 14.1589L94.0921 14.1989C94.1418 14.1974 94.1912 14.2074 94.2363 14.2282C94.2814 14.2491 94.3211 14.2801 94.3521 14.3189L126.982 56.9289C127.023 56.9802 127.079 57.0176 127.141 57.0362C127.204 57.0548 127.271 57.0537 127.333 57.0329C127.396 57.0122 127.45 56.9729 127.489 56.9203C127.528 56.8678 127.55 56.8044 127.552 56.7389L127.542 14.4989C127.542 14.4141 127.576 14.3327 127.636 14.2727C127.696 14.2126 127.777 14.1789 127.862 14.1789L142.542 14.1689C142.627 14.1689 142.708 14.2026 142.768 14.2627C142.828 14.3227 142.862 14.4041 142.862 14.4889V84.0789C142.862 84.1638 142.828 84.2452 142.768 84.3052C142.708 84.3652 142.627 84.3989 142.542 84.3989H129.752C129.702 84.4005 129.653 84.3905 129.608 84.3696C129.563 84.3488 129.523 84.3178 129.492 84.2789L95.8221 40.4989C95.7812 40.4477 95.7256 40.4103 95.6628 40.3917C95.6 40.3731 95.5329 40.3742 95.4708 40.3949C95.4086 40.4156 95.3543 40.455 95.3152 40.5075C95.2761 40.5601 95.2541 40.6234 95.2521 40.6889Z" fill="#004E98"/>
<path d="M196.222 46.9689L196.912 47.0389C197.319 47.0789 197.522 47.3022 197.522 47.7089V61.3289C197.522 61.7822 197.296 62.0089 196.842 62.0089L180.202 62.0389C179.576 62.0389 179.262 61.7256 179.262 61.0989L179.272 47.8689C179.272 47.4622 179.462 47.1889 179.842 47.0489C180.102 46.9556 180.369 46.9056 180.642 46.8989C181.056 46.8922 181.262 46.6822 181.262 46.2689C181.262 44.8889 181.152 43.4689 181.482 42.1189C183.332 34.4189 194.622 34.9789 195.482 43.2589C195.582 44.1856 195.579 45.1122 195.472 46.0389C195.412 46.5989 195.662 46.9089 196.222 46.9689ZM185.252 47.0289H191.672C191.813 47.0289 191.948 46.9731 192.047 46.8737C192.146 46.7743 192.202 46.6395 192.202 46.4989V44.2689C192.202 43.2611 191.825 42.2945 191.154 41.5819C190.482 40.8692 189.572 40.4689 188.622 40.4689H188.302C187.353 40.4689 186.442 40.8692 185.771 41.5819C185.099 42.2945 184.722 43.2611 184.722 44.2689V46.4989C184.722 46.6395 184.778 46.7743 184.877 46.8737C184.977 46.9731 185.112 47.0289 185.252 47.0289ZM190.132 54.3289C190.532 53.6356 190.442 52.9122 189.862 52.1589C189.711 51.9585 189.512 51.7981 189.284 51.6918C189.056 51.5855 188.804 51.5364 188.552 51.5489C187.452 51.5956 186.786 52.0356 186.552 52.8689C186.012 54.7289 187.822 55.2489 187.162 57.1889C186.982 57.7289 187.126 58.1656 187.592 58.4989C188.012 58.8056 188.522 58.8522 189.122 58.6389C189.442 58.5256 189.586 58.3022 189.552 57.9689C189.442 56.7289 189.472 55.4489 190.132 54.3289Z" fill="#B30627"/>
</svg>
