<svg width="1555" height="675" viewBox="0 0 1555 675" fill="none" xmlns="http://www.w3.org/2000/svg">
<path d="M688.021 223.11C688.021 223.757 688.224 223.83 688.63 223.33C702.24 206.31 723 196.38 744.5 194.41C773.58 191.743 798.624 199.837 819.63 218.69C843.19 239.82 854.74 273.25 855.49 304.09C855.604 308.797 855.604 313.333 855.49 317.7C854.72 347.21 843.971 379.39 822.331 400.67C802.697 419.97 778.814 429.183 750.681 428.31C726.701 427.57 703.64 417.88 688.51 399C688.184 398.593 688.021 398.65 688.021 399.17V424.87C688.021 424.939 687.994 425.005 687.947 425.054C687.9 425.103 687.837 425.13 687.771 425.13H615.521C615.454 425.13 615.391 425.103 615.344 425.054C615.297 425.005 615.271 424.939 615.271 424.87V126.81C615.271 126.27 615.541 126 616.081 126H687.21C687.75 126 688.021 126.27 688.021 126.81V223.11ZM781.71 308.11C781.71 280.1 761.01 256.15 731.72 257.96C712 259.17 697.45 271.63 690.76 289.79C687.53 298.56 687.021 308.45 687.681 317.98C689.151 338.95 702.39 357.46 723 362.85C729.72 364.61 736.334 364.84 742.84 363.54C766.9 358.73 780.82 338.06 781.72 314.17C781.76 312.86 781.351 311.66 781.541 310.37C781.654 309.617 781.71 308.863 781.71 308.11Z" fill="#003579"/>
<path d="M1139.97 398.47C1131.74 409.09 1121.1 416.97 1108.23 422.02C1098.11 425.98 1087.25 428.3 1076.47 428.13C1072.68 428.07 1068.79 428.25 1064.95 427.92C1028.56 424.75 999.3 402.02 984.65 368.86C974.66 346.26 971.45 321.65 973.53 296.75C975.96 267.58 987.1 238.54 1008.9 218.75C1028.35 201.09 1051.82 192.884 1079.29 194.13C1102.13 195.17 1125.08 205.23 1139.82 222.93C1140.29 223.49 1140.52 223.407 1140.52 222.68V126.72C1140.52 126.635 1140.54 126.55 1140.57 126.472C1140.6 126.393 1140.65 126.321 1140.71 126.261C1140.77 126.2 1140.84 126.152 1140.92 126.12C1141 126.087 1141.08 126.07 1141.17 126.07L1212.75 126.08C1213.1 126.08 1213.27 126.254 1213.27 126.6V424.37C1213.27 424.704 1213.1 424.87 1212.77 424.87H1140.77C1140.6 424.87 1140.52 424.787 1140.52 424.62V398.66C1140.52 398.067 1140.34 398.004 1139.97 398.47ZM1051.9 285.27C1049.13 291.137 1047.54 297.254 1047.14 303.62C1046.8 308.94 1046.86 314.2 1047.31 319.4C1047.95 326.84 1050.27 334.034 1054.27 340.98C1061.04 352.727 1070.88 360.107 1083.79 363.12C1102.06 367.38 1120.89 359.76 1131.25 344.42C1137.47 335.2 1140.75 324.3 1140.58 313.15C1140.54 310.41 1140.49 307.787 1140.42 305.28C1140.21 297.707 1138.14 290.24 1134.23 282.88C1126.76 268.847 1115.11 260.67 1099.27 258.35C1095.38 257.78 1090.46 257.91 1086.57 258.59C1070.55 261.377 1058.99 270.27 1051.9 285.27Z" fill="#003579"/>
<path d="M357.111 257.52C366.291 235.73 383.811 217.91 404.561 207.19C410.194 204.277 416.481 201.747 423.421 199.6C450.807 191.133 478.157 191.307 505.471 200.12C528.231 207.46 546.247 220.377 559.521 238.87C572.347 256.75 579.454 277.357 580.841 300.69C581.891 318.34 579.991 335.76 574.111 352.1C559.691 392.13 527.001 417 485.721 424.03C472.534 426.277 458.891 426.5 444.791 424.7C408.051 420 375.741 399.95 359.141 366.61C356.247 360.79 353.821 354.547 351.861 347.88C342.867 317.287 344.617 287.167 357.111 257.52ZM479.201 259.5C465.121 254.3 451.817 255.78 439.291 263.94C428.801 270.78 421.781 284.93 420.111 297.14C419.221 303.6 419.261 311.07 419.701 317.88C420.307 327.353 423.347 336.3 428.821 344.72C437.571 358.18 452.631 364.49 468.491 362.35C482.964 360.39 493.824 352.76 501.071 339.46C505.697 330.967 507.897 321.987 507.671 312.52C507.637 311.007 507.654 309.473 507.721 307.92C508.251 296.03 504.671 284.35 498.031 274.36C493.531 267.6 486.521 262.21 479.201 259.5Z" fill="#003579"/>
<path d="M241.85 398.3C241.857 397.82 241.704 397.763 241.39 398.13C226.097 416.417 206.39 426.437 182.27 428.19C140.19 431.24 102.63 407.9 86.0204 369.48C82.7004 361.8 79.8837 353.087 77.5704 343.34C76.5971 339.22 76.0971 335.243 76.0704 331.41C75.9837 318.977 75.9771 305.547 76.0504 291.12C76.0704 286.813 76.5571 282.597 77.5104 278.47C79.2971 270.763 81.6137 263.237 84.4604 255.89C89.8737 241.93 98.0137 229.857 108.88 219.67C126.66 203.01 148.15 194.403 173.35 193.85C198.91 193.3 225.12 202.84 241.16 223.38C241.567 223.9 241.77 223.83 241.77 223.17L241.76 197.37C241.76 197.301 241.788 197.235 241.837 197.186C241.885 197.137 241.951 197.11 242.02 197.11L314.24 197.15C314.323 197.15 314.401 197.182 314.46 197.238C314.518 197.294 314.55 197.371 314.55 197.45C314.477 277.81 314.49 358.337 314.59 439.03C314.604 447.763 314.334 454.367 313.78 458.84C311.8 474.88 305.72 489.44 297.21 503.16C282.73 526.5 259.79 540.98 233.25 547.12C229.637 547.953 225.637 548.39 221.25 548.43C201.11 548.597 185.11 548.55 173.25 548.29C169.657 548.217 165.64 547.567 161.2 546.34C147.84 542.673 135.64 537.417 124.6 530.57C99.6704 515.1 84.2804 488.61 82.3204 459.38C82.3176 459.347 82.3218 459.314 82.3326 459.282C82.3434 459.251 82.3606 459.222 82.3832 459.197C82.4058 459.173 82.4332 459.153 82.4637 459.14C82.4942 459.127 82.5271 459.12 82.5604 459.12H153.47C153.85 459.12 154.08 459.307 154.16 459.68C158.77 480.98 182.04 487.69 200.81 486.86C213.477 486.307 224.194 481.333 232.96 471.94C239.067 465.407 242.054 457.42 241.92 447.98C241.68 431.613 241.657 415.053 241.85 398.3ZM235.77 284.81C231.317 275.01 225.16 267.957 217.3 263.65C206.914 257.963 195.874 256.437 184.18 259.07C165.37 263.3 152.76 278.9 149.02 297.55C147.75 303.88 147.79 310.98 148.18 317.37C149.19 333.74 158.31 350.55 172.75 358.64C191.96 369.4 218.73 364.77 231.08 345.74C243.16 327.15 244.94 305 235.77 284.81Z" fill="#003579"/>
<path d="M1357.91 370.22L1378.49 426.82C1378.6 427.12 1378.5 427.284 1378.17 427.31C1374.7 427.597 1371.37 427.824 1368.19 427.99C1321.09 430.45 1273.71 407.64 1255.12 362.07C1241.2 327.93 1241.73 290.91 1256.59 257.25C1266.93 233.82 1286.54 215.14 1309.59 205.12C1342 191.03 1378.42 190.37 1411.65 202.92C1434.42 211.53 1453.44 227.46 1465.45 248.31C1470.88 257.737 1475.09 268.194 1478.08 279.68C1479.01 283.24 1479.48 286.704 1479.49 290.07C1479.54 304.184 1479.55 318.104 1479.5 331.83C1479.49 335.21 1479.04 338.614 1478.16 342.04C1469.71 374.83 1450.23 400.65 1419.34 415.77C1419.1 415.89 1418.93 415.82 1418.84 415.56L1397.16 356.04C1397.03 355.674 1397.15 355.464 1397.54 355.41C1408.14 353.937 1418.52 352.497 1428.69 351.09C1430.11 350.9 1431.95 350.38 1432.55 348.92C1433.28 347.134 1432.93 345.54 1431.48 344.14C1402.17 315.58 1372.69 286.884 1343.04 258.05C1340.44 255.52 1336.84 256.52 1336.47 260.24C1332.29 301.574 1328.14 342.627 1324.01 383.4C1323.96 383.845 1323.98 384.292 1324.06 384.73C1324.69 388.04 1327.49 388.68 1330.01 387.09C1339.1 381.384 1348.19 375.687 1357.28 370C1357.58 369.814 1357.79 369.887 1357.91 370.22Z" fill="#003579"/>
<path d="M1380.08 347.04C1380.02 347.048 1379.96 347.07 1379.91 347.103C1379.86 347.137 1379.82 347.18 1379.79 347.232C1379.76 347.284 1379.74 347.342 1379.73 347.402C1379.72 347.462 1379.73 347.523 1379.75 347.58L1406.42 420.47C1406.57 420.883 1406.43 421.147 1406.02 421.26L1392.71 425.04C1392.33 425.153 1392.07 425.023 1391.94 424.65L1365.69 352.9C1365.54 352.493 1365.29 352.407 1364.92 352.64C1357.65 357.26 1350.96 361.447 1344.85 365.2C1344.09 365.667 1343.25 365.947 1342.34 366.04C1339.84 366.29 1337.53 363.88 1337.76 361.62C1340.27 336.787 1342.77 311.953 1345.28 287.12C1345.68 283.17 1349.89 281.01 1352.9 283.96C1369.77 300.407 1387.39 317.56 1405.77 335.42C1408.82 338.39 1408.51 343.14 1403.69 343.81C1395.72 344.923 1387.85 346 1380.08 347.04Z" fill="#003579"/>
<path d="M865.141 393.38C863.701 378.01 869.701 364.83 882.701 356.32C891.911 350.29 902.171 348.64 913.021 349.52C928.081 350.73 941.941 360.14 947.681 374.07C950.121 379.983 950.991 386.493 950.291 393.6C948.371 413.01 931.431 426.72 912.121 428.07C897.021 429.13 883.531 424.76 873.671 413.5C868.711 407.847 865.867 401.14 865.141 393.38Z" fill="#003579"/>
<path d="M386.85 537.16C390.24 537.47 394.69 536.97 396.74 534.08C400.26 529.13 397.081 524.84 392.071 523.27C388.244 522.063 384.217 520.873 379.99 519.7C372.17 517.52 365.43 513.01 364.28 504.4C361.89 486.55 377.55 478.94 392.88 480.81C404.04 482.17 412.55 490.1 412.29 501.91C412.284 502.217 412.124 502.37 411.81 502.37H397.201C396.774 502.37 396.554 502.157 396.54 501.73C396.414 497.67 394.317 495.137 390.25 494.13C386.3 493.16 380.831 493.95 379.321 498.41C377.611 503.42 382.49 506.08 386.38 507.22C397.98 510.59 412.921 513.19 413.071 528.79C413.141 536.49 409.251 543.33 402.581 547.09C401.107 547.923 399.537 548.357 397.87 548.39C391.404 548.53 385.067 548.523 378.86 548.37C377.387 548.33 375.99 547.957 374.67 547.25C367.157 543.223 363.514 536.863 363.74 528.17C363.746 528.022 363.807 527.883 363.911 527.78C364.016 527.677 364.155 527.62 364.3 527.62H378.74C379.147 527.62 379.337 527.823 379.31 528.23C378.98 532.8 382.29 536.74 386.85 537.16Z" fill="#003579"/>
<path d="M661.231 483.06C670.484 486.534 676.834 493.417 680.281 503.71C680.296 503.757 680.301 503.806 680.294 503.855C680.287 503.903 680.269 503.949 680.24 503.989C680.212 504.029 680.175 504.062 680.131 504.085C680.088 504.108 680.04 504.12 679.991 504.12H663.971C663.564 504.12 663.271 503.94 663.091 503.58C659.637 496.62 653.874 493.47 645.801 494.13C637.294 494.83 631.684 499.194 628.971 507.22C626.451 514.66 627.571 525.02 633.021 530.88C637.394 535.567 643.111 537.524 650.171 536.75C656.217 536.09 660.511 532.957 663.051 527.35C663.191 527.03 663.437 526.87 663.791 526.87H679.581C679.67 526.871 679.757 526.892 679.837 526.933C679.916 526.974 679.985 527.032 680.037 527.104C680.09 527.176 680.124 527.259 680.139 527.347C680.153 527.435 680.147 527.525 680.121 527.61C677.201 536.704 671.571 543.18 663.231 547.04C661.291 547.94 659.187 548.404 656.921 548.43C650.007 548.504 643.594 548.48 637.681 548.36C635.401 548.314 633.137 547.664 630.891 546.41C620.277 540.504 614.301 531.544 612.961 519.53C609.891 491.92 635.891 473.55 661.231 483.06Z" fill="#003579"/>
<path d="M733.381 548.36C727.191 548.25 719.211 542.01 715.701 537.21C709.748 529.05 707.494 519.947 708.941 509.9C714.401 471.84 769.871 470.41 777.501 507.94C780.771 524.02 773.531 540.36 758.331 547.21C756.598 547.99 754.734 548.39 752.741 548.41C746.041 548.483 739.587 548.467 733.381 548.36ZM725.901 504.61C721.491 513.74 723.061 527 731.511 533.23C737.801 537.87 747.321 538.13 753.951 534.12C765.381 527.21 766.501 507.63 756.791 498.92C747.461 490.57 731.581 492.87 725.901 504.61Z" fill="#003579"/>
<path d="M805.65 537.13C810.29 537.64 816.9 536.35 817.21 530.39C817.46 525.56 812.49 523.44 808.52 522.39C804.447 521.317 800.624 520.204 797.05 519.05C786.824 515.737 782.21 508.864 783.21 498.43C783.84 491.91 788.1 486.1 793.99 483.33C808.59 476.47 831.83 481.92 831.28 501.7C831.267 502.147 831.037 502.37 830.59 502.37H816.22C815.82 502.37 815.61 502.17 815.59 501.77C815.3 494.6 807.83 492.27 801.94 494.59C798.66 495.88 796.78 500.19 798.86 503.16C800.154 505 802.17 506.307 804.91 507.08C810.09 508.547 814.794 510.004 819.02 511.45C835.94 517.26 836.15 538.54 821.7 547.04C820.234 547.9 818.69 548.35 817.07 548.39C810.924 548.524 804.634 548.52 798.2 548.38C796.507 548.347 794.93 547.93 793.47 547.13C786.09 543.084 782.52 536.807 782.76 528.3C782.774 527.847 783.007 527.62 783.46 527.62H797.75C798.144 527.62 798.327 527.814 798.3 528.2C798.01 532.71 801.15 536.64 805.65 537.13Z" fill="#003579"/>
<path d="M1002.59 523.12H980.021C979.954 523.12 979.891 523.094 979.844 523.047C979.797 523 979.771 522.936 979.771 522.87V510.87C979.771 510.537 979.937 510.37 980.271 510.37H1018.72C1019.13 510.37 1019.33 510.577 1019.31 510.99C1019.23 513.243 1019.23 515.447 1019.31 517.6C1019.77 529.36 1012.37 540.18 1002.51 546.08C1000.26 547.42 997.981 548.29 995.361 548.36C988.274 548.553 981.401 548.547 974.741 548.34C973.171 548.29 971.481 547.86 970.041 547.15C958.954 541.683 952.537 532.647 950.791 520.04C949.541 511 952.191 500.68 957.811 493.65C968.991 479.68 989.341 476.71 1004.61 485.96C1010.94 489.8 1015.38 495.643 1017.93 503.49C1018.06 503.91 1017.91 504.12 1017.48 504.12H1001.8C1001.43 504.12 1001.16 503.95 1000.99 503.61C996.301 493.89 984.411 492.08 975.731 496.64C964.921 502.33 962.981 517.06 968.401 527.08C973.341 536.21 985.241 539.04 994.211 534.74C998.457 532.7 1001.43 529.08 1003.14 523.88C1003.31 523.373 1003.12 523.12 1002.59 523.12Z" fill="#003579"/>
<path d="M1269.3 528.18C1269.09 535.96 1275.98 538.31 1282.44 536.8C1288.34 535.43 1290.83 528.01 1285.02 524.66C1282.86 523.42 1280.33 522.46 1277.42 521.78C1269.04 519.8 1260.21 517.57 1256.07 509.73C1254.6 506.957 1253.98 503.597 1254.2 499.65C1255.01 485.09 1268.74 479.6 1281.52 480.64C1293.24 481.6 1302.53 489.43 1302.43 501.77C1302.42 502.17 1302.22 502.37 1301.82 502.37H1287.22C1286.77 502.37 1286.54 502.143 1286.54 501.69C1286.56 495.05 1280.05 492.78 1274.46 494.13C1270.99 494.97 1269.21 497.063 1269.11 500.41C1268.98 504.71 1274.2 506.72 1277.69 507.64C1290.08 510.9 1304.44 514.47 1303.01 531.02C1302.41 538 1298.93 543.373 1292.57 547.14C1291.21 547.947 1289.63 548.367 1287.83 548.4C1281.92 548.52 1275.74 548.527 1269.29 548.42C1267.6 548.387 1266.08 548.013 1264.74 547.3C1257.42 543.36 1253.78 537.253 1253.83 528.98C1253.84 528.073 1254.29 527.62 1255.2 527.62H1268.76C1269.13 527.62 1269.31 527.807 1269.3 528.18Z" fill="#003579"/>
<path d="M436.021 494.56V508.26C436.021 508.356 436.058 508.447 436.126 508.515C436.193 508.582 436.285 508.62 436.38 508.62H457.661C457.756 508.62 457.848 508.658 457.915 508.726C457.983 508.793 458.021 508.885 458.021 508.98V521.01C458.021 521.106 457.983 521.197 457.915 521.265C457.848 521.332 457.756 521.37 457.661 521.37H436.38C436.285 521.37 436.193 521.408 436.126 521.476C436.058 521.543 436.021 521.635 436.021 521.73V536.51C436.021 536.606 436.058 536.697 436.126 536.765C436.193 536.832 436.285 536.87 436.38 536.87H460.411C460.506 536.87 460.598 536.908 460.665 536.976C460.733 537.043 460.771 537.135 460.771 537.23V548.01C460.771 548.058 460.761 548.104 460.743 548.148C460.725 548.192 460.698 548.231 460.665 548.265C460.632 548.298 460.592 548.325 460.548 548.343C460.505 548.361 460.458 548.37 460.411 548.37H421.63C421.535 548.37 421.443 548.332 421.376 548.265C421.308 548.197 421.271 548.106 421.271 548.01V481.47C421.271 481.375 421.308 481.283 421.376 481.216C421.443 481.148 421.535 481.11 421.63 481.11L460.391 481.14C460.486 481.14 460.578 481.178 460.645 481.246C460.713 481.313 460.75 481.405 460.75 481.5L460.781 493.53C460.781 493.626 460.743 493.717 460.675 493.785C460.608 493.852 460.516 493.89 460.421 493.89L436.38 494.2C436.285 494.2 436.193 494.238 436.126 494.306C436.058 494.373 436.021 494.465 436.021 494.56Z" fill="#003579"/>
<path d="M1140.8 536.62H1117.47C1117.4 536.618 1117.34 536.637 1117.28 536.675C1117.23 536.713 1117.18 536.767 1117.16 536.83L1113.13 548.16C1113.11 548.223 1113.07 548.277 1113.01 548.315C1112.95 548.353 1112.89 548.372 1112.82 548.37H1097.98C1097.93 548.37 1097.88 548.357 1097.83 548.334C1097.79 548.31 1097.75 548.275 1097.72 548.233C1097.69 548.191 1097.67 548.142 1097.66 548.091C1097.66 548.04 1097.66 547.988 1097.68 547.94L1121.46 481.34C1121.48 481.277 1121.53 481.223 1121.58 481.185C1121.64 481.147 1121.7 481.128 1121.77 481.13L1136.53 481.11C1136.6 481.108 1136.66 481.127 1136.72 481.165C1136.78 481.203 1136.82 481.257 1136.84 481.32L1160.66 547.95C1160.68 547.998 1160.68 548.05 1160.68 548.101C1160.67 548.152 1160.65 548.201 1160.62 548.243C1160.59 548.285 1160.55 548.32 1160.51 548.344C1160.46 548.367 1160.41 548.38 1160.36 548.38L1145.39 548.36C1145.32 548.362 1145.26 548.343 1145.2 548.305C1145.15 548.267 1145.1 548.213 1145.08 548.15L1141.11 536.83C1141.09 536.767 1141.05 536.713 1140.99 536.675C1140.93 536.637 1140.87 536.618 1140.8 536.62ZM1121.78 523.46C1121.76 523.505 1121.76 523.553 1121.77 523.601C1121.77 523.648 1121.79 523.693 1121.82 523.732C1121.85 523.771 1121.88 523.803 1121.92 523.825C1121.97 523.848 1122.01 523.86 1122.06 523.86L1136.19 523.89C1136.24 523.891 1136.29 523.881 1136.33 523.859C1136.37 523.837 1136.41 523.806 1136.44 523.766C1136.47 523.727 1136.49 523.681 1136.49 523.633C1136.5 523.585 1136.5 523.536 1136.48 523.49L1129.45 503.37C1129.43 503.31 1129.39 503.258 1129.34 503.221C1129.29 503.184 1129.23 503.164 1129.17 503.164C1129.1 503.164 1129.04 503.184 1128.99 503.221C1128.94 503.258 1128.9 503.31 1128.88 503.37L1121.78 523.46Z" fill="#003579"/>
<path d="M1221.77 521.7V536.54C1221.77 536.583 1221.78 536.626 1221.8 536.666C1221.81 536.706 1221.84 536.743 1221.87 536.773C1221.9 536.804 1221.93 536.828 1221.97 536.845C1222.01 536.862 1222.06 536.87 1222.1 536.87H1246.44C1246.53 536.87 1246.61 536.905 1246.67 536.967C1246.74 537.029 1246.77 537.113 1246.77 537.2V548.04C1246.77 548.128 1246.74 548.212 1246.67 548.273C1246.61 548.335 1246.53 548.37 1246.44 548.37H1207.35C1207.26 548.37 1207.18 548.335 1207.12 548.273C1207.06 548.212 1207.02 548.128 1207.02 548.04V481.45C1207.02 481.363 1207.06 481.279 1207.12 481.217C1207.18 481.155 1207.26 481.12 1207.35 481.12H1246.43C1246.52 481.12 1246.6 481.155 1246.66 481.217C1246.73 481.279 1246.76 481.363 1246.76 481.45L1246.77 493.55C1246.77 493.638 1246.74 493.722 1246.67 493.783C1246.61 493.845 1246.53 493.88 1246.44 493.88L1222.1 494.2C1222.01 494.2 1221.93 494.235 1221.87 494.297C1221.81 494.359 1221.77 494.443 1221.77 494.53V508.29C1221.77 508.378 1221.81 508.462 1221.87 508.523C1221.93 508.585 1222.01 508.62 1222.1 508.62H1243.69C1243.78 508.62 1243.86 508.655 1243.92 508.717C1243.99 508.779 1244.02 508.863 1244.02 508.95V521.04C1244.02 521.128 1243.99 521.212 1243.92 521.273C1243.86 521.335 1243.78 521.37 1243.69 521.37H1222.1C1222.06 521.37 1222.01 521.379 1221.97 521.395C1221.93 521.412 1221.9 521.436 1221.87 521.467C1221.84 521.497 1221.81 521.534 1221.8 521.574C1221.78 521.614 1221.77 521.657 1221.77 521.7Z" fill="#003579"/>
<path d="M484.271 524.87V548.12C484.271 548.186 484.244 548.25 484.197 548.297C484.15 548.344 484.087 548.37 484.021 548.37H470.021C469.687 548.37 469.521 548.203 469.521 547.87V481.92C469.521 481.56 469.701 481.38 470.061 481.38C478.641 481.34 487.327 481.35 496.12 481.41C505.2 481.47 514.491 486.5 517.441 495.61C520.991 506.52 516.301 517.92 505.321 522.21C505.067 522.31 505.011 522.477 505.151 522.71L520.11 547.76C520.35 548.167 520.234 548.37 519.76 548.37H503.48C503.12 548.37 502.847 548.213 502.661 547.9L489.23 524.66C489.024 524.3 488.711 524.12 488.291 524.12H485.021C484.521 524.12 484.271 524.37 484.271 524.87ZM484.201 494.74L484.181 510.76C484.181 510.933 484.249 511.1 484.37 511.223C484.492 511.347 484.657 511.417 484.831 511.42L494.98 511.44C496.101 511.443 497.21 511.243 498.246 510.853C499.282 510.463 500.224 509.89 501.018 509.167C501.812 508.443 502.443 507.584 502.874 506.637C503.305 505.691 503.528 504.676 503.531 503.65V501.93C503.536 499.859 502.642 497.87 501.046 496.402C499.45 494.933 497.283 494.105 495.021 494.1L484.87 494.08C484.783 494.079 484.696 494.095 484.615 494.127C484.534 494.16 484.46 494.208 484.397 494.27C484.335 494.331 484.286 494.404 484.252 494.485C484.218 494.566 484.201 494.652 484.201 494.74Z" fill="#003579"/>
<path d="M554.911 529.86C555.037 530.213 555.164 530.213 555.291 529.86L572.481 481.9C572.607 481.547 572.861 481.37 573.241 481.37H587.911C587.961 481.37 588.01 481.382 588.055 481.406C588.099 481.429 588.137 481.463 588.166 481.504C588.194 481.545 588.212 481.593 588.218 481.643C588.224 481.693 588.218 481.743 588.201 481.79L563.351 547.93C563.237 548.223 563.024 548.37 562.71 548.37H547.421C547.291 548.37 547.165 548.331 547.059 548.257C546.954 548.184 546.874 548.08 546.831 547.96L521.831 481.63C521.771 481.457 521.831 481.37 522.011 481.37H537.061C537.434 481.37 537.684 481.547 537.811 481.9L554.911 529.86Z" fill="#003579"/>
<path d="M606.441 481.37H592.34C592.164 481.37 592.021 481.513 592.021 481.69V548.05C592.021 548.227 592.164 548.37 592.34 548.37H606.441C606.617 548.37 606.76 548.227 606.76 548.05V481.69C606.76 481.513 606.617 481.37 606.441 481.37Z" fill="#003579"/>
<path d="M702.21 481.37H688.071C687.905 481.37 687.771 481.504 687.771 481.67V548.07C687.771 548.236 687.905 548.37 688.071 548.37H702.21C702.376 548.37 702.51 548.236 702.51 548.07V481.67C702.51 481.504 702.376 481.37 702.21 481.37Z" fill="#003579"/>
<path d="M920.551 530.55C917.184 538.477 911.261 543.997 902.781 547.11C900.221 548.05 897.127 548.497 893.5 548.45C883.887 548.33 874.257 548.317 864.61 548.41C864.454 548.41 864.304 548.348 864.193 548.237C864.083 548.127 864.021 547.977 864.021 547.82V481.92C864.021 481.56 864.201 481.38 864.561 481.38C873.661 481.347 882.074 481.354 889.801 481.4C893.581 481.427 897.404 482.1 901.271 483.42C913.797 487.72 921.061 496.627 923.061 510.14C924.121 517.314 923.284 524.117 920.551 530.55ZM879.09 494.38L878.951 536.64C878.951 536.717 878.981 536.791 879.035 536.845C879.09 536.9 879.164 536.93 879.24 536.93L888.951 536.96C894.078 536.976 899.002 534.954 902.64 531.339C906.278 527.723 908.332 522.81 908.35 517.68L908.37 513.54C908.38 510.998 907.888 508.479 906.924 506.128C905.96 503.776 904.542 501.637 902.752 499.834C900.962 498.03 898.833 496.597 896.489 495.617C894.145 494.637 891.631 494.128 889.09 494.12L879.38 494.09C879.304 494.09 879.23 494.121 879.175 494.175C879.121 494.23 879.09 494.303 879.09 494.38Z" fill="#003579"/>
<path d="M943.931 481.37H929.85C929.668 481.37 929.521 481.518 929.521 481.7V548.04C929.521 548.222 929.668 548.37 929.85 548.37H943.931C944.113 548.37 944.26 548.222 944.26 548.04V481.7C944.26 481.518 944.113 481.37 943.931 481.37Z" fill="#003579"/>
<path d="M1039.65 481.37H1025.65C1025.44 481.37 1025.27 481.54 1025.27 481.75V547.99C1025.27 548.2 1025.44 548.37 1025.65 548.37H1039.65C1039.86 548.37 1040.03 548.2 1040.03 547.99V481.75C1040.03 481.54 1039.86 481.37 1039.65 481.37Z" fill="#003579"/>
<path d="M1078.27 494.48V548.01C1078.27 548.057 1078.26 548.104 1078.24 548.148C1078.23 548.192 1078.2 548.231 1078.17 548.265C1078.13 548.298 1078.09 548.325 1078.05 548.343C1078 548.361 1077.96 548.37 1077.91 548.37H1063.88C1063.83 548.37 1063.79 548.361 1063.74 548.343C1063.7 548.325 1063.66 548.298 1063.63 548.265C1063.59 548.231 1063.57 548.192 1063.55 548.148C1063.53 548.104 1063.52 548.057 1063.52 548.01V494.48C1063.52 494.385 1063.48 494.293 1063.42 494.226C1063.35 494.158 1063.26 494.12 1063.16 494.12H1046.63C1046.54 494.12 1046.44 494.082 1046.38 494.015C1046.31 493.947 1046.27 493.856 1046.27 493.76V481.73C1046.27 481.635 1046.31 481.543 1046.38 481.476C1046.44 481.408 1046.54 481.37 1046.63 481.37H1094.91C1094.96 481.37 1095 481.379 1095.05 481.398C1095.09 481.416 1095.13 481.442 1095.17 481.476C1095.2 481.509 1095.23 481.549 1095.24 481.592C1095.26 481.636 1095.27 481.683 1095.27 481.73V493.76C1095.27 493.856 1095.23 493.947 1095.17 494.015C1095.1 494.082 1095.01 494.12 1094.91 494.12H1078.63C1078.54 494.12 1078.44 494.158 1078.38 494.226C1078.31 494.293 1078.27 494.385 1078.27 494.48Z" fill="#003579"/>
<path d="M1181.36 536.87H1202.18C1202.23 536.87 1202.27 536.879 1202.31 536.896C1202.35 536.913 1202.39 536.938 1202.42 536.97C1202.45 537.001 1202.48 537.039 1202.49 537.08C1202.51 537.121 1202.52 537.165 1202.52 537.21V548.03C1202.52 548.075 1202.51 548.119 1202.49 548.16C1202.48 548.201 1202.45 548.239 1202.42 548.271C1202.39 548.302 1202.35 548.327 1202.31 548.344C1202.27 548.361 1202.23 548.37 1202.18 548.37H1166.61C1166.57 548.37 1166.52 548.361 1166.48 548.344C1166.44 548.327 1166.4 548.302 1166.37 548.271C1166.34 548.239 1166.31 548.201 1166.3 548.16C1166.28 548.119 1166.27 548.075 1166.27 548.03V481.71C1166.27 481.62 1166.31 481.533 1166.37 481.47C1166.43 481.406 1166.52 481.37 1166.61 481.37H1180.68C1180.77 481.37 1180.86 481.406 1180.92 481.47C1180.98 481.533 1181.02 481.62 1181.02 481.71V536.53C1181.02 536.62 1181.06 536.707 1181.12 536.771C1181.18 536.834 1181.27 536.87 1181.36 536.87Z" fill="#003579"/>
</svg>
