<svg width="339" height="201" viewBox="0 0 339 201" fill="none" xmlns="http://www.w3.org/2000/svg">
<path d="M119.945 68.0927C120.138 54.2312 114.719 40.8591 104.878 30.9182C95.0366 20.9773 81.5807 15.2819 67.4699 15.0849C60.4829 14.9873 53.5455 16.2426 47.0537 18.779C40.5619 21.3154 34.6429 25.0833 29.6346 29.8676C24.6264 34.6519 20.6269 40.3588 17.8645 46.6625C15.1022 52.9662 13.6311 59.7433 13.5353 66.6069C13.3417 80.4684 18.7616 93.8404 28.6026 103.781C38.4435 113.722 51.8995 119.418 66.0103 119.615C72.9972 119.712 79.9347 118.457 86.4264 115.921C92.9182 113.384 98.8372 109.616 103.846 104.832C108.854 100.048 112.853 94.3408 115.616 88.037C118.378 81.7333 119.849 74.9562 119.945 68.0927Z" stroke="#CF8E90" stroke-width="2"/>
<path d="M110.673 65.6452C110.475 59.9742 109.143 54.3985 106.751 49.2363C104.36 44.0742 100.957 39.4266 96.7363 35.5592C92.5158 31.6917 87.5604 28.68 82.1532 26.6959C76.746 24.7119 70.9928 23.7945 65.2221 23.996C53.5676 24.403 42.5494 29.343 34.5912 37.7293C26.6331 46.1156 22.3869 57.2612 22.7869 68.7142C22.9849 74.3852 24.3176 79.9609 26.7089 85.1231C29.1002 90.2853 32.5033 94.9328 36.7238 98.8003C40.9444 102.668 45.8997 105.679 51.3069 107.663C56.7142 109.647 62.4674 110.565 68.2381 110.363C79.8925 109.956 90.9108 105.016 98.8689 96.6301C106.827 88.2438 111.073 77.0982 110.673 65.6452Z" stroke="#CF8E90" stroke-width="2"/>
<path d="M45.4302 45.3396C47.9502 39.4796 50.6302 34.7596 55.4602 30.4096C55.9002 30.0163 55.8369 29.8996 55.2702 30.0596C46.9002 32.4896 39.5802 38.0996 34.5602 45.2396C34.1735 45.793 34.3169 46.0696 34.9902 46.0696L44.2802 46.0896C44.8269 46.0896 45.2102 45.8396 45.4302 45.3396Z" stroke="#CF8E90" stroke-width="2"/>
<path d="M77.9901 30.0196C77.3701 29.8196 77.3067 29.9296 77.8001 30.3496C82.3867 34.2763 85.7467 39.3163 87.8801 45.4696C87.9415 45.6453 88.0558 45.798 88.2078 45.907C88.3598 46.0161 88.5421 46.0763 88.7301 46.0796H98.7401C98.7884 46.0811 98.8361 46.069 98.8779 46.0448C98.9198 46.0206 98.954 45.9853 98.9769 45.9427C98.9997 45.9001 99.0103 45.852 99.0073 45.8038C99.0043 45.7555 98.988 45.7091 98.9601 45.6696C93.9267 38.143 86.9367 32.9263 77.9901 30.0196Z" stroke="#CF8E90" stroke-width="2"/>
<path d="M51.4501 44.8696C51.3728 44.9909 51.3296 45.1308 51.3251 45.2746C51.3206 45.4184 51.355 45.5607 51.4246 45.6867C51.4942 45.8126 51.5965 45.9174 51.7206 45.99C51.8448 46.0627 51.9862 46.1005 52.1301 46.0996L63.3001 46.0896C63.5123 46.0896 63.7158 46.0053 63.8658 45.8553C64.0158 45.7052 64.1001 45.5017 64.1001 45.2896V32.8096C64.1017 32.6634 64.0632 32.5196 63.9888 32.3938C63.9144 32.268 63.8069 32.1649 63.6781 32.0959C63.5493 32.0268 63.404 31.9944 63.258 32.0021C63.112 32.0098 62.971 32.0573 62.8501 32.1396L57.0101 36.1396C56.9185 36.1997 56.8402 36.278 56.7801 36.3696L51.4501 44.8696Z" stroke="#CF8E90" stroke-width="2"/>
<path d="M70.0901 32.1997C69.5968 32.0131 69.3501 32.1831 69.3501 32.7097L69.3701 45.4697C69.3768 45.8697 69.5768 46.0697 69.9701 46.0697L81.5601 46.0797C82.0668 46.0797 82.2201 45.8497 82.0201 45.3897C79.5601 39.8097 75.9501 34.3797 70.0901 32.1997Z" stroke="#CF8E90" stroke-width="2"/>
<path d="M31.1001 51.9299C29.2467 55.9232 28.2267 59.9799 28.0401 64.0999C28.0373 64.154 28.0457 64.2082 28.0646 64.2591C28.0834 64.3099 28.1125 64.3564 28.1499 64.3957C28.1873 64.435 28.2323 64.4663 28.2822 64.4876C28.3321 64.509 28.3858 64.5199 28.4401 64.5199H41.21C41.5967 64.5199 41.7967 64.3232 41.8101 63.9299C41.9367 59.8432 42.5001 55.8765 43.5001 52.0299C43.6134 51.5832 43.4401 51.3599 42.9801 51.3599L31.96 51.3799C31.5534 51.3799 31.2667 51.5632 31.1001 51.9299Z" stroke="#CF8E90" stroke-width="2"/>
<path d="M49.64 51.3998C49.4982 51.4009 49.3615 51.4531 49.255 51.5468C49.1485 51.6404 49.0793 51.7693 49.06 51.9098L47.45 63.8398C47.4387 63.9229 47.4451 64.0075 47.469 64.0879C47.4929 64.1682 47.5336 64.2426 47.5885 64.306C47.6434 64.3694 47.7112 64.4204 47.7873 64.4555C47.8634 64.4907 47.9462 64.5092 48.03 64.5098L63.52 64.5298C63.6765 64.5298 63.8266 64.4677 63.9372 64.357C64.0479 64.2464 64.11 64.0963 64.11 63.9398L64.09 51.9298C64.09 51.7734 64.0279 51.6233 63.9172 51.5126C63.8066 51.402 63.6565 51.3398 63.5 51.3398L49.64 51.3998Z" stroke="#CF8E90" stroke-width="2"/>
<path d="M85.6701 64.5097C85.7461 64.5091 85.8212 64.4922 85.8901 64.4601C85.959 64.4279 86.0202 64.3814 86.0695 64.3235C86.1188 64.2656 86.1551 64.1978 86.1759 64.1247C86.1967 64.0516 86.2016 63.9748 86.1901 63.8997L84.4501 51.8197C84.4308 51.6934 84.3666 51.5783 84.2692 51.4956C84.1718 51.4129 84.0478 51.3682 83.9201 51.3697H69.8801C69.7395 51.3697 69.6047 51.4255 69.5053 51.5249C69.4059 51.6243 69.3501 51.7591 69.3501 51.8997L69.3701 63.9897C69.3701 64.1302 69.4259 64.265 69.5253 64.3644C69.6247 64.4638 69.7595 64.5197 69.9001 64.5197L85.6701 64.5097Z" stroke="#CF8E90" stroke-width="2"/>
<path d="M91.91 64.2596C91.9198 64.3347 91.9567 64.4037 92.0138 64.4534C92.0709 64.5031 92.1443 64.5303 92.22 64.5296L105.46 64.4896C105.507 64.4893 105.552 64.4786 105.594 64.4582C105.636 64.4378 105.673 64.4082 105.701 64.3717C105.73 64.3352 105.75 64.2927 105.761 64.2474C105.771 64.202 105.771 64.1549 105.76 64.1096L102.7 51.6296C102.684 51.5617 102.646 51.5011 102.592 51.4575C102.537 51.414 102.47 51.3901 102.4 51.3896L90.43 51.3496C90.3857 51.3492 90.3418 51.3584 90.3014 51.3764C90.2609 51.3944 90.2247 51.4209 90.1954 51.4541C90.166 51.4872 90.1441 51.5263 90.1311 51.5687C90.1181 51.611 90.1143 51.6557 90.12 51.6996L91.91 64.2596Z" stroke="#CF8E90" stroke-width="2"/>
<path d="M30.7401 82.3698C30.9134 82.7898 31.2267 82.9998 31.6801 82.9998L42.7501 82.9898C42.8377 82.9905 42.9243 82.9714 43.0035 82.9338C43.0826 82.8962 43.1522 82.8412 43.2071 82.7729C43.262 82.7046 43.3006 82.6247 43.3202 82.5393C43.3397 82.4539 43.3397 82.3652 43.3201 82.2798C42.3801 78.2265 41.8167 74.2665 41.6301 70.3998C41.6101 69.9865 41.3934 69.7798 40.9801 69.7798H28.4401C28.0134 69.7798 27.8167 69.9931 27.8501 70.4198C28.2434 74.7398 29.2067 78.7231 30.7401 82.3698Z" stroke="#CF8E90" stroke-width="2"/>
<path d="M47.92 69.7898C47.8247 69.7903 47.7307 69.8112 47.6441 69.851C47.5576 69.8907 47.4805 69.9485 47.418 70.0204C47.3556 70.0924 47.3092 70.1768 47.2819 70.2681C47.2547 70.3593 47.2472 70.4554 47.26 70.5498L48.94 82.3998C48.9638 82.5579 49.0435 82.7023 49.1646 82.8068C49.2856 82.9114 49.44 82.9692 49.6 82.9698L63.43 83.0098C63.518 83.0098 63.6051 82.9924 63.6864 82.9588C63.7677 82.9251 63.8415 82.8757 63.9037 82.8135C63.966 82.7513 64.0153 82.6774 64.049 82.5962C64.0826 82.5149 64.1 82.4277 64.1 82.3398L64.11 70.4298C64.11 70.2521 64.0394 70.0817 63.9137 69.956C63.7881 69.8304 63.6177 69.7598 63.44 69.7598L47.92 69.7898Z" stroke="#CF8E90" stroke-width="2"/>
<path d="M83.9601 82.9695C84.118 82.9711 84.271 82.9151 84.3906 82.812C84.5102 82.709 84.5882 82.5659 84.6101 82.4095L86.1901 70.5195C86.2029 70.4278 86.196 70.3343 86.1698 70.2455C86.1435 70.1566 86.0986 70.0744 86.038 70.0043C85.9774 69.9342 85.9025 69.8779 85.8184 69.8392C85.7342 69.8004 85.6427 69.7801 85.5501 69.7795L70.0001 69.7695C69.8277 69.7695 69.6624 69.838 69.5405 69.9599C69.4186 70.0818 69.3501 70.2471 69.3501 70.4195L69.3601 82.3695C69.3601 82.4549 69.3769 82.5394 69.4096 82.6183C69.4422 82.6971 69.4901 82.7688 69.5505 82.8292C69.6108 82.8895 69.6825 82.9374 69.7614 82.9701C69.8402 83.0027 69.9247 83.0195 70.0101 83.0195L83.9601 82.9695Z" stroke="#CF8E90" stroke-width="2"/>
<path d="M102.49 82.5098C104.05 78.7631 105.034 74.6965 105.44 70.3098C105.467 69.9565 105.307 69.7798 104.96 69.7798H92.2802C91.8868 69.7798 91.6835 69.9765 91.6702 70.3698C91.5568 74.2898 90.9868 78.2631 89.9602 82.2898C89.8402 82.7631 90.0235 82.9998 90.5102 82.9998L101.77 82.9898C101.924 82.9898 102.075 82.9442 102.203 82.8588C102.331 82.7734 102.431 82.6519 102.49 82.5098Z" stroke="#CF8E90" stroke-width="2"/>
<path d="M55.14 104.31C55.8266 104.523 55.9033 104.39 55.37 103.91C51.17 100.15 48.1567 95.9895 46.33 91.4295C45.9633 90.5162 45.5733 89.6129 45.16 88.7195C44.94 88.2529 44.57 88.0195 44.05 88.0195L34.7 88.0595C34.1066 88.0595 33.9766 88.3062 34.31 88.7995C39.41 96.4262 46.3533 101.596 55.14 104.31Z" stroke="#CF8E90" stroke-width="2"/>
<path d="M63.5901 102.41C63.6488 102.429 63.7111 102.434 63.7721 102.425C63.833 102.416 63.8907 102.393 63.9405 102.358C63.9903 102.322 64.0307 102.276 64.0585 102.223C64.0862 102.169 64.1005 102.11 64.1001 102.05L64.0901 88.6195C64.0901 88.2195 63.8901 88.0195 63.4901 88.0195L51.6901 88.0495C51.2434 88.0495 51.1001 88.2595 51.2601 88.6795C53.6001 94.6295 57.4401 100.31 63.5901 102.41Z" stroke="#CF8E90" stroke-width="2"/>
<path d="M69.86 102.46C76.34 100.05 79.42 94.8798 82.25 88.6998C82.4567 88.2531 82.31 88.0298 81.81 88.0298L70.03 88.0398C69.5767 88.0398 69.3533 88.2665 69.36 88.7198L69.38 102.12C69.3799 102.177 69.3937 102.234 69.4201 102.285C69.4465 102.337 69.4849 102.381 69.5319 102.414C69.579 102.447 69.6333 102.469 69.6904 102.477C69.7475 102.485 69.8057 102.479 69.86 102.46Z" stroke="#CF8E90" stroke-width="2"/>
<path d="M88.0701 88.6798C85.9001 94.5598 82.7301 99.7498 78.3801 103.48C77.4335 104.293 77.5502 104.5 78.7302 104.1C87.1768 101.246 93.9601 96.0865 99.0801 88.6198C99.3535 88.2265 99.2501 88.0298 98.7701 88.0298L88.9802 88.0398C88.5268 88.0398 88.2235 88.2531 88.0701 88.6798Z" stroke="#CF8E90" stroke-width="2"/>
<path d="M132.53 67.3601C132.53 76.001 130.828 84.5574 127.521 92.5406C124.214 100.524 119.368 107.778 113.258 113.888C107.147 119.998 99.8937 124.845 91.9105 128.151C83.9273 131.458 75.3709 133.16 66.7299 133.16C58.089 133.16 49.5326 131.458 41.5494 128.151C33.5661 124.845 26.3124 119.998 20.2023 113.888C7.86241 101.548 0.929932 84.8113 0.929932 67.3601C0.929932 49.9088 7.86241 33.1723 20.2023 20.8324C32.5422 8.49254 49.2787 1.56006 66.7299 1.56006C84.1812 1.56006 100.918 8.49254 113.258 20.8324C125.597 33.1723 132.53 49.9088 132.53 67.3601ZM119.945 68.093C120.138 54.2315 114.718 40.8594 104.877 30.9185C95.0365 20.9776 81.5805 15.2822 67.4697 15.0852C60.4828 14.9876 53.5454 16.2429 47.0536 18.7793C40.5618 21.3157 34.6428 25.0836 29.6345 29.8679C24.6262 34.6521 20.6267 40.3591 17.8644 46.6628C15.102 52.9665 13.631 59.7436 13.5351 66.6072C13.3416 80.4687 18.7614 93.8407 28.6024 103.782C38.4434 113.722 51.8993 119.418 66.0101 119.615C72.9971 119.713 79.9345 118.457 86.4263 115.921C92.9181 113.384 98.8371 109.616 103.845 104.832C108.854 100.048 112.853 94.3411 115.615 88.0373C118.378 81.7336 119.849 74.9565 119.945 68.093Z" fill="#9E1D20"/>
<path d="M119.945 68.0927C119.849 74.9562 118.378 81.7333 115.616 88.037C112.853 94.3408 108.854 100.048 103.846 104.832C98.8372 109.616 92.9182 113.384 86.4264 115.921C79.9347 118.457 72.9972 119.712 66.0103 119.615C51.8995 119.418 38.4435 113.722 28.6026 103.781C18.7616 93.8404 13.3417 80.4684 13.5353 66.6069C13.6311 59.7433 15.1022 52.9662 17.8645 46.6625C20.6269 40.3588 24.6264 34.6519 29.6346 29.8676C34.6429 25.0833 40.5619 21.3154 47.0537 18.779C53.5455 16.2426 60.4829 14.9873 67.4699 15.0849C81.5807 15.2819 95.0366 20.9773 104.878 30.9182C114.719 40.8591 120.138 54.2312 119.945 68.0927ZM110.673 65.6453C110.475 59.9743 109.143 54.3986 106.751 49.2364C104.36 44.0742 100.957 39.4267 96.7363 35.5592C92.5158 31.6917 87.5604 28.68 82.1532 26.696C76.746 24.712 70.9928 23.7946 65.2221 23.9961C53.5676 24.4031 42.5494 29.3431 34.5912 37.7294C26.6331 46.1156 22.3869 57.2613 22.7869 68.7143C22.9849 74.3852 24.3176 79.961 26.7089 85.1232C29.1002 90.2853 32.5033 94.9328 36.7239 98.8003C40.9444 102.668 45.8997 105.68 51.3069 107.664C56.7142 109.648 62.4674 110.565 68.2381 110.363C79.8925 109.956 90.9108 105.016 98.8689 96.6302C106.827 88.2439 111.073 77.0983 110.673 65.6453Z" fill="white"/>
<path d="M110.673 65.6457C111.073 77.0987 106.827 88.2443 98.8689 96.6306C90.9108 105.017 79.8925 109.957 68.2381 110.364C62.4674 110.565 56.7142 109.648 51.3069 107.664C45.8997 105.68 40.9444 102.668 36.7238 98.8007C32.5033 94.9333 29.1002 90.2857 26.7089 85.1236C24.3176 79.9614 22.9849 74.3857 22.7869 68.7147C22.3869 57.2617 26.6331 46.1161 34.5912 37.7298C42.5494 29.3435 53.5676 24.4035 65.2221 23.9965C70.9928 23.795 76.746 24.7124 82.1532 26.6964C87.5604 28.6804 92.5158 31.6922 96.7363 35.5597C100.957 39.4271 104.36 44.0746 106.751 49.2368C109.143 54.399 110.475 59.9747 110.673 65.6457ZM45.4301 45.3402C47.9501 39.4802 50.6301 34.7602 55.4601 30.4102C55.9001 30.0169 55.8368 29.9002 55.2701 30.0602C46.9001 32.4902 39.5801 38.1002 34.5601 45.2402C34.1734 45.7935 34.3168 46.0702 34.9901 46.0702L44.2801 46.0902C44.8267 46.0902 45.2101 45.8402 45.4301 45.3402ZM77.9901 30.0202C77.3701 29.8202 77.3068 29.9302 77.8001 30.3502C82.3868 34.2769 85.7467 39.3169 87.8801 45.4702C87.9415 45.6459 88.0559 45.7985 88.2078 45.9076C88.3598 46.0167 88.5421 46.0769 88.7301 46.0802H98.7401C98.7884 46.0816 98.8361 46.0696 98.878 46.0454C98.9198 46.0212 98.9541 45.9858 98.9769 45.9432C98.9997 45.9007 99.0103 45.8526 99.0073 45.8043C99.0043 45.7561 98.988 45.7096 98.9601 45.6702C93.9267 38.1435 86.9367 32.9269 77.9901 30.0202ZM51.4501 44.8702C51.3728 44.9915 51.3296 45.1314 51.3251 45.2752C51.3206 45.419 51.3549 45.5614 51.4246 45.6873C51.4942 45.8132 51.5964 45.918 51.7206 45.9907C51.8448 46.0633 51.9862 46.1012 52.1301 46.1002L63.3001 46.0902C63.5123 46.0902 63.7157 46.0059 63.8658 45.8559C64.0158 45.7059 64.1001 45.5024 64.1001 45.2902V32.8102C64.1017 32.664 64.0631 32.5202 63.9887 32.3944C63.9143 32.2686 63.8069 32.1656 63.6781 32.0965C63.5492 32.0274 63.4039 31.995 63.258 32.0027C63.112 32.0104 62.9709 32.058 62.8501 32.1402L57.0101 36.1402C56.9185 36.2003 56.8402 36.2786 56.7801 36.3702L51.4501 44.8702ZM70.0901 32.2002C69.5967 32.0135 69.3501 32.1835 69.3501 32.7102L69.3701 45.4702C69.3768 45.8702 69.5768 46.0702 69.9701 46.0702L81.5601 46.0802C82.0667 46.0802 82.2201 45.8502 82.0201 45.3902C79.5601 39.8102 75.9501 34.3802 70.0901 32.2002ZM31.1001 51.9302C29.2467 55.9235 28.2267 59.9802 28.0401 64.1002C28.0374 64.1544 28.0457 64.2086 28.0646 64.2594C28.0835 64.3103 28.1125 64.3568 28.1499 64.3961C28.1873 64.4353 28.2324 64.4666 28.2822 64.4879C28.3321 64.5093 28.3858 64.5203 28.4401 64.5202H41.2101C41.5967 64.5202 41.7968 64.3235 41.8101 63.9302C41.9368 59.8435 42.5001 55.8769 43.5001 52.0302C43.6134 51.5835 43.4401 51.3602 42.9801 51.3602L31.9601 51.3802C31.5534 51.3802 31.2667 51.5635 31.1001 51.9302ZM49.6401 51.4002C49.4982 51.4013 49.3616 51.4534 49.255 51.5471C49.1485 51.6408 49.0793 51.7697 49.0601 51.9102L47.4501 63.8402C47.4387 63.9233 47.4452 64.0078 47.4691 64.0882C47.4929 64.1686 47.5337 64.243 47.5886 64.3064C47.6434 64.3698 47.7112 64.4207 47.7873 64.4559C47.8635 64.491 47.9462 64.5096 48.0301 64.5102L63.5201 64.5302C63.6766 64.5302 63.8266 64.468 63.9373 64.3574C64.0479 64.2467 64.1101 64.0967 64.1101 63.9402L64.0901 51.9302C64.0901 51.7737 64.0279 51.6236 63.9173 51.513C63.8066 51.4024 63.6566 51.3402 63.5001 51.3402L49.6401 51.4002ZM85.6701 64.5102C85.7461 64.5096 85.8211 64.4927 85.8901 64.4606C85.959 64.4285 86.0202 64.3819 86.0695 64.324C86.1188 64.2662 86.1551 64.1984 86.1759 64.1252C86.1967 64.0521 86.2016 63.9754 86.1901 63.9002L84.4501 51.8202C84.4308 51.6939 84.3666 51.5788 84.2692 51.4961C84.1718 51.4135 84.0478 51.3687 83.9201 51.3702H69.8801C69.7395 51.3702 69.6047 51.426 69.5053 51.5254C69.4059 51.6248 69.3501 51.7596 69.3501 51.9002L69.3701 63.9902C69.3701 64.1308 69.4259 64.2656 69.5253 64.365C69.6247 64.4644 69.7595 64.5202 69.9001 64.5202L85.6701 64.5102ZM91.9101 64.2602C91.9199 64.3353 91.9568 64.4042 92.0139 64.454C92.071 64.5037 92.1444 64.5308 92.2201 64.5302L105.46 64.4902C105.507 64.4899 105.552 64.4791 105.594 64.4587C105.636 64.4383 105.673 64.4088 105.701 64.3723C105.73 64.3358 105.75 64.2933 105.761 64.2479C105.771 64.2026 105.771 64.1555 105.76 64.1102L102.7 51.6302C102.684 51.5623 102.646 51.5017 102.592 51.4581C102.537 51.4146 102.47 51.3906 102.4 51.3902L90.4301 51.3502C90.3858 51.3498 90.3419 51.359 90.3014 51.377C90.261 51.395 90.2248 51.4215 90.1954 51.4546C90.166 51.4878 90.1441 51.5269 90.1311 51.5692C90.1181 51.6116 90.1144 51.6563 90.1201 51.7002L91.9101 64.2602ZM30.7401 82.3702C30.9134 82.7902 31.2267 83.0002 31.6801 83.0002L42.7501 82.9902C42.8377 82.9909 42.9243 82.9718 43.0035 82.9342C43.0827 82.8966 43.1523 82.8416 43.2071 82.7733C43.262 82.705 43.3006 82.6251 43.3202 82.5397C43.3398 82.4543 43.3397 82.3656 43.3201 82.2802C42.3801 78.2269 41.8167 74.2669 41.6301 70.4002C41.6101 69.9869 41.3934 69.7802 40.9801 69.7802H28.4401C28.0134 69.7802 27.8167 69.9935 27.8501 70.4202C28.2434 74.7402 29.2067 78.7235 30.7401 82.3702ZM47.9201 69.7902C47.8248 69.7908 47.7308 69.8116 47.6442 69.8514C47.5577 69.8912 47.4806 69.9489 47.4181 70.0209C47.3557 70.0928 47.3093 70.1772 47.282 70.2685C47.2548 70.3598 47.2473 70.4558 47.2601 70.5502L48.9401 82.4002C48.964 82.5583 49.0436 82.7027 49.1647 82.8073C49.2857 82.9118 49.4401 82.9696 49.6001 82.9702L63.4301 83.0102C63.5181 83.0102 63.6052 82.9929 63.6865 82.9592C63.7678 82.9255 63.8416 82.8762 63.9038 82.814C63.9661 82.7517 64.0154 82.6779 64.0491 82.5966C64.0828 82.5153 64.1001 82.4282 64.1001 82.3402L64.1101 70.4302C64.1101 70.2525 64.0395 70.0821 63.9138 69.9564C63.7882 69.8308 63.6178 69.7602 63.4401 69.7602L47.9201 69.7902ZM83.9601 82.9702C84.118 82.9717 84.271 82.9157 84.3906 82.8127C84.5102 82.7096 84.5882 82.5666 84.6101 82.4102L86.1901 70.5202C86.2029 70.4284 86.196 70.335 86.1697 70.2461C86.1435 70.1573 86.0986 70.0751 86.038 70.005C85.9774 69.9349 85.9025 69.8786 85.8183 69.8398C85.7342 69.8011 85.6427 69.7807 85.5501 69.7802L70.0001 69.7702C69.8277 69.7702 69.6624 69.8387 69.5405 69.9606C69.4186 70.0825 69.3501 70.2478 69.3501 70.4202L69.3601 82.3702C69.3601 82.4556 69.3769 82.5401 69.4096 82.6189C69.4422 82.6978 69.4901 82.7695 69.5505 82.8298C69.6108 82.8902 69.6825 82.938 69.7613 82.9707C69.8402 83.0034 69.9247 83.0202 70.0101 83.0202L83.9601 82.9702ZM102.49 82.5102C104.05 78.7635 105.033 74.6969 105.44 70.3102C105.467 69.9569 105.307 69.7802 104.96 69.7802H92.2801C91.8867 69.7802 91.6834 69.9769 91.6701 70.3702C91.5567 74.2902 90.9867 78.2635 89.9601 82.2902C89.8401 82.7635 90.0234 83.0002 90.5101 83.0002L101.77 82.9902C101.924 82.9902 102.075 82.9446 102.203 82.8592C102.331 82.7738 102.431 82.6523 102.49 82.5102ZM55.1401 104.31C55.8267 104.524 55.9034 104.39 55.3701 103.91C51.1701 100.15 48.1568 95.9902 46.3301 91.4302C45.9634 90.5169 45.5734 89.6135 45.1601 88.7202C44.9401 88.2535 44.5701 88.0202 44.0501 88.0202L34.7001 88.0602C34.1067 88.0602 33.9768 88.3069 34.3101 88.8002C39.4101 96.4269 46.3534 101.597 55.1401 104.31ZM63.5901 102.41C63.6488 102.429 63.7112 102.434 63.7721 102.425C63.833 102.416 63.8907 102.393 63.9405 102.358C63.9903 102.323 64.0307 102.277 64.0585 102.223C64.0862 102.17 64.1005 102.11 64.1001 102.05L64.0901 88.6202C64.0901 88.2202 63.8901 88.0202 63.4901 88.0202L51.6901 88.0502C51.2434 88.0502 51.1001 88.2602 51.2601 88.6802C53.6001 94.6302 57.4401 100.31 63.5901 102.41ZM69.8601 102.46C76.3401 100.05 79.4201 94.8802 82.2501 88.7002C82.4568 88.2535 82.3101 88.0302 81.8101 88.0302L70.0301 88.0402C69.5767 88.0402 69.3534 88.2669 69.3601 88.7202L69.3801 102.12C69.38 102.178 69.3937 102.235 69.4202 102.286C69.4466 102.337 69.485 102.381 69.532 102.415C69.579 102.448 69.6334 102.469 69.6905 102.477C69.7476 102.485 69.8057 102.479 69.8601 102.46ZM88.0701 88.6802C85.9001 94.5602 82.7301 99.7502 78.3801 103.48C77.4334 104.294 77.5501 104.5 78.7301 104.1C87.1768 101.247 93.9601 96.0869 99.0801 88.6202C99.3534 88.2269 99.2501 88.0302 98.7701 88.0302L88.9801 88.0402C88.5268 88.0402 88.2234 88.2535 88.0701 88.6802Z" fill="#9E1D20"/>
<path d="M55.46 30.4101C50.63 34.7601 47.95 39.4801 45.43 45.3401C45.21 45.8401 44.8266 46.0901 44.28 46.0901L34.99 46.0701C34.3166 46.0701 34.1733 45.7935 34.56 45.2401C39.58 38.1001 46.9 32.4901 55.27 30.0601C55.8366 29.9001 55.9 30.0168 55.46 30.4101Z" fill="white"/>
<path d="M77.9901 30.0201C86.9367 32.9268 93.9267 38.1434 98.9601 45.6701C98.988 45.7096 99.0043 45.756 99.0073 45.8042C99.0103 45.8525 98.9997 45.9006 98.9769 45.9432C98.954 45.9857 98.9198 46.0211 98.8779 46.0453C98.8361 46.0695 98.7884 46.0815 98.7401 46.0801H88.7301C88.5421 46.0768 88.3598 46.0166 88.2078 45.9075C88.0558 45.7985 87.9415 45.6458 87.8801 45.4701C85.7467 39.3168 82.3867 34.2768 77.8001 30.3501C77.3067 29.9301 77.3701 29.8201 77.9901 30.0201Z" fill="white"/>
<path d="M51.4501 44.8701L56.7801 36.3701C56.8402 36.2785 56.9185 36.2002 57.0101 36.1401L62.8501 32.1401C62.971 32.0578 63.112 32.0103 63.258 32.0026C63.404 31.9949 63.5493 32.0273 63.6781 32.0964C63.8069 32.1654 63.9144 32.2685 63.9888 32.3943C64.0632 32.5201 64.1017 32.6639 64.1001 32.8101V45.2901C64.1001 45.5022 64.0158 45.7057 63.8658 45.8557C63.7158 46.0058 63.5123 46.0901 63.3001 46.0901L52.1301 46.1001C51.9862 46.101 51.8448 46.0632 51.7206 45.9905C51.5965 45.9179 51.4942 45.813 51.4246 45.6871C51.355 45.5612 51.3206 45.4189 51.3251 45.2751C51.3296 45.1313 51.3728 44.9914 51.4501 44.8701Z" fill="white"/>
<path d="M70.0901 32.2002C75.9501 34.3802 79.5601 39.8102 82.0201 45.3902C82.2201 45.8502 82.0668 46.0802 81.5601 46.0802L69.9701 46.0702C69.5768 46.0702 69.3768 45.8702 69.3701 45.4702L69.3501 32.7102C69.3501 32.1836 69.5968 32.0136 70.0901 32.2002Z" fill="white"/>
<path d="M240.79 75.4798L248.51 43.5398C248.61 43.1465 248.453 42.9465 248.04 42.9398L244.08 42.9298C243.487 42.9231 243.143 42.6265 243.05 42.0398C242.57 39.1998 242.6 36.3998 243.14 33.6398C243.26 33.0398 243.623 32.7398 244.23 32.7398H266.79C266.976 32.7392 267.156 32.804 267.298 32.9229C267.441 33.0418 267.537 33.2071 267.57 33.3898C268.203 36.6965 268.16 39.8798 267.44 42.9398C267.353 43.3065 267.123 43.4898 266.75 43.4898L263.27 43.4798C262.943 43.4798 262.737 43.6365 262.65 43.9498L248.64 95.7698C248.54 96.1298 248.307 96.3098 247.94 96.3098H232.84C232.74 96.3101 232.644 96.2767 232.565 96.2149C232.487 96.1532 232.433 96.0668 232.41 95.9698L222.92 53.3198C222.773 52.6598 222.62 52.6598 222.46 53.3198L212.5 95.9498C212.413 96.3231 212.18 96.5098 211.8 96.5098H196.95C196.563 96.5098 196.323 96.3231 196.23 95.9498L183.35 44.0798C183.25 43.6798 182.993 43.4798 182.58 43.4798L179.05 43.4898C178.59 43.4898 178.313 43.2631 178.22 42.8098C177.593 39.6031 177.64 36.4265 178.36 33.2798C178.44 32.9198 178.663 32.7398 179.03 32.7398H202.72C202.881 32.7392 203.037 32.7949 203.161 32.8972C203.285 32.9994 203.37 33.1418 203.4 33.2998C204.04 36.4865 203.983 39.5631 203.23 42.5298C203.157 42.8098 202.98 42.9465 202.7 42.9398L198.95 42.9298C198.49 42.9298 198.31 43.1531 198.41 43.5998L205.71 75.9998C205.883 76.7531 206.053 76.7531 206.22 75.9998L216.05 32.8498C216.07 32.7586 216.122 32.6772 216.197 32.619C216.271 32.5608 216.364 32.5293 216.46 32.5298H230.32C230.453 32.5292 230.583 32.5746 230.687 32.6584C230.791 32.7422 230.862 32.8593 230.89 32.9898L240.03 75.4698C240.27 76.5765 240.523 76.5798 240.79 75.4798Z" fill="#040707"/>
<path d="M155.19 84.4202V44.0902C155.19 43.6836 154.99 43.4802 154.59 43.4802L150.27 43.4902C149.797 43.4902 149.517 43.2602 149.43 42.8002C148.797 39.5869 148.843 36.4169 149.57 33.2902C149.65 32.9236 149.877 32.7402 150.25 32.7402H175.22C175.391 32.7398 175.557 32.7997 175.689 32.9094C175.821 33.0191 175.909 33.1716 175.94 33.3402C176.567 36.6869 176.52 39.9102 175.8 43.0102C175.768 43.1464 175.691 43.2679 175.58 43.3551C175.47 43.4422 175.332 43.4898 175.19 43.4902L170.75 43.4802C170.683 43.4802 170.617 43.4937 170.555 43.5198C170.493 43.5459 170.437 43.5843 170.389 43.6325C170.342 43.6808 170.304 43.7382 170.279 43.8012C170.253 43.8643 170.24 43.9319 170.24 44.0002L170.23 84.5102C170.23 84.8569 170.407 85.0302 170.76 85.0302L175.22 85.0202C175.391 85.0199 175.557 85.0806 175.691 85.1918C175.824 85.303 175.915 85.458 175.95 85.6302C176.563 88.8702 176.523 92.0436 175.83 95.1502C175.789 95.3235 175.692 95.4781 175.554 95.5888C175.416 95.6995 175.246 95.7599 175.07 95.7602H150.23C149.777 95.7602 149.507 95.5369 149.42 95.0902C148.8 91.8036 148.847 88.6302 149.56 85.5702C149.647 85.2102 149.877 85.0302 150.25 85.0302L154.58 85.0202C154.987 85.0202 155.19 84.8202 155.19 84.4202Z" fill="#040707"/>
<path d="M290.79 44.7402L290.8 58.0102C290.8 58.1985 290.875 58.3791 291.008 58.5123C291.141 58.6454 291.322 58.7202 291.51 58.7202H311.02C311.189 58.7198 311.352 58.7786 311.482 58.8865C311.612 58.9943 311.699 59.1443 311.73 59.3102C312.417 62.7502 312.4 66.2036 311.68 69.6702C311.58 70.1369 311.29 70.3702 310.81 70.3702L291.33 70.3802C290.977 70.3802 290.8 70.5602 290.8 70.9202L290.79 84.4102C290.79 84.8169 290.997 85.0202 291.41 85.0202L296.98 85.0302C297.195 85.0308 297.403 85.1058 297.569 85.2426C297.735 85.3793 297.848 85.5693 297.89 85.7802C298.51 88.9336 298.44 92.1369 297.68 95.3902C297.62 95.6369 297.463 95.7602 297.21 95.7602H270.8C270.387 95.7602 270.14 95.5569 270.06 95.1502C269.407 91.8569 269.44 88.6936 270.16 85.6602C270.26 85.2402 270.527 85.0302 270.96 85.0302L275.02 85.0202C275.373 85.0136 275.55 84.8336 275.55 84.4802V44.0102C275.55 43.6569 275.37 43.4802 275.01 43.4802L270.68 43.4902C270.483 43.4896 270.293 43.4214 270.141 43.2974C269.99 43.1734 269.887 43.0012 269.85 42.8102C269.217 39.5569 269.267 36.3936 270 33.3202C270.093 32.9336 270.337 32.7402 270.73 32.7402H319.26C319.607 32.7402 319.78 32.9136 319.78 33.2602V50.9702C319.78 51.3569 319.6 51.6169 319.24 51.7502C315.407 53.1502 311.613 53.1369 307.86 51.7102C307.527 51.5902 307.36 51.3536 307.36 51.0002L307.38 44.7002C307.38 44.2402 307.153 44.0102 306.7 44.0102L291.51 44.0202C291.03 44.0202 290.79 44.2602 290.79 44.7402Z" fill="#040707"/>
<path d="M31.1001 51.9299C31.2667 51.5632 31.5534 51.3799 31.96 51.3799L42.9801 51.3599C43.4401 51.3599 43.6134 51.5832 43.5001 52.0299C42.5001 55.8765 41.9367 59.8432 41.8101 63.9299C41.7967 64.3232 41.5967 64.5199 41.21 64.5199H28.4401C28.3858 64.5199 28.3321 64.509 28.2822 64.4876C28.2323 64.4663 28.1873 64.435 28.1499 64.3957C28.1125 64.3564 28.0834 64.3099 28.0646 64.2591C28.0457 64.2082 28.0373 64.154 28.0401 64.0999C28.2267 59.9799 29.2467 55.9232 31.1001 51.9299Z" fill="white"/>
<path d="M49.64 51.3998L63.5 51.3398C63.6565 51.3398 63.8066 51.402 63.9172 51.5126C64.0279 51.6233 64.09 51.7734 64.09 51.9298L64.11 63.9398C64.11 64.0963 64.0479 64.2464 63.9372 64.357C63.8266 64.4677 63.6765 64.5298 63.52 64.5298L48.03 64.5098C47.9462 64.5092 47.8634 64.4907 47.7873 64.4555C47.7112 64.4204 47.6434 64.3694 47.5885 64.306C47.5336 64.2426 47.4929 64.1682 47.469 64.0879C47.4451 64.0075 47.4387 63.9229 47.45 63.8398L49.06 51.9098C49.0793 51.7693 49.1485 51.6404 49.255 51.5468C49.3615 51.4531 49.4982 51.4009 49.64 51.3998Z" fill="white"/>
<path d="M85.6701 64.5102L69.9001 64.5201C69.7595 64.5201 69.6247 64.4643 69.5253 64.3649C69.4259 64.2655 69.3701 64.1307 69.3701 63.9902L69.3501 51.9002C69.3501 51.7596 69.4059 51.6248 69.5053 51.5254C69.6047 51.426 69.7395 51.3702 69.8801 51.3702H83.9201C84.0478 51.3687 84.1718 51.4134 84.2692 51.4961C84.3666 51.5788 84.4308 51.6939 84.4501 51.8202L86.1901 63.9002C86.2016 63.9753 86.1967 64.0521 86.1759 64.1252C86.1551 64.1983 86.1188 64.2661 86.0695 64.324C86.0202 64.3819 85.959 64.4284 85.8901 64.4606C85.8212 64.4927 85.7461 64.5096 85.6701 64.5102Z" fill="white"/>
<path d="M91.91 64.2601L90.12 51.7001C90.1143 51.6562 90.1181 51.6115 90.1311 51.5692C90.1441 51.5268 90.166 51.4877 90.1954 51.4546C90.2247 51.4214 90.2609 51.3949 90.3014 51.3769C90.3418 51.3589 90.3857 51.3497 90.43 51.3501L102.4 51.3901C102.47 51.3906 102.537 51.4145 102.592 51.458C102.646 51.5016 102.684 51.5622 102.7 51.6301L105.76 64.1101C105.771 64.1554 105.771 64.2025 105.761 64.2478C105.75 64.2932 105.73 64.3357 105.701 64.3722C105.673 64.4087 105.636 64.4382 105.594 64.4587C105.552 64.4791 105.507 64.4898 105.46 64.4901L92.22 64.5301C92.1443 64.5307 92.0709 64.5036 92.0138 64.4539C91.9567 64.4041 91.9198 64.3352 91.91 64.2601Z" fill="white"/>
<path d="M30.7401 82.3698C29.2067 78.7231 28.2434 74.7398 27.8501 70.4198C27.8167 69.9931 28.0134 69.7798 28.4401 69.7798H40.9801C41.3934 69.7798 41.6101 69.9865 41.6301 70.3998C41.8167 74.2665 42.3801 78.2265 43.3201 82.2798C43.3397 82.3652 43.3397 82.4539 43.3202 82.5393C43.3006 82.6247 43.262 82.7046 43.2071 82.7729C43.1522 82.8412 43.0826 82.8962 43.0035 82.9338C42.9243 82.9714 42.8377 82.9905 42.7501 82.9898L31.6801 82.9998C31.2267 82.9998 30.9134 82.7898 30.7401 82.3698Z" fill="white"/>
<path d="M47.92 69.7898L63.44 69.7598C63.6177 69.7598 63.7881 69.8304 63.9137 69.956C64.0394 70.0817 64.11 70.2521 64.11 70.4298L64.1 82.3398C64.1 82.4277 64.0826 82.5149 64.049 82.5962C64.0153 82.6774 63.966 82.7513 63.9037 82.8135C63.8415 82.8757 63.7677 82.9251 63.6864 82.9588C63.6051 82.9924 63.518 83.0098 63.43 83.0098L49.6 82.9698C49.44 82.9692 49.2856 82.9114 49.1646 82.8068C49.0435 82.7023 48.9638 82.5579 48.94 82.3998L47.26 70.5498C47.2472 70.4554 47.2547 70.3593 47.2819 70.2681C47.3092 70.1768 47.3556 70.0924 47.418 70.0204C47.4805 69.9485 47.5576 69.8907 47.6441 69.851C47.7307 69.8112 47.8247 69.7903 47.92 69.7898Z" fill="white"/>
<path d="M83.9601 82.97L70.0101 83.02C69.9247 83.02 69.8402 83.0032 69.7614 82.9705C69.6825 82.9379 69.6108 82.89 69.5505 82.8296C69.4901 82.7693 69.4422 82.6976 69.4096 82.6188C69.3769 82.5399 69.3601 82.4554 69.3601 82.37L69.3501 70.42C69.3501 70.2476 69.4186 70.0823 69.5405 69.9604C69.6624 69.8385 69.8277 69.77 70.0001 69.77L85.5501 69.78C85.6427 69.7806 85.7342 69.8009 85.8184 69.8397C85.9025 69.8784 85.9774 69.9347 86.038 70.0048C86.0986 70.0749 86.1435 70.1571 86.1698 70.246C86.196 70.3348 86.2029 70.4283 86.1901 70.52L84.6101 82.41C84.5882 82.5664 84.5102 82.7094 84.3906 82.8125C84.271 82.9156 84.118 82.9715 83.9601 82.97Z" fill="white"/>
<path d="M102.49 82.5098C102.431 82.6519 102.331 82.7734 102.203 82.8588C102.074 82.9442 101.924 82.9898 101.77 82.9898L90.5099 82.9998C90.0233 82.9998 89.8399 82.7631 89.9599 82.2898C90.9866 78.2631 91.5566 74.2898 91.6699 70.3698C91.6833 69.9765 91.8866 69.7798 92.2799 69.7798H104.96C105.307 69.7798 105.467 69.9565 105.44 70.3098C105.033 74.6965 104.05 78.7631 102.49 82.5098Z" fill="white"/>
<path d="M55.14 104.31C46.3533 101.597 39.41 96.4267 34.31 88.8C33.9766 88.3067 34.1066 88.06 34.7 88.06L44.05 88.02C44.57 88.02 44.94 88.2534 45.16 88.72C45.5733 89.6134 45.9633 90.5167 46.33 91.43C48.1567 95.99 51.17 100.15 55.37 103.91C55.9033 104.39 55.8266 104.523 55.14 104.31Z" fill="white"/>
<path d="M63.5901 102.41C57.4401 100.31 53.6001 94.63 51.2601 88.68C51.1001 88.26 51.2434 88.05 51.6901 88.05L63.4901 88.02C63.8901 88.02 64.0901 88.22 64.0901 88.62L64.1001 102.05C64.1005 102.11 64.0862 102.17 64.0585 102.223C64.0307 102.277 63.9903 102.323 63.9405 102.358C63.8907 102.393 63.833 102.416 63.7721 102.425C63.7111 102.434 63.6488 102.429 63.5901 102.41Z" fill="white"/>
<path d="M69.86 102.46C69.8057 102.479 69.7475 102.485 69.6904 102.477C69.6333 102.469 69.579 102.447 69.5319 102.414C69.4849 102.381 69.4465 102.337 69.4201 102.285C69.3937 102.234 69.3799 102.177 69.38 102.12L69.36 88.7198C69.3533 88.2665 69.5767 88.0398 70.03 88.0398L81.81 88.0298C82.31 88.0298 82.4567 88.2531 82.25 88.6998C79.42 94.8798 76.34 100.05 69.86 102.46Z" fill="white"/>
<path d="M78.3799 103.48C82.7299 99.7498 85.8999 94.5598 88.0699 88.6798C88.2232 88.2531 88.5266 88.0398 88.9799 88.0398L98.7699 88.0298C99.2499 88.0298 99.3532 88.2265 99.0799 88.6198C93.9599 96.0865 87.1766 101.246 78.7299 104.1C77.5499 104.5 77.4332 104.293 78.3799 103.48Z" fill="white"/>
<path d="M154.77 110.02V128.73C154.77 129.217 155.007 129.407 155.48 129.3C155.847 129.213 156.227 129.2 156.62 129.26C157.22 129.353 157.517 129.703 157.51 130.31L157.48 131.95C157.477 132.139 157.399 132.32 157.263 132.453C157.126 132.586 156.942 132.66 156.75 132.66H147.95C147.762 132.66 147.582 132.586 147.448 132.453C147.313 132.321 147.235 132.14 147.23 131.95L147.17 130.2C147.157 129.767 147.363 129.51 147.79 129.43L149.05 129.2C149.463 129.12 149.67 128.867 149.67 128.44L149.74 110.11C149.74 109.69 149.53 109.483 149.11 109.49L147.88 109.51C147.712 109.513 147.55 109.448 147.428 109.33C147.306 109.212 147.235 109.051 147.23 108.88L147.19 106.76C147.183 106.227 147.45 105.96 147.99 105.96H156.73C156.894 105.96 157.052 106.019 157.177 106.125C157.301 106.231 157.384 106.378 157.41 106.54C157.55 107.34 157.553 108.153 157.42 108.98C157.373 109.247 157.217 109.407 156.95 109.46C156.477 109.56 156 109.553 155.52 109.44C155.431 109.417 155.339 109.415 155.249 109.433C155.16 109.452 155.075 109.49 155.003 109.546C154.931 109.602 154.872 109.674 154.832 109.756C154.791 109.838 154.77 109.928 154.77 110.02Z" fill="#040707"/>
<path d="M187.32 117.65C187.327 120.883 187.33 124.16 187.33 127.48C187.34 130.15 189.7 129.96 191.42 129.07C191.483 129.037 191.554 129.021 191.625 129.023C191.696 129.026 191.765 129.047 191.825 129.084C191.886 129.121 191.936 129.174 191.97 129.236C192.004 129.299 192.021 129.369 192.02 129.44L192.03 131.61C192.03 132.07 191.81 132.363 191.37 132.49C187.84 133.51 183.4 133.43 182.9 128.76C182.56 125.606 182.51 121.913 182.75 117.68C182.777 117.24 182.567 117.016 182.12 117.01L180.62 117C180.2 117 179.977 116.79 179.95 116.37L179.85 114.49C179.845 114.4 179.858 114.311 179.888 114.226C179.919 114.142 179.967 114.065 180.029 114C180.091 113.936 180.166 113.884 180.249 113.85C180.331 113.815 180.42 113.798 180.51 113.8L181.95 113.81C182.29 113.816 182.46 113.646 182.46 113.3L182.47 110.25C182.47 109.736 182.7 109.366 183.16 109.14L186.59 107.43C187.11 107.17 187.367 107.33 187.36 107.91L187.3 113.18C187.3 113.6 187.51 113.81 187.93 113.81L190.57 113.8C190.99 113.793 191.24 113.996 191.32 114.41C191.44 114.996 191.453 115.6 191.36 116.22C191.287 116.753 190.98 117.02 190.44 117.02H187.96C187.533 117.013 187.32 117.223 187.32 117.65Z" fill="#040707"/>
<path d="M266.73 117L265.29 117.03C264.977 117.037 264.78 116.89 264.7 116.59C264.513 115.857 264.483 115.11 264.61 114.35C264.67 113.977 264.887 113.79 265.26 113.79L266.5 113.8C266.907 113.8 267.11 113.597 267.11 113.19L267.08 110.31C267.073 109.777 267.31 109.39 267.79 109.15L271.17 107.46C271.723 107.187 272 107.357 272 107.97V113.24C272 113.653 272.207 113.853 272.62 113.84L275.05 113.79C275.743 113.77 276.083 114.107 276.07 114.8L276.05 116C276.049 116.135 276.021 116.269 275.967 116.393C275.914 116.518 275.836 116.631 275.738 116.725C275.641 116.82 275.525 116.895 275.399 116.945C275.272 116.996 275.137 117.021 275 117.02L272.51 117.01C272.143 117.01 271.96 117.193 271.96 117.56C272.013 120.733 272.02 124.18 271.98 127.9C271.973 128.62 272.267 129.107 272.86 129.36C273.913 129.813 275.083 129.69 276.37 128.99C276.408 128.969 276.451 128.958 276.494 128.959C276.538 128.96 276.58 128.972 276.618 128.994C276.655 129.017 276.686 129.048 276.708 129.086C276.729 129.124 276.74 129.166 276.74 129.21L276.71 131.98C276.71 132.18 276.617 132.31 276.43 132.37C271.88 133.89 267.42 133.14 267.32 127.17C267.267 123.837 267.257 120.637 267.29 117.57C267.297 117.183 267.11 116.993 266.73 117Z" fill="#040707"/>
<path d="M198.81 124.55C197.21 124.55 196.787 125.257 197.54 126.67L198.06 127.64C198.423 128.32 198.972 128.884 199.642 129.266C200.313 129.648 201.078 129.833 201.85 129.8C204.15 129.707 206.29 129.023 208.27 127.75C208.278 127.746 208.286 127.744 208.295 127.743C208.303 127.742 208.311 127.744 208.318 127.747C208.325 127.75 208.331 127.754 208.335 127.76C208.339 127.766 208.34 127.773 208.34 127.78C208.44 128.927 208.467 130.09 208.42 131.27C208.413 131.483 208.317 131.64 208.13 131.74C205.577 133.047 203.02 133.553 200.46 133.26C188.16 131.86 189.99 112.18 201.74 113.36C207.81 113.96 209.53 118.7 209.31 124.01C209.29 124.37 209.103 124.55 208.75 124.55H198.81ZM197.67 121.41L204.03 121.31C204.076 121.309 204.121 121.298 204.163 121.28C204.205 121.261 204.243 121.234 204.275 121.201C204.306 121.167 204.331 121.128 204.347 121.085C204.364 121.042 204.371 120.996 204.37 120.95V120.78C204.361 120.236 204.263 119.7 204.083 119.2C203.903 118.701 203.643 118.249 203.319 117.87C202.995 117.491 202.613 117.193 202.194 116.992C201.776 116.791 201.329 116.692 200.88 116.7H200.66C200.211 116.708 199.768 116.823 199.356 117.038C198.945 117.253 198.573 117.565 198.262 117.955C197.951 118.345 197.707 118.806 197.543 119.311C197.38 119.816 197.301 120.356 197.31 120.9V121.07C197.311 121.116 197.322 121.161 197.34 121.203C197.359 121.245 197.386 121.283 197.42 121.315C197.453 121.346 197.492 121.371 197.535 121.387C197.578 121.404 197.624 121.411 197.67 121.41Z" fill="#040707"/>
<path d="M253.49 124.55C251.797 124.55 251.41 125.257 252.33 126.67C252.65 127.163 252.89 127.533 253.05 127.78C254.043 129.3 255.44 129.97 257.24 129.79C259.227 129.59 261.113 128.927 262.9 127.8C262.922 127.784 262.948 127.774 262.975 127.773C263.002 127.771 263.03 127.777 263.054 127.791C263.079 127.804 263.1 127.824 263.115 127.849C263.13 127.873 263.139 127.901 263.14 127.93L263.19 131.38C263.19 131.507 263.133 131.6 263.02 131.66C253.64 136.63 243.84 129.93 247.54 119.25C249.23 114.34 254.09 112.12 258.81 113.84C262.49 115.18 264.247 118.493 264.08 123.78C264.06 124.293 263.797 124.55 263.29 124.55H253.49ZM252.42 121.45L258.78 121.35C258.826 121.349 258.871 121.338 258.913 121.32C258.955 121.301 258.993 121.274 259.025 121.241C259.056 121.207 259.081 121.168 259.097 121.125C259.114 121.082 259.121 121.036 259.12 120.99V120.82C259.101 119.712 258.725 118.655 258.075 117.882C257.424 117.11 256.552 116.684 255.65 116.7H255.39C254.943 116.708 254.503 116.823 254.094 117.041C253.685 117.258 253.315 117.572 253.006 117.966C252.697 118.36 252.454 118.825 252.292 119.335C252.129 119.846 252.051 120.391 252.06 120.94V121.11C252.061 121.156 252.072 121.201 252.091 121.243C252.109 121.285 252.136 121.323 252.17 121.355C252.203 121.386 252.242 121.411 252.285 121.427C252.328 121.444 252.374 121.451 252.42 121.45Z" fill="#040707"/>
<path d="M165.95 115.72C169.02 112.64 174.91 112.42 177.04 116.76C177.6 117.906 177.853 119.413 177.8 121.28C177.707 124.12 177.703 126.806 177.79 129.34C177.797 129.653 177.957 129.81 178.27 129.81L179.76 129.8C180.073 129.793 180.233 129.946 180.24 130.26L180.31 132.24C180.323 132.62 180.14 132.81 179.76 132.81L171.47 132.82C171.359 132.82 171.25 132.798 171.148 132.755C171.046 132.712 170.953 132.649 170.876 132.57C170.799 132.49 170.738 132.397 170.697 132.294C170.657 132.191 170.637 132.08 170.64 131.97L170.67 130.43C170.677 130.01 170.893 129.796 171.32 129.79L172.28 129.78C172.647 129.78 172.83 129.593 172.83 129.22L172.81 119.53C172.803 117.81 171.943 116.906 170.23 116.82C169.983 116.806 169.74 116.816 169.5 116.85C167.36 117.156 166.217 118.386 166.07 120.54C165.897 123.213 165.837 126.016 165.89 128.95C165.897 129.356 166.103 129.573 166.51 129.6L167.49 129.67C167.85 129.69 168.033 129.88 168.04 130.24L168.08 132.03C168.093 132.45 167.89 132.66 167.47 132.66H159.23C159.026 132.66 158.83 132.58 158.685 132.437C158.541 132.295 158.46 132.101 158.46 131.9L158.45 130.48C158.45 130.26 158.537 130.049 158.693 129.893C158.849 129.737 159.06 129.65 159.28 129.65L160.53 129.64C160.977 129.64 161.2 129.416 161.2 128.97L161.21 117.6C161.21 117.193 161.007 116.996 160.6 117.01L159.31 117.03C158.97 117.036 158.763 116.873 158.69 116.54C158.55 115.846 158.55 115.166 158.69 114.5C158.763 114.166 158.97 114 159.31 114H164.87C165.283 114 165.477 114.206 165.45 114.62L165.4 115.47C165.367 116.043 165.55 116.126 165.95 115.72Z" fill="#040707"/>
<path d="M217.72 116.02C219.25 113.92 221.51 113.09 223.81 114.15C224.097 114.283 224.397 114.317 224.71 114.25C226.49 113.897 228.407 113.843 230.46 114.09C230.8 114.13 230.997 114.323 231.05 114.67L231.12 115.24C231.193 115.767 231.433 115.857 231.84 115.51C236.42 111.62 243.25 113.26 243.4 120.01C243.46 122.997 243.447 126.033 243.36 129.12C243.347 129.56 243.56 129.783 244 129.79L245.13 129.82C245.663 129.833 245.94 130.107 245.96 130.64L246.02 132C246.047 132.54 245.79 132.81 245.25 132.81L237.02 132.8C236.918 132.8 236.816 132.78 236.722 132.74C236.628 132.7 236.543 132.642 236.472 132.57C236.401 132.497 236.345 132.41 236.309 132.316C236.273 132.222 236.256 132.121 236.26 132.02L236.32 130.49C236.34 130.057 236.57 129.83 237.01 129.81L238 129.77C238.34 129.757 238.51 129.583 238.51 129.25L238.5 119.52C238.5 117.76 237.62 116.86 235.86 116.82C235.633 116.813 235.407 116.82 235.18 116.84C234.223 116.907 233.325 117.332 232.664 118.029C232.004 118.727 231.627 119.648 231.61 120.61L231.49 129C231.487 129.139 231.537 129.274 231.632 129.379C231.726 129.485 231.857 129.553 232 129.57L233.13 129.7C233.53 129.747 233.733 129.973 233.74 130.38L233.76 131.95C233.76 132.423 233.523 132.66 233.05 132.66L224.84 132.65C224.607 132.65 224.46 132.533 224.4 132.3C224.233 131.62 224.197 130.907 224.29 130.16C224.323 129.873 224.487 129.723 224.78 129.71L226.23 129.64C226.617 129.62 226.81 129.413 226.81 129.02L226.84 117.71C226.84 117.283 226.63 117.06 226.21 117.04L225.01 116.98C224.55 116.96 224.303 116.72 224.27 116.26L224.22 115.54C224.18 115.04 224.087 115.03 223.94 115.51C223.753 116.13 223.697 116.75 223.77 117.37C223.782 117.46 223.77 117.552 223.735 117.636C223.701 117.72 223.645 117.793 223.573 117.849C223.501 117.904 223.416 117.94 223.326 117.953C223.236 117.965 223.144 117.954 223.06 117.92C220.3 116.84 217.84 118.63 217.73 121.57C217.63 124.063 217.59 126.483 217.61 128.83C217.617 129.257 217.837 129.47 218.27 129.47H219.76C220.287 129.47 220.55 129.733 220.55 130.26L220.56 131.71C220.56 132.217 220.303 132.47 219.79 132.47L211.13 132.48C210.73 132.48 210.5 132.28 210.44 131.88L210.25 130.55C210.15 129.823 210.467 129.463 211.2 129.47L212.23 129.48C212.418 129.48 212.599 129.405 212.732 129.272C212.865 129.139 212.94 128.958 212.94 128.77L212.95 117.6C212.95 117.2 212.75 117.003 212.35 117.01L211.19 117.02C210.757 117.027 210.497 116.817 210.41 116.39C210.297 115.797 210.293 115.217 210.4 114.65C210.48 114.217 210.743 114 211.19 114H216.54C216.893 114 217.073 114.18 217.08 114.54V115.82C217.087 116.527 217.3 116.593 217.72 116.02Z" fill="#040707"/>
<path d="M243.77 162.52L243.76 153.01C243.753 151.263 242.877 150.367 241.13 150.32C240.903 150.313 240.677 150.317 240.45 150.33C239.495 150.4 238.601 150.826 237.944 151.523C237.287 152.221 236.915 153.14 236.9 154.1L236.77 162.52C236.763 162.867 236.933 163.057 237.28 163.09L238.29 163.2C238.797 163.253 239.043 163.533 239.03 164.04L239 165.46C238.993 165.927 238.757 166.16 238.29 166.16L230.52 166.15C229.76 166.15 229.36 165.773 229.32 165.02L229.28 164.31C229.272 164.152 229.296 163.994 229.351 163.847C229.405 163.699 229.49 163.564 229.599 163.45C229.708 163.337 229.838 163.247 229.983 163.187C230.128 163.126 230.283 163.097 230.44 163.1L231.7 163.12C232.093 163.127 232.29 162.937 232.29 162.55V142.36C232.29 141.913 232.063 141.693 231.61 141.7L230.57 141.73C230.163 141.737 229.917 141.54 229.83 141.14C229.657 140.393 229.67 139.68 229.87 139C229.937 138.793 230.077 138.69 230.29 138.69L236.48 138.7C236.62 138.7 236.755 138.756 236.855 138.855C236.954 138.955 237.01 139.089 237.01 139.23V147.98C237.01 148.447 237.2 148.543 237.58 148.27C242.26 144.95 248.57 146.99 248.67 153.37C248.717 156.457 248.717 159.503 248.67 162.51C248.663 162.93 248.87 163.13 249.29 163.11L250.27 163.07C250.399 163.063 250.529 163.083 250.65 163.128C250.771 163.172 250.882 163.242 250.975 163.331C251.068 163.42 251.141 163.527 251.19 163.646C251.239 163.765 251.263 163.892 251.26 164.02L251.23 165.48C251.225 165.665 251.148 165.84 251.015 165.969C250.882 166.098 250.705 166.17 250.52 166.17L242.46 166.15C242.279 166.149 242.104 166.089 241.961 165.979C241.819 165.869 241.716 165.714 241.67 165.54C241.543 165.033 241.503 164.547 241.55 164.08C241.59 163.62 241.823 163.313 242.25 163.16C242.523 163.06 242.787 163.04 243.04 163.1C243.527 163.207 243.77 163.013 243.77 162.52Z" fill="#040707"/>
<path d="M157.76 157.72L161.95 140.14C162.063 139.667 162.363 139.43 162.85 139.43L166.79 139.45C167.197 139.45 167.443 139.647 167.53 140.04L171.69 158.25C171.83 158.87 171.983 158.874 172.15 158.26L176.04 143.51C176.167 143.037 175.987 142.797 175.5 142.79L173.92 142.78C173.52 142.774 173.343 142.57 173.39 142.17L173.6 140.21C173.622 139.998 173.722 139.802 173.879 139.66C174.036 139.518 174.239 139.439 174.45 139.44H182.47C182.99 139.44 183.25 139.7 183.25 140.22L183.27 142.23C183.277 142.737 183.027 142.994 182.52 143L181.13 143.01C180.877 143.01 180.717 143.134 180.65 143.38L174.69 165.99C174.597 166.337 174.37 166.51 174.01 166.51H169.9C169.487 166.51 169.233 166.31 169.14 165.91L165.06 148.26C164.86 147.407 164.66 147.404 164.46 148.25L160.23 165.86C160.123 166.294 159.843 166.51 159.39 166.51H155.43C154.99 166.51 154.713 166.294 154.6 165.86L148.69 143.43C148.623 143.164 148.45 143.024 148.17 143.01L146.78 142.96C146.664 142.957 146.55 142.929 146.445 142.88C146.339 142.83 146.246 142.76 146.169 142.673C146.092 142.586 146.034 142.484 145.998 142.373C145.962 142.263 145.949 142.146 145.96 142.03L146.14 140C146.173 139.634 146.377 139.45 146.75 139.45L155.52 139.44C155.741 139.44 155.953 139.527 156.111 139.683C156.268 139.838 156.357 140.049 156.36 140.27L156.37 141.99C156.37 142.101 156.348 142.21 156.304 142.312C156.261 142.415 156.197 142.507 156.117 142.584C156.037 142.662 155.942 142.722 155.838 142.763C155.734 142.803 155.622 142.823 155.51 142.82L154.01 142.79C153.517 142.777 153.33 143.01 153.45 143.49L157.06 157.73C157.3 158.677 157.533 158.674 157.76 157.72Z" fill="#040707"/>
<path d="M206.51 151.05C206.517 154.33 206.52 157.63 206.52 160.95C206.52 163.68 208.9 163.36 210.68 162.59C211.06 162.423 211.25 162.55 211.25 162.97L211.24 165.09C211.24 165.517 211.037 165.797 210.63 165.93C204.86 167.84 201.79 165.53 201.8 159.51C201.8 156.663 201.807 153.843 201.82 151.05C201.82 150.976 201.806 150.902 201.777 150.833C201.749 150.765 201.708 150.702 201.655 150.65C201.603 150.598 201.541 150.557 201.474 150.53C201.406 150.502 201.333 150.489 201.26 150.49L199.89 150.52C199.463 150.527 199.227 150.317 199.18 149.89L198.99 148.25C198.937 147.83 199.117 147.567 199.53 147.46C200.023 147.327 200.523 147.28 201.03 147.32C201.45 147.347 201.657 147.153 201.65 146.74L201.63 143.26C201.63 143.178 201.653 143.098 201.695 143.029C201.738 142.961 201.798 142.905 201.87 142.87L206.26 140.68C206.287 140.666 206.318 140.66 206.348 140.661C206.379 140.663 206.408 140.672 206.434 140.688C206.46 140.704 206.482 140.726 206.497 140.753C206.512 140.779 206.52 140.809 206.52 140.84V146.78C206.52 146.918 206.574 147.05 206.669 147.148C206.765 147.245 206.895 147.3 207.03 147.3H209.5C210.307 147.3 210.677 147.7 210.61 148.5L210.5 149.67C210.453 150.237 210.147 150.517 209.58 150.51H207.05C206.69 150.51 206.51 150.69 206.51 151.05Z" fill="#040707"/>
<path d="M224.88 147.79C225.587 146.917 226.547 146.7 227.76 147.14C228.147 147.28 228.34 147.56 228.34 147.98L228.36 154.19C228.36 154.977 227.967 155.35 227.18 155.31L225.34 155.23C225.244 155.224 225.149 155.198 225.064 155.154C224.978 155.109 224.903 155.048 224.842 154.972C224.782 154.897 224.738 154.81 224.714 154.716C224.689 154.623 224.684 154.525 224.7 154.43C225.52 149.86 219.2 148.2 217.59 152.2C216.563 154.753 216.393 156.97 217.08 158.85C218.867 163.703 222.517 164.283 228.03 160.59C228.283 160.423 228.407 160.487 228.4 160.78L228.32 164.52C228.32 164.602 228.297 164.681 228.255 164.75C228.212 164.819 228.152 164.874 228.08 164.91C222.38 167.78 214.23 167.09 212.44 159.97C210.7 153.05 214.56 144.87 222.85 146.92C223.29 147.033 223.653 147.263 223.94 147.61C223.973 147.65 224.007 147.697 224.04 147.75C224.287 148.17 224.567 148.183 224.88 147.79Z" fill="#040707"/>
<path d="M192.44 153.49C192.19 148.23 185.33 150.65 182.56 152.44C182.531 152.46 182.497 152.472 182.462 152.475C182.427 152.477 182.392 152.469 182.36 152.453C182.329 152.436 182.303 152.411 182.286 152.381C182.268 152.35 182.259 152.315 182.26 152.28L182.24 149.22C182.24 149.02 182.327 148.873 182.5 148.78C187.53 145.97 197.27 145.04 197.46 153.24C197.527 156.22 197.527 159.193 197.46 162.16C197.447 162.673 197.7 162.937 198.22 162.95L199.26 162.98C199.567 162.993 199.75 163.153 199.81 163.46C199.943 164.153 199.957 164.807 199.85 165.42C199.79 165.78 199.573 165.963 199.2 165.97L194 165.98C193.727 165.98 193.45 165.847 193.17 165.58C193.083 165.493 193.023 165.393 192.99 165.28C192.823 164.727 192.53 164.647 192.11 165.04C189.59 167.43 183.99 167.33 181.64 164.31C179.53 161.59 180.06 157.21 183.42 155.67C186.1 154.45 189 154.41 191.87 154.15C192.27 154.11 192.46 153.89 192.44 153.49ZM189.78 163.21C192.013 162.33 192.883 160.533 192.39 157.82C192.33 157.5 192.14 157.347 191.82 157.36C190.26 157.433 188.757 157.623 187.31 157.93C183.42 158.76 184.81 165.18 189.78 163.21Z" fill="#040707"/>
<path d="M244.33 198.21C242.65 200.137 240.45 200.777 237.73 200.13C234.583 199.383 232.64 197.17 231.9 193.49C230.82 188.17 232.43 181.85 238.27 180.62C240.77 180.087 242.847 180.61 244.5 182.19C244.535 182.226 244.58 182.251 244.629 182.261C244.679 182.272 244.73 182.267 244.777 182.247C244.823 182.228 244.863 182.195 244.89 182.152C244.917 182.11 244.931 182.06 244.93 182.01V175.56C244.93 175.353 244.83 175.233 244.63 175.2C244.237 175.133 243.843 175.14 243.45 175.22C243.351 175.238 243.249 175.236 243.151 175.213C243.052 175.189 242.96 175.145 242.88 175.084C242.8 175.023 242.734 174.945 242.685 174.857C242.637 174.768 242.608 174.67 242.6 174.57L242.47 173.01C242.423 172.45 242.68 172.17 243.24 172.17H249.22C249.368 172.17 249.511 172.229 249.616 172.334C249.721 172.439 249.78 172.581 249.78 172.73V196.17C249.78 196.597 249.993 196.807 250.42 196.8L251.47 196.78C251.589 196.781 251.704 196.815 251.8 196.879C251.896 196.944 251.969 197.034 252.01 197.14C252.297 197.887 252.313 198.633 252.06 199.38C252.02 199.502 251.942 199.609 251.838 199.684C251.734 199.759 251.609 199.8 251.48 199.8L245.98 199.79C245.593 199.79 245.36 199.6 245.28 199.22L245.11 198.42C244.983 197.833 244.723 197.763 244.33 198.21ZM240.253 196.978C240.833 196.992 241.412 196.84 241.956 196.531C242.5 196.221 242.999 195.761 243.423 195.175C243.848 194.589 244.191 193.889 244.432 193.116C244.673 192.343 244.808 191.511 244.829 190.668C244.87 188.966 244.445 187.322 243.645 186.098C242.846 184.874 241.739 184.17 240.567 184.142C239.987 184.128 239.408 184.28 238.864 184.589C238.32 184.898 237.821 185.359 237.396 185.945C236.971 186.531 236.629 187.231 236.388 188.004C236.146 188.777 236.012 189.609 235.991 190.452C235.95 192.154 236.375 193.798 237.174 195.022C237.974 196.246 239.081 196.949 240.253 196.978Z" fill="#040707"/>
<path d="M288.18 178.23C289.771 178.23 291.06 176.941 291.06 175.35C291.06 173.759 289.771 172.47 288.18 172.47C286.589 172.47 285.3 173.759 285.3 175.35C285.3 176.941 286.589 178.23 288.18 178.23Z" fill="#040707"/>
<path d="M155.08 187.77C154.647 187.77 154.43 187.987 154.43 188.42V195.35C154.43 195.79 154.653 196.013 155.1 196.02L156.88 196.04C157.273 196.04 157.467 196.237 157.46 196.63L157.4 198.97C157.387 199.517 157.103 199.79 156.55 199.79H147.45C147.341 199.79 147.233 199.768 147.133 199.726C147.033 199.683 146.942 199.621 146.866 199.542C146.791 199.464 146.732 199.371 146.693 199.269C146.654 199.167 146.636 199.059 146.64 198.95L146.68 197.44C146.686 197.264 146.751 197.095 146.863 196.96C146.975 196.824 147.129 196.729 147.3 196.69L148.85 196.31C149.203 196.23 149.383 196.01 149.39 195.65L149.55 177C149.55 176.64 149.367 176.463 149 176.47L147.58 176.51C147.253 176.523 147.047 176.37 146.96 176.05C146.727 175.19 146.717 174.313 146.93 173.42C147.003 173.087 147.213 172.92 147.56 172.92L166.58 172.93C167.007 172.93 167.22 173.143 167.22 173.57V180.81C167.227 181.343 166.963 181.59 166.43 181.55L164.04 181.39C163.507 181.357 163.24 181.073 163.24 180.54L163.25 177.23C163.25 176.883 163.077 176.71 162.73 176.71L154.76 176.68C154.679 176.68 154.602 176.711 154.544 176.767C154.486 176.823 154.453 176.899 154.45 176.98L154.39 183.65C154.39 183.883 154.507 184 154.74 184H163C163.265 184 163.52 184.105 163.707 184.293C163.895 184.48 164 184.735 164 185L163.99 187.01C163.99 187.51 163.74 187.76 163.24 187.76L155.08 187.77Z" fill="#040707"/>
<path d="M278.76 184.5L278.78 195C278.78 195.212 278.827 195.421 278.917 195.611C279.007 195.802 279.138 195.969 279.3 196.1C280.14 196.773 281.343 196.76 282.91 196.06C282.983 196.03 283.063 196.018 283.141 196.028C283.22 196.037 283.294 196.067 283.357 196.113C283.42 196.16 283.469 196.222 283.5 196.294C283.53 196.365 283.54 196.443 283.53 196.52L283.21 198.76C283.186 198.928 283.114 199.087 283.003 199.218C282.891 199.348 282.745 199.446 282.58 199.5C276.96 201.34 274.04 198.8 274.05 193.07C274.05 190.183 274.053 187.343 274.06 184.55C274.06 184.183 273.877 184 273.51 184L272.02 184.01C271.747 184.01 271.573 183.877 271.5 183.61C271.293 182.87 271.24 182.13 271.34 181.39C271.362 181.224 271.443 181.07 271.57 180.958C271.696 180.846 271.86 180.783 272.03 180.78H273.45C273.763 180.78 273.92 180.62 273.92 180.3L273.89 177.24C273.889 177.004 273.956 176.772 274.082 176.572C274.207 176.372 274.387 176.212 274.6 176.11L277.96 174.46C278.507 174.193 278.777 174.36 278.77 174.96V180.28C278.763 180.627 278.933 180.8 279.28 180.8L281.8 180.79C282.487 180.783 282.82 181.12 282.8 181.8L282.77 183.25C282.765 183.453 282.681 183.647 282.537 183.789C282.394 183.931 282.201 184.01 282 184.01H279.25C278.923 184.01 278.76 184.173 278.76 184.5Z" fill="#040707"/>
<path d="M176.665 200.267C174.102 200.33 171.617 199.331 169.758 197.491C167.899 195.651 166.818 193.121 166.753 190.456C166.721 189.137 166.939 187.824 167.395 186.593C167.851 185.363 168.536 184.238 169.411 183.283C170.286 182.328 171.333 181.562 172.494 181.028C173.654 180.495 174.905 180.204 176.174 180.173C178.738 180.11 181.223 181.109 183.082 182.949C184.941 184.788 186.022 187.319 186.087 189.984C186.119 191.303 185.901 192.616 185.445 193.846C184.989 195.077 184.304 196.202 183.429 197.157C182.554 198.112 181.507 198.878 180.346 199.412C179.186 199.945 177.935 200.236 176.665 200.267ZM176.544 196.949C177.139 196.939 177.725 196.759 178.269 196.42C178.813 196.081 179.304 195.59 179.714 194.975C180.123 194.359 180.445 193.632 180.658 192.833C180.872 192.035 180.974 191.181 180.959 190.321C180.929 188.584 180.423 186.927 179.552 185.713C178.681 184.5 177.517 183.83 176.316 183.851C175.721 183.861 175.135 184.041 174.591 184.38C174.047 184.718 173.556 185.21 173.146 185.825C172.736 186.44 172.415 187.168 172.202 187.967C171.988 188.765 171.886 189.619 171.901 190.479C171.931 192.216 172.437 193.873 173.308 195.087C174.179 196.3 175.343 196.97 176.544 196.949Z" fill="#040707"/>
<path d="M270.45 196.45L271.02 196.38C271.527 196.313 271.863 196.523 272.03 197.01C272.257 197.663 272.25 198.31 272.01 198.95C271.883 199.297 271.637 199.47 271.27 199.47L266.54 199.46C266.267 199.46 266.007 199.403 265.76 199.29C265.507 199.183 265.38 199.037 265.38 198.85C265.387 198.31 265.157 198.18 264.69 198.46C261.443 200.467 258.453 200.743 255.72 199.29C253.327 198.023 252.34 195.937 252.76 193.03C253.48 188.06 259.86 188.01 263.54 187.71C264.42 187.637 264.757 187.17 264.55 186.31L264.4 185.69C264.285 185.222 264.029 184.8 263.665 184.484C263.302 184.167 262.85 183.97 262.37 183.92C259.543 183.62 256.97 184.35 254.65 186.11C254.645 186.116 254.638 186.119 254.63 186.12C254.622 186.121 254.615 186.12 254.607 186.115C254.6 186.111 254.593 186.105 254.589 186.097C254.584 186.089 254.581 186.079 254.58 186.07C254.513 185.023 254.477 183.913 254.47 182.74C254.47 182.533 254.56 182.377 254.74 182.27C260.02 179.31 269.77 178.54 269.75 187.26C269.737 190.053 269.74 192.917 269.76 195.85C269.767 196.31 269.997 196.51 270.45 196.45ZM257.32 194.39C257.35 198.79 265.8 197.74 264.65 191.25C264.59 190.917 264.393 190.767 264.06 190.8C261.7 191.05 257.3 190.8 257.32 194.39Z" fill="#040707"/>
<path d="M304.356 200.269C303.084 200.291 301.821 200.053 300.638 199.568C299.455 199.084 298.375 198.362 297.46 197.445C296.545 196.527 295.813 195.432 295.305 194.222C294.798 193.011 294.525 191.709 294.502 190.389C294.455 187.724 295.43 185.15 297.212 183.234C298.995 181.318 301.438 180.216 304.005 180.172C305.276 180.149 306.539 180.387 307.722 180.872C308.905 181.356 309.985 182.078 310.9 182.995C311.815 183.913 312.547 185.008 313.055 186.219C313.562 187.429 313.836 188.732 313.859 190.051C313.905 192.716 312.93 195.29 311.148 197.206C309.366 199.122 306.922 200.224 304.356 200.269ZM304.294 196.949C304.889 196.939 305.475 196.759 306.019 196.42C306.563 196.082 307.054 195.59 307.464 194.975C307.874 194.36 308.195 193.632 308.408 192.833C308.622 192.035 308.724 191.181 308.709 190.321C308.679 188.584 308.173 186.927 307.302 185.713C306.431 184.5 305.267 183.83 304.066 183.851C303.471 183.861 302.885 184.041 302.341 184.38C301.797 184.719 301.307 185.21 300.897 185.825C300.487 186.441 300.166 187.168 299.952 187.967C299.738 188.766 299.636 189.619 299.651 190.479C299.681 192.216 300.187 193.873 301.058 195.087C301.929 196.3 303.093 196.97 304.294 196.949Z" fill="#040707"/>
<path d="M208.61 198C208.65 197.813 208.7 197.623 208.76 197.43C208.907 196.977 209.217 196.757 209.69 196.77L210.81 196.8C210.891 196.801 210.971 196.787 211.046 196.757C211.122 196.726 211.19 196.682 211.248 196.625C211.305 196.568 211.351 196.501 211.383 196.426C211.414 196.351 211.43 196.271 211.43 196.19L211.45 184.6C211.45 184.443 211.387 184.292 211.275 184.179C211.162 184.067 211.01 184.003 210.85 184H209.63C209.29 184 209.073 183.833 208.98 183.5C208.82 182.947 208.77 182.36 208.83 181.74C208.877 181.253 209.143 181.01 209.63 181.01C211.403 180.99 213.1 180.99 214.72 181.01C215.58 181.023 215.9 181.443 215.68 182.27C215.493 183.003 215.68 183.113 216.24 182.6C220.78 178.44 227.88 180.26 227.98 187.18C228.02 190.227 228.017 193.213 227.97 196.14C227.963 196.62 228.203 196.85 228.69 196.83L229.73 196.79C230.21 196.763 230.463 196.993 230.49 197.48L230.59 198.95C230.597 199.058 230.581 199.166 230.545 199.268C230.508 199.369 230.451 199.463 230.377 199.541C230.303 199.62 230.213 199.683 230.114 199.726C230.015 199.768 229.908 199.79 229.8 199.79L221.56 199.8C221.333 199.8 221.177 199.693 221.09 199.48C220.843 198.827 220.787 198.117 220.92 197.35C220.987 196.977 221.207 196.79 221.58 196.79H222.51C222.877 196.79 223.06 196.607 223.06 196.24L223.04 186.52C223.04 184.847 222.2 184.01 220.52 184.01H220C219.002 184.007 218.043 184.399 217.331 185.099C216.62 185.799 216.213 186.752 216.2 187.75L216.08 196.31C216.08 196.63 216.24 196.79 216.56 196.79L217.53 196.78C218.03 196.78 218.28 197.03 218.28 197.53V199.13C218.28 199.57 218.06 199.79 217.62 199.79L209.63 199.81C209.277 199.81 209.017 199.657 208.85 199.35C208.803 199.263 208.767 199.177 208.74 199.09C208.54 198.43 208.39 198.44 208.29 199.12C208.277 199.213 208.247 199.3 208.2 199.38C208.047 199.667 207.807 199.81 207.48 199.81L202.26 199.78C201.747 199.78 201.5 199.523 201.52 199.01L201.54 198.47C201.56 197.877 201.353 197.787 200.92 198.2C196.45 202.55 189.31 200.45 189.24 193.57C189.213 190.51 189.213 187.553 189.24 184.7C189.247 184.24 189.02 184.01 188.56 184.01L187.51 184C187.223 184 187.04 183.86 186.96 183.58C186.773 182.867 186.757 182.163 186.91 181.47C186.977 181.157 187.17 181 187.49 181H193.42C193.867 181 194.09 181.223 194.09 181.67L194.12 194.21C194.12 195.937 194.983 196.797 196.71 196.79H197.46C198.386 196.788 199.274 196.42 199.932 195.767C200.59 195.115 200.967 194.229 200.98 193.3L201.09 184.67C201.097 184.223 200.873 184 200.42 184L199.27 184.01C198.777 184.01 198.527 183.763 198.52 183.27L198.49 181.76C198.483 181.253 198.733 181 199.24 181H205.26C205.6 181 205.77 181.17 205.77 181.51V196.3C205.77 196.368 205.784 196.436 205.811 196.499C205.838 196.561 205.877 196.618 205.927 196.665C205.976 196.712 206.035 196.748 206.099 196.771C206.163 196.794 206.232 196.804 206.3 196.8L207.33 196.76C207.505 196.751 207.678 196.794 207.828 196.883C207.977 196.972 208.096 197.103 208.17 197.26C208.277 197.48 208.333 197.72 208.34 197.98C208.373 198.707 208.463 198.713 208.61 198Z" fill="#040707"/>
<path d="M322.03 182.72C326.36 178.88 333.54 179.81 333.84 186.52C333.98 189.64 333.987 192.85 333.86 196.15C333.847 196.597 334.063 196.817 334.51 196.81L335.65 196.79C336.137 196.783 336.397 197.027 336.43 197.52L336.52 198.98C336.553 199.513 336.303 199.783 335.77 199.79L327.55 199.8C327.23 199.807 327.027 199.653 326.94 199.34C326.727 198.6 326.72 197.897 326.92 197.23C327.013 196.923 327.22 196.773 327.54 196.78L328.47 196.8C328.823 196.807 329 196.633 329 196.28V186.99C329 184.723 327.873 183.73 325.62 184.01C325.347 184.043 325.083 184.103 324.83 184.19C323.317 184.743 322.467 185.82 322.28 187.42C321.98 190.013 321.907 192.943 322.06 196.21C322.08 196.603 322.287 196.797 322.68 196.79L323.41 196.78C323.817 196.773 324.063 196.97 324.15 197.37C324.283 197.957 324.297 198.563 324.19 199.19C324.123 199.597 323.887 199.8 323.48 199.8L315.46 199.79C315.261 199.791 315.069 199.721 314.915 199.593C314.762 199.465 314.657 199.287 314.62 199.09C314.507 198.497 314.523 197.89 314.67 197.27C314.7 197.129 314.779 197.003 314.892 196.913C315.005 196.824 315.146 196.777 315.29 196.78L316.76 196.79C317.127 196.797 317.31 196.613 317.31 196.24L317.32 184.54C317.327 184.18 317.15 184 316.79 184L315.63 184.01C315.422 184.01 315.222 183.93 315.071 183.787C314.92 183.644 314.83 183.448 314.82 183.24L314.75 181.77C314.73 181.257 314.977 181 315.49 181H320.86C321.44 181 321.687 181.287 321.6 181.86L321.52 182.44C321.44 183 321.61 183.093 322.03 182.72Z" fill="#040707"/>
<path d="M285.64 184.01L284.52 184C284.233 184 284.06 183.857 284 183.57C283.847 182.857 283.837 182.153 283.97 181.46C284.023 181.153 284.203 181 284.51 181H290.5C290.833 181 291 181.167 291 181.5V196.3C291 196.673 291.187 196.853 291.56 196.84L292.55 196.79C292.97 196.777 293.227 196.973 293.32 197.38C293.453 198.007 293.46 198.633 293.34 199.26C293.312 199.412 293.232 199.549 293.113 199.648C292.994 199.746 292.844 199.8 292.69 199.8L284.46 199.79C283.9 199.79 283.637 199.51 283.67 198.95L283.77 197.4C283.79 197.04 283.98 196.853 284.34 196.84L285.76 196.79C286.1 196.77 286.27 196.587 286.27 196.24V184.64C286.27 184.22 286.06 184.01 285.64 184.01Z" fill="#040707"/>
</svg>
