<svg width="300" height="300" viewBox="0 0 300 300" fill="none" xmlns="http://www.w3.org/2000/svg">
<path d="M138.958 187.197C118.988 187.372 99.7662 179.575 85.5219 165.521C71.2777 151.468 63.1773 132.309 63.0029 112.259C62.9165 102.332 64.7786 92.4842 68.4828 83.2792C72.1871 74.0742 77.6609 65.6919 84.5918 58.6108C91.5227 51.5298 99.775 45.8887 108.877 42.0096C117.98 38.1305 127.754 36.0894 137.642 36.0029C157.612 35.8281 176.834 43.6251 191.078 57.6787C205.322 71.7323 213.423 90.8912 213.597 110.941C213.683 120.868 211.821 130.716 208.117 139.921C204.413 149.126 198.939 157.508 192.008 164.589C185.077 171.67 176.825 177.311 167.723 181.19C158.62 185.069 148.846 187.111 138.958 187.197ZM196.9 111.583C196.9 95.9919 190.726 81.0392 179.735 70.0145C168.744 58.9899 153.838 52.7963 138.294 52.7963C122.751 52.7963 107.845 58.9899 96.8538 70.0145C85.8631 81.0392 79.6885 95.9919 79.6885 111.583C79.6885 127.174 85.8631 142.127 96.8538 153.152C107.845 164.176 122.751 170.37 138.294 170.37C153.838 170.37 168.744 164.176 179.735 153.152C190.726 142.127 196.9 127.174 196.9 111.583Z" fill="#55BB00"/>
<path d="M138.879 122.808C139.501 121.457 139.683 119.832 139.426 117.933C139.259 116.68 139.648 116.466 140.593 117.293C144.792 120.957 147.746 125.402 148.561 131.076C149.414 137.041 147.981 142.548 144.262 147.6C143.302 148.906 142.365 149.87 141.453 150.493C139.019 152.169 136.473 154.055 133.513 154.757C129.828 155.633 126.102 155.614 122.335 154.7C121.11 154.402 119.997 153.93 118.996 153.285C117.477 152.305 115.735 151.484 114.428 150.284C113.196 149.147 111.919 147.641 110.598 145.765C106.829 140.402 106.683 132.775 108.649 126.676C109.308 124.638 110.229 122.701 111.787 121.217C113.484 119.609 114.523 117.82 116.628 116.625C117.897 115.904 119.146 115.241 120.375 114.637C120.435 114.607 120.501 114.595 120.568 114.602C120.634 114.609 120.697 114.634 120.75 114.675C120.803 114.717 120.844 114.772 120.867 114.835C120.89 114.899 120.896 114.967 120.883 115.034C120.559 116.71 119.973 118.346 120.185 120.102C120.687 124.303 122.887 127.137 126.785 128.601C129.056 129.458 131.481 129.326 134.06 128.205C136.16 127.299 137.969 124.796 138.879 122.808ZM116.891 131.692C118.133 131.626 119.298 131.038 120.128 130.057C120.958 129.076 121.386 127.782 121.318 126.461C121.284 125.807 121.129 125.165 120.862 124.574C120.596 123.982 120.222 123.451 119.764 123.011C119.305 122.572 118.769 122.232 118.188 122.012C117.607 121.792 116.991 121.695 116.376 121.728C115.134 121.794 113.97 122.382 113.14 123.363C112.309 124.344 111.881 125.638 111.95 126.959C111.983 127.613 112.138 128.255 112.405 128.847C112.671 129.438 113.045 129.969 113.504 130.409C113.962 130.848 114.498 131.188 115.079 131.408C115.66 131.628 116.276 131.725 116.891 131.692Z" fill="#085191"/>
<path d="M98.0618 202.011C94.9922 200.466 92.0689 199.269 89.0049 197.421C85.0396 195.028 82.3617 193.322 80.9712 192.304C75.1695 188.046 70.6551 184.063 66.107 179.299C64.7652 177.895 63.6408 176.605 62.7338 175.429C61.2946 173.564 59.58 171.839 58.3207 169.895C57.2225 168.21 56.0607 166.476 54.8351 164.694C53.3284 162.51 51.8105 159.774 50.2814 156.486C49.9047 155.677 49.3256 154.925 48.7185 154.279C48.6719 154.23 48.6375 154.171 48.6181 154.106C48.5987 154.042 48.5949 153.974 48.607 153.907C48.6191 153.841 48.6466 153.778 48.6875 153.725C48.7284 153.671 48.7814 153.628 48.8422 153.599C50.1802 152.959 51.4563 152.166 52.8449 151.683C55.5884 150.728 58.2045 149.783 60.6931 148.846C60.8368 148.792 60.9937 148.785 61.1412 148.826C61.2887 148.866 61.4192 148.952 61.5139 149.071C62.8632 150.756 63.549 152.689 64.6509 154.464C67.2426 158.638 69.9636 163.137 73.3086 166.665C74.6747 168.103 75.7935 169.749 77.2046 171.137C83.4636 177.29 90.2717 182.421 97.6289 186.529C101.064 188.444 104.774 189.753 108.355 191.399C109.708 192.021 111.215 192.577 112.875 193.068C130.195 198.191 147.746 198.032 165.53 192.59C167.483 191.995 169.284 191.223 170.933 190.276C171.81 189.776 172.867 190.147 173.294 191.057C174.887 194.494 176.695 197.886 178.719 201.23C178.793 201.353 178.818 201.5 178.787 201.641C178.757 201.782 178.674 201.906 178.556 201.988C177.979 202.385 177.407 202.696 176.841 202.921C171.958 204.857 168.652 206.018 166.924 206.404C164.571 206.924 162.243 207.508 159.942 208.156C156.676 209.078 153.55 209.667 150.295 210.01C144.527 210.617 138.318 210.755 131.669 210.426C127.97 210.242 124.365 209.797 120.853 209.089C114.538 207.816 108.354 206.083 102.301 203.893C101.139 203.473 99.7259 202.846 98.0618 202.011Z" fill="#9AC200"/>
<path d="M98.7624 229.265C92.3306 227.336 86.3198 224.395 80.4268 221.426C78.9152 220.665 77.3774 219.79 75.8134 218.8C73.7369 217.485 71.5817 216.394 69.6062 214.932C66.7214 212.795 63.7805 210.95 60.9575 208.538C58.185 206.165 55.1712 204.045 52.7635 201.29C51.1639 199.445 49.2445 197.967 47.5552 196.077C42.6836 190.63 38.3546 185.046 34.5682 179.326C32.9256 176.84 31.4252 174.312 30.067 171.74C28.7014 169.15 27.3301 166.576 25.9532 164.019C25.8656 163.857 25.8142 163.678 25.8024 163.494C25.7906 163.31 25.8188 163.126 25.8849 162.953C25.9511 162.781 26.0536 162.626 26.1855 162.497C26.3175 162.369 26.4756 162.27 26.6491 162.209C31.2774 160.563 35.902 158.719 40.5229 156.676C40.6296 156.628 40.7447 156.603 40.8614 156.6C40.9782 156.598 41.0944 156.619 41.2034 156.662C41.3123 156.704 41.4119 156.768 41.4964 156.85C41.581 156.931 41.6487 157.029 41.6959 157.137C42.2459 158.411 42.9044 159.658 43.6714 160.876C45.125 163.198 46.3429 165.588 47.7011 167.961C49.1828 170.548 50.9731 172.752 52.64 175.193C53.5567 176.538 54.5669 177.867 55.6707 179.179C59.4945 183.719 63.7749 188.148 68.5118 192.467C70.3302 194.12 72.2833 195.487 74.1185 197.067C76.3691 199.007 78.8553 200.227 81.2013 201.942C83.2592 203.453 85.4648 204.767 87.8183 205.884C91.1689 207.481 94.2837 209.365 97.7017 210.658C100.426 211.689 103.303 212.714 106.333 213.734C117.261 217.406 128.502 218.778 140.85 218.592C148.696 218.472 155.934 217.633 162.564 216.073C168.446 214.69 174.355 212.547 179.934 210.461C180.622 210.206 181.337 209.88 182.078 209.483C182.207 209.415 182.354 209.392 182.498 209.418C182.641 209.443 182.772 209.515 182.869 209.623C183.498 210.317 184.052 211.093 184.531 211.951C185.994 214.564 187.273 217.042 188.369 219.385C189.015 220.774 189.947 221.949 190.654 223.276C190.934 223.801 190.811 224.204 190.283 224.485C187.965 225.7 185.591 226.83 183.071 227.691C176.836 229.816 172.419 231.408 167.222 232.645C164.04 233.404 160.88 233.775 157.659 234.382C156.207 234.656 154.72 234.871 153.197 235.029C144.284 235.936 135.624 236.043 127.217 235.349C125.028 235.169 122.851 234.905 120.684 234.557C118.514 234.204 116.305 233.829 114.056 233.432C109.001 232.543 105.675 231.773 104.077 231.121C102.442 230.457 100.671 229.839 98.7624 229.265Z" fill="#327900"/>
<path d="M273.005 264.486L193.289 174.319C193.259 174.286 193.235 174.248 193.22 174.206C193.205 174.164 193.198 174.119 193.201 174.075C193.203 174.03 193.213 173.987 193.232 173.946C193.251 173.906 193.278 173.87 193.311 173.84L209.031 159.686C209.088 159.635 209.161 159.605 209.237 159.601C209.314 159.596 209.39 159.619 209.452 159.664L273.46 206.743C273.503 206.774 273.538 206.815 273.562 206.862C273.586 206.909 273.6 206.961 273.6 207.014L273.595 264.26C273.595 264.329 273.574 264.396 273.536 264.453C273.497 264.51 273.442 264.553 273.377 264.578C273.313 264.602 273.243 264.607 273.177 264.59C273.11 264.574 273.05 264.537 273.005 264.486Z" fill="#55BB00"/>
</svg>
