<svg xmlns="http://www.w3.org/2000/svg" version="1.1" xmlns:xlink="http://www.w3.org/1999/xlink" xmlns:svgjs="http://svgjs.com/svgjs" width="1024" height="1024"><svg width="1024" height="1024" viewBox="0 0 1024 1024" fill="none" xmlns="http://www.w3.org/2000/svg">
<path d="M143.188 610.86C145.22 608.751 147.281 606.653 149.351 604.582C236.324 517.605 356.393 463.746 488.818 463.746C497.884 463.746 506.894 464.058 515.827 464.55C517.642 464.654 519.419 464.824 521.235 464.956C524.193 465.145 527.124 465.486 530.083 465.741C378.335 536.438 286.352 652.098 245.361 780.729C197.508 734.849 161.707 676.489 143.188 610.86Z" fill="#1B459C"></path>
<path d="M870.503 610.105C845.263 700.334 787.35 776.902 710.351 826.299C671.298 764.905 602.656 724.092 524.665 724.092C524.495 724.092 524.324 724.111 524.135 724.111C524.031 724.111 523.908 724.092 523.795 724.092H446.352C534.44 623.473 663.622 559.725 807.552 559.725C809.226 559.725 810.889 559.829 812.563 559.848C832.292 573.584 851.852 590.497 870.503 610.105Z" fill="#C8202F"></path>
<path d="M832.591 509.296L820.632 509.107C681.523 491.05 522.222 545.656 420.558 652.808C367.675 708.549 326.77 761.217 293.938 828.17C313.431 762.436 344.561 699.01 388.426 641.208C467.249 537.309 573.337 464.04 679.481 440.15L680.351 439.961L681.221 440.188C737.195 455.229 774.47 468.994 822.75 502.471L832.591 509.296Z" fill="#02A9E0"></path>
<path d="M104.852 212.669L110.543 204.406L168.36 244.283L162.66 252.546L104.852 212.669Z" fill="#183D6A"></path>
<path d="M200.915 106.463L248.438 158.186L242.378 163.754L175.91 153.704L211.351 192.267L203.968 199.055L156.445 147.342L162.505 141.774L228.973 151.823L193.532 113.251L200.915 106.463Z" fill="#183D6A"></path>
<path d="M286.198 122.333L285.848 113.674C292.664 115.432 302.156 114.298 310.153 110.1C320.902 104.456 323.341 97.8571 320.495 92.4305C312.526 77.2379 279.874 106.602 267.754 83.487C262.715 73.8912 265.892 61.7996 282.246 53.2248C289.535 49.3959 298.109 47.3917 305.133 48.2426L305.927 56.893C298.686 56.269 291.719 57.8856 286.207 60.7785C275.638 66.328 273.436 73.1444 276.272 78.5709C284.241 93.7635 316.941 64.494 328.918 87.3348C333.91 96.8455 330.554 109.032 314.114 117.654C304.604 122.655 293.591 124.347 286.198 122.333Z" fill="#183D6A"></path>
<path d="M382.895 24.307L359.563 30.263L357.398 21.8017L413.694 7.43164L415.859 15.8835L392.528 21.8395L407.739 81.4374L398.115 83.8955L382.895 24.307Z" fill="#183D6A"></path>
<path d="M475.051 0.519969L485.072 0L488.692 70.1769L478.662 70.6969L475.051 0.519969Z" fill="#183D6A"></path>
<path d="M569.114 12.6317L545.281 9.15266L546.548 0.511719L604.035 8.8974L602.768 17.5383L578.936 14.0593L570.059 74.9241L560.227 73.487L569.114 12.6317Z" fill="#183D6A"></path>
<path d="M648.883 62.3497L664.311 25.498L673.566 29.3836L658.289 65.8571C652.277 80.1988 656.134 89.4354 667.799 94.3231C679.465 99.2108 688.843 95.5237 694.856 81.1726L710.132 44.6991L719.113 48.4618L703.676 85.304C695.801 104.098 681.375 109.695 664.254 102.52C647.229 95.3819 641.008 81.1442 648.883 62.3497Z" fill="#183D6A"></path>
<path d="M787.456 101.509L768.265 86.9503L773.54 79.9922L819.825 115.114L814.55 122.072L795.359 107.522L758.178 156.522L750.266 150.509L787.456 101.509Z" fill="#183D6A"></path>
<path d="M834.351 176.762C850.526 164.056 872.392 167.034 885.721 184.004C898.918 200.813 896.725 222.699 880.465 235.472C864.214 248.244 842.424 245.2 829.227 228.391C815.897 211.421 818.176 189.468 834.351 176.762ZM874.263 227.577C886.496 217.972 888.302 201.749 878.697 189.525C868.96 177.14 852.776 175.051 840.552 184.656C828.319 194.262 826.523 210.485 836.251 222.879C845.855 235.093 862.04 237.183 874.263 227.577Z" fill="#183D6A"></path>
<path d="M85.8935 702.751C67.6198 709.539 52.7588 702.08 45.404 682.265L40.2613 668.424L18.7828 676.403L11.2578 656.143L88.8619 627.309L101.53 661.409C108.894 681.225 103.165 696.332 85.8935 702.751ZM78.0754 683.73C85.7139 680.894 88.0395 674.607 84.9954 666.42L80.2214 653.581L56.4174 662.421L61.1914 675.259C64.2354 683.456 70.2101 686.651 78.0754 683.73Z" fill="#183D6A"></path>
<path d="M77.0653 793.397L90.045 770.991L89.7992 770.594L81.499 757.397L62.1003 769.592L50.5859 751.308L120.674 707.215L140.489 738.716C152.183 757.312 149.858 773.572 134.259 783.386C123.662 790.051 113.093 790.552 103.8 785.097L90.0828 814.092L77.0653 793.397ZM96.0953 748.217L104.462 761.509C109.113 768.912 115.617 770.821 122.716 766.35C129.608 762.01 130.61 755.383 125.95 747.98L117.583 734.688L96.0953 748.217Z" fill="#183D6A"></path>
<path d="M200.415 872.035C183.219 889.061 156.844 888.267 138.806 870.068C120.778 851.86 120.24 825.483 137.436 808.447C154.547 791.496 180.676 792.546 198.704 810.745C216.732 828.943 217.45 855.169 200.415 872.035ZM152.968 824.302C143.401 833.774 143.42 848.551 152.06 857.277C160.776 866.088 175.146 865.823 184.713 856.351C194.28 846.878 194.507 832.678 185.79 823.876C177.065 815.065 162.535 814.829 152.968 824.302Z" fill="#183D6A"></path>
<path d="M287.974 929.951C274.749 950.797 250.51 955.279 227.869 940.918L198.449 922.256L242.796 852.334L272.924 871.441C295.055 885.489 301.124 909.209 287.974 929.951ZM269.19 918.323C276.847 906.25 274.153 893.071 263.083 886.056L251.616 878.786L226.054 919.079L238.419 926.926C248.988 933.619 261.599 930.292 269.19 918.323Z" fill="#183D6A"></path>
<path d="M389.072 968.341C380.97 991.163 356.854 1001.91 332.691 993.338C308.528 984.763 296.578 961.213 304.68 938.391C312.744 915.683 336.747 905.264 360.9 913.839C385.054 922.414 397.089 945.737 389.072 968.341ZM325.572 945.935C321.063 958.632 327.501 971.943 339.082 976.056C350.766 980.206 363.595 973.721 368.104 961.033C372.613 948.337 366.658 935.451 354.964 931.301C343.27 927.141 330.072 933.239 325.572 945.935Z" fill="#183D6A"></path>
<path d="M441.425 935.074L458.658 985.284L485.166 939.3L508.686 941.569L500.736 1024L481.687 1022.16L486.603 969.94L463.196 1012.07L449.091 1010.71L434.164 964.873L429.135 1017.09L409.973 1015.24L417.923 932.814L441.425 935.074Z" fill="#183D6A"></path>
<path d="M552.77 936.852L559.623 1019.35L538.088 1021.13L531.234 938.638L552.77 936.852Z" fill="#183D6A"></path>
<path d="M594.194 930.554L642.956 969.542L630.591 921.233L650.046 916.26L670.589 996.496L652.277 1001.18L603.582 962.424L615.881 1010.5L596.312 1015.51L575.77 935.272L594.194 930.554Z" fill="#183D6A"></path>
<path d="M690.608 897.873L724.206 973.524L704.457 982.297L670.859 906.646L690.608 897.873Z" fill="#183D6A"></path>
<path d="M754.575 881.791C743.864 888.711 741.17 902.4 748.345 913.509C755.586 924.721 769.237 928.002 779.948 921.082C785.696 917.366 790.3 909.897 791.954 901.795L809.935 906.352C807.552 919.002 799.715 931.235 789.392 937.9C768.462 951.419 743.013 946.201 729.816 925.761C716.874 905.719 723.104 880.316 744.337 866.608C754.65 859.943 768.415 857.522 780.099 860.377L777.717 879.768C769.587 877.158 760.625 877.886 754.575 881.791Z" fill="#183D6A"></path>
<path d="M870.703 849.487L845.33 874.71L851.541 889.174L835.8 904.83L802.656 821.068L818.396 805.412L901.37 839.645L885.044 855.877L870.703 849.487ZM854.518 842.254L825.666 829.312L838.268 858.411L854.518 842.254Z" fill="#183D6A"></path>
<path d="M860.602 754.284L922.787 749.236L880.7 722.566L891.449 705.605L961.358 749.907L951.252 765.865L889.265 771.037L931.153 797.583L920.348 814.638L850.43 770.337L860.602 754.284Z" fill="#183D6A"></path>
<path d="M983.28 657.06L971.378 690.801L983.262 701.125L975.878 722.056L909.656 661.012L917.039 640.081L1006.63 634.881L998.973 656.597L983.28 657.06ZM965.574 657.58L933.971 658.45L957.954 679.182L965.574 657.58Z" fill="#183D6A"></path>
<path d="M506.124 206.816L525.712 267.095H589.089L537.813 304.344L557.4 364.622L506.124 327.374L454.848 364.622L474.436 304.344L423.16 267.095H486.537L506.124 206.816Z" fill="#02A9E0"></path>
<path d="M314.163 285.719L326.263 322.977H365.429L333.741 345.997L345.851 383.256L314.163 360.226L282.474 383.256L294.575 345.997L262.887 322.977H302.053L314.163 285.719Z" fill="#02A9E0"></path>
<path d="M698.088 285.719L710.198 322.977H749.364L717.676 345.997L729.777 383.256L698.088 360.226L666.4 383.256L678.501 345.997L646.812 322.977H685.988L698.088 285.719Z" fill="#02A9E0"></path>
<path d="M133.771 571.126C130.15 549.978 128.316 528.29 128.316 506.66C128.316 405.332 167.775 310.073 239.414 238.422C311.053 166.77 406.317 127.318 507.64 127.318V141.008C409.975 141.008 318.153 179.041 249.095 248.103C180.037 317.164 142.005 408.99 142.005 506.66C142.005 527.515 143.773 548.427 147.261 568.81L133.771 571.126Z" fill="#18B2E8"></path>
<path d="M881.479 571.325L867.989 569.009C871.496 548.56 873.283 527.581 873.283 506.66C873.283 408.99 835.251 317.164 766.193 248.102C697.135 179.041 605.313 141.008 507.648 141.008V127.318C608.971 127.318 704.225 166.779 775.874 238.422C847.522 310.064 886.972 405.332 886.972 506.66C886.972 528.356 885.119 550.12 881.479 571.325Z" fill="#18B2E8"></path>
<path d="M6.09753 603.713C0.444317 570.681 0 534.831 0 524.631C0 422.546 20.7978 340.911 65.4469 267.709L90.2813 282.864C47.9578 352.247 29.0885 426.81 29.0885 524.64C29.0885 534.264 29.495 568.053 34.7607 598.816L6.09753 603.713Z" fill="#183D6A"></path>
<path d="M1015.63 598.751L986.833 594.572C989.328 577.366 991.881 555.603 991.881 524.622C991.881 422.302 972.671 346.065 929.582 277.41L954.227 261.943C1000.39 335.495 1020.98 416.507 1020.98 524.622C1020.98 550.734 1019.38 572.904 1015.63 598.751Z" fill="#183D6A"></path>
<path d="M68.083 589.209C63.8289 564.345 61.6641 538.848 61.6641 513.426C61.6641 439.184 80.2781 365.669 115.502 300.834L141.064 314.722C108.157 375.312 90.7621 444.024 90.7621 513.426C90.7621 537.203 92.7757 561.055 96.7556 584.293L68.083 589.209Z" fill="#C8202F"></path>
<path d="M948.328 582.156L919.655 577.23C923.739 553.482 924.505 536.483 924.505 513.425C924.505 439.315 904.813 366.538 867.566 302.96L892.666 288.25C932.531 356.281 953.594 434.144 953.594 513.425C953.603 538.091 952.762 556.346 948.328 582.156Z" fill="#C8202F"></path>
</svg><style>@media (prefers-color-scheme: light) { :root { filter: none; } }
</style></svg>