<?xml version="1.0" encoding="UTF-8"?>
<svg id="Layer_1" data-name="Layer 1" xmlns="http://www.w3.org/2000/svg" viewBox="0 0 1080 260.67">
  <defs>
    <style>
      .cls-1 {
        fill: #1b459c;
      }

      .cls-1, .cls-2, .cls-3, .cls-4, .cls-5, .cls-6, .cls-7 {
        stroke-width: 0px;
      }

      .cls-2 {
        fill: #18b2e8;
      }

      .cls-3 {
        fill: #1c2f5d;
      }

      .cls-4 {
        fill: #1bb1e7;
      }

      .cls-5 {
        fill: #183d6a;
      }

      .cls-6 {
        fill: #c8202f;
      }

      .cls-7 {
        fill: #02a9e0;
      }
    </style>
  </defs>
  <g>
    <g>
      <path class="cls-3" d="M499.99,194.26v-66.98h16.44c8.06,0,14.99.76,20.78,2.27,6,1.45,10.89,4.58,14.68,9.41,3.93,4.76,5.89,11.75,5.89,20.98,0,13.16-3.79,22.19-11.37,27.08-7.51,4.82-17.19,7.24-29.05,7.24h-17.37ZM514.16,182.58h1.86c9.16,0,15.99-1.76,20.47-5.27,4.48-3.51,6.72-9.3,6.72-17.37s-2.22-13.85-6.67-16.75c-4.44-2.89-11.29-4.34-20.52-4.34h-1.86v43.72Z"/>
      <path class="cls-3" d="M562.12,160.77c0-10.27,3.19-18.59,9.56-24.96,6.37-6.37,14.83-9.56,25.38-9.56s18.55,3.19,24.86,9.56c6.31,6.38,9.46,14.63,9.46,24.76s-3.22,18.37-9.67,24.91c-6.44,6.55-14.87,9.82-25.27,9.82s-18.64-3.21-24.91-9.61c-6.27-6.41-9.41-14.71-9.41-24.91M616.8,160.77c0-6.48-1.93-11.7-5.79-15.66-3.86-3.96-8.62-5.94-14.27-5.94s-10.58,1.98-14.37,5.94c-3.79,3.96-5.69,9.11-5.69,15.45s1.89,11.8,5.69,15.76c3.79,3.96,8.61,5.94,14.47,5.94s10.47-1.98,14.27-5.94c3.79-3.96,5.68-9.15,5.68-15.56"/>
      <polygon class="cls-3" points="672.73 195.3 654.12 162.74 648.43 194.26 634.17 194.26 647.71 126.25 648.74 126.25 673.14 169.35 697.54 126.25 698.57 126.25 712.11 194.26 698.16 194.26 692.16 162.84 673.76 195.3 672.73 195.3"/>
      <path class="cls-3" d="M718.21,187.88v-60.6h14.26v66.98h-7.88c-3.53,0-6.39-2.86-6.39-6.39"/>
      <polygon class="cls-3" points="798.94 195.3 756.25 155.81 756.25 194.26 742.4 194.26 742.4 126.25 743.43 126.25 786.12 165.63 786.12 127.28 799.98 127.28 799.98 195.3 798.94 195.3"/>
      <path class="cls-3" d="M809.9,187.88v-60.6h14.26v66.98h-7.88c-3.53,0-6.39-2.86-6.39-6.39"/>
      <path class="cls-3" d="M831.29,160.88c0-10.13,3.24-18.43,9.72-24.91,6.48-6.48,14.95-9.72,25.43-9.72,7.79,0,14.06,1.52,18.81,4.55v13.95c-5.52-3.72-11.54-5.58-18.09-5.58s-11.39,2-15.35,6c-3.96,4-5.94,9.17-5.94,15.51s2.02,11.87,6.05,15.76c4.03,3.89,9.29,5.84,15.76,5.84s12.96-1.86,18.61-5.58v14.16c-2,1.24-4.77,2.29-8.32,3.15-3.55.86-7.29,1.29-11.22,1.29-10.89,0-19.52-3.22-25.89-9.67-6.38-6.44-9.56-14.69-9.56-24.76"/>
      <path class="cls-3" d="M888.66,194.26l30.91-68.02h1.03l30.8,68.02h-15.2l-4.34-10.34h-24.09l-4.44,10.34h-14.68ZM912.02,172.87h15.71l-7.86-18.61-7.86,18.61Z"/>
      <polygon class="cls-3" points="1012.09 195.3 969.4 155.81 969.4 194.26 955.54 194.26 955.54 126.25 956.58 126.25 999.27 165.63 999.27 127.28 1013.12 127.28 1013.12 195.3 1012.09 195.3"/>
      <path class="cls-3" d="M1017.26,194.26l30.91-68.02h1.03l30.8,68.02h-15.2l-4.34-10.34h-24.09l-4.44,10.34h-14.68ZM1040.62,172.87h15.71l-7.86-18.61-7.86,18.61Z"/>
      <path class="cls-4" d="M348.77,125.89c-4.25-1.08-9.11-1.63-14.43-1.63h-22.95v70.96h16.36v-22.48h5.31c5.9,0,10.98-.59,15.09-1.74,4.19-1.17,7.85-3.45,10.86-6.76,3.34-3.63,5.03-9.07,5.03-16.17,0-12.06-5.13-19.52-15.26-22.18M327.74,137.63h4.64c2.52.07,4.57.23,6.11.47,1.5.24,3.01.71,4.51,1.38,1.41.64,2.44,1.64,3.15,3.06.73,1.46,1.13,3.37,1.2,5.64,0,4.18-1.2,6.99-3.65,8.6-2.53,1.65-6.33,2.49-11.29,2.49h-4.67v-21.64Z"/>
      <path class="cls-4" d="M419.7,147.75c0-9.1-2.68-15.38-7.98-18.66-5.17-3.2-12.05-4.83-20.44-4.83h-23.06v70.96h16.36v-23.66h5.62l14.99,23.66h19.71l-17.7-26.06c8.3-2.97,12.5-10.17,12.5-21.4M384.48,137.73h4.34c5.05,0,8.68.61,10.79,1.82,1.99,1.13,3.09,3.94,3.29,8.3,0,4.1-1.15,6.84-3.4,8.14-2.4,1.39-6.43,2.09-11.97,2.09h-3.06v-20.36Z"/>
      <path class="cls-4" d="M486.43,133.33c-6.66-6.73-15.51-10.14-26.31-10.14s-20.12,3.41-26.84,10.13c-6.72,6.73-10.13,15.61-10.13,26.41s3.35,19.6,9.97,26.35c6.62,6.76,15.49,10.19,26.37,10.19s19.94-3.5,26.74-10.41c6.79-6.9,10.24-15.77,10.24-26.36s-3.37-19.47-10.02-26.2M474.11,175.3c-3.75,3.92-8.53,5.91-14.2,5.91s-10.67-1.99-14.41-5.91c-3.76-3.93-5.67-9.24-5.67-15.78s1.91-11.52,5.67-15.46c3.75-3.92,8.56-5.91,14.3-5.91s10.38,1.99,14.2,5.92c3.83,3.93,5.77,9.2,5.77,15.66s-1.91,11.63-5.67,15.56"/>
    </g>
    <g>
      <path class="cls-3" d="M313.65,70.37h6.48v28.01h-6.48v-28.01Z"/>
      <path class="cls-3" d="M420.48,70.37v28.01h-5.32l-13.97-17.01v17.01h-6.4v-28.01h5.36l13.93,17.01v-17.01h6.4Z"/>
      <path class="cls-3" d="M492.93,95.62l2.2-4.88c2.36,1.72,5.88,2.92,9.24,2.92,3.84,0,5.4-1.28,5.4-3,0-5.24-16.29-1.64-16.29-12.05,0-4.76,3.84-8.72,11.81-8.72,3.52,0,7.12.84,9.73,2.48l-2,4.92c-2.6-1.48-5.28-2.2-7.76-2.2-3.84,0-5.32,1.44-5.32,3.2,0,5.16,16.29,1.6,16.29,11.89,0,4.68-3.88,8.68-11.89,8.68-4.44,0-8.92-1.32-11.41-3.24Z"/>
      <path class="cls-3" d="M594.08,75.65h-8.97v-5.28h24.41v5.28h-8.97v22.73h-6.48v-22.73Z"/>
      <path class="cls-3" d="M681.02,70.37h6.48v28.01h-6.48v-28.01Z"/>
      <path class="cls-3" d="M767.96,75.65h-8.97v-5.28h24.41v5.28h-8.97v22.73h-6.48v-22.73Z"/>
      <path class="cls-3" d="M854.18,86.06v-15.69h6.48v15.45c0,5.32,2.32,7.52,6.24,7.52s6.24-2.2,6.24-7.52v-15.45h6.4v15.69c0,8.24-4.72,12.81-12.69,12.81s-12.69-4.56-12.69-12.81Z"/>
      <path class="cls-3" d="M959.29,75.65h-8.97v-5.28h24.41v5.28h-8.97v22.73h-6.48v-22.73Z"/>
      <path class="cls-3" d="M1044.07,84.38c0-8.32,6.48-14.49,15.33-14.49s15.33,6.12,15.33,14.49-6.52,14.49-15.33,14.49-15.33-6.16-15.33-14.49ZM1068.16,84.38c0-5.32-3.76-8.96-8.76-8.96s-8.77,3.64-8.77,8.96,3.76,8.96,8.77,8.96,8.76-3.64,8.76-8.96Z"/>
    </g>
  </g>
  <g>
    <g>
      <path class="cls-1" d="M37.44,154.84c.52-.54,1.04-1.07,1.57-1.6,22.17-22.17,52.77-35.89,86.52-35.89,2.31,0,4.61.08,6.88.2.46.03.92.07,1.38.1.75.05,1.5.14,2.25.2-38.68,18.02-62.12,47.5-72.57,80.28-12.2-11.69-21.32-26.57-26.04-43.29Z"/>
      <path class="cls-6" d="M222.82,154.65c-6.43,23-21.19,42.51-40.82,55.1-9.95-15.65-27.45-26.05-47.33-26.05-.04,0-.09,0-.14,0-.03,0-.06,0-.09,0h-19.74c22.45-25.64,55.38-41.89,92.06-41.89.43,0,.85.03,1.28.03,5.02,3.5,10.01,7.81,14.76,12.81Z"/>
      <path class="cls-7" d="M213.15,128.96l-3.05-.05c-35.45-4.6-76.06,9.31-101.97,36.62-13.48,14.21-23.9,27.63-32.27,44.69,4.97-16.75,12.9-32.92,24.08-47.65,20.09-26.48,47.13-45.15,74.18-51.24l.22-.05.22.06c14.27,3.83,23.77,7.34,36.07,15.87l2.51,1.74Z"/>
    </g>
    <g>
      <polygon class="cls-7" points="129.95 51.86 134.94 67.23 151.09 67.23 138.02 76.72 143.01 92.08 129.95 82.59 116.88 92.08 121.87 76.72 108.8 67.23 124.95 67.23 129.95 51.86"/>
      <polygon class="cls-7" points="81.02 71.97 84.1 81.47 94.09 81.47 86.01 87.34 89.1 96.83 81.02 90.96 72.94 96.83 76.03 87.34 67.95 81.47 77.93 81.47 81.02 71.97"/>
      <polygon class="cls-7" points="178.87 71.97 181.96 81.47 191.94 81.47 183.86 87.34 186.95 96.83 178.87 90.96 170.8 96.83 173.88 87.34 165.8 81.47 175.79 81.47 178.87 71.97"/>
    </g>
    <g>
      <path class="cls-2" d="M35.04,144.71c-.92-5.39-1.39-10.92-1.39-16.43,0-25.82,10.06-50.1,28.32-68.36,18.26-18.26,42.54-28.32,68.36-28.32v3.49c-24.89,0-48.29,9.69-65.89,27.29-17.6,17.6-27.29,41-27.29,65.89,0,5.31.45,10.64,1.34,15.84l-3.44.59Z"/>
      <path class="cls-2" d="M225.61,144.76l-3.44-.59c.89-5.21,1.35-10.56,1.35-15.89,0-24.89-9.69-48.29-27.29-65.89-17.6-17.6-41-27.29-65.89-27.29v-3.49c25.82,0,50.1,10.06,68.36,28.32,18.26,18.26,28.32,42.54,28.32,68.36,0,5.53-.47,11.07-1.4,16.48Z"/>
    </g>
    <path class="cls-6" d="M130.33,244.27c-62.82,0-113.93-51.11-113.93-113.93S67.51,16.4,130.33,16.4s113.93,51.11,113.93,113.93-51.11,113.93-113.93,113.93ZM130.33,23.7c-58.8,0-106.63,47.83-106.63,106.63s47.83,106.63,106.63,106.63,106.63-47.83,106.63-106.63S189.13,23.7,130.33,23.7Z"/>
    <path class="cls-5" d="M130.33,260.67C58.47,260.67,0,202.2,0,130.33S58.47,0,130.33,0s130.33,58.47,130.33,130.33-58.47,130.33-130.33,130.33ZM130.33,8.43C63.12,8.43,8.43,63.12,8.43,130.33s54.68,121.9,121.9,121.9,121.9-54.68,121.9-121.9S197.55,8.43,130.33,8.43Z"/>
  </g>
</svg>