<svg width="1000" height="1000" viewBox="0 0 1000 1000" fill="none" xmlns="http://www.w3.org/2000/svg">
<path d="M475.51 6.37748L466.377 6.84018C466.231 6.84754 466.119 6.9714 466.127 7.11681L469.527 74.2489C469.535 74.3943 469.659 74.5062 469.804 74.4989L478.938 74.0362C479.083 74.0288 479.195 73.905 479.188 73.7595L475.787 6.62744C475.78 6.48202 475.656 6.37012 475.51 6.37748Z" fill="white"/>
<path d="M566.17 20.2193L557.715 78.3011C557.71 78.3407 557.696 78.3788 557.676 78.4131C557.655 78.4474 557.628 78.4773 557.596 78.5011C557.564 78.5248 557.527 78.5418 557.488 78.5512C557.449 78.5606 557.409 78.5621 557.37 78.5556L548.488 77.2465C548.448 77.241 548.41 77.2276 548.376 77.2071C548.341 77.1867 548.312 77.1596 548.288 77.1274C548.264 77.0952 548.247 77.0586 548.238 77.0197C548.228 76.9809 548.227 76.9405 548.233 76.9011L556.688 18.8556C556.694 18.8162 556.693 18.7758 556.683 18.737C556.674 18.6981 556.657 18.6615 556.633 18.6293C556.61 18.5971 556.58 18.57 556.545 18.5496C556.511 18.5291 556.473 18.5157 556.433 18.5102L534.051 15.2284C534.012 15.2228 533.974 15.2094 533.939 15.189C533.905 15.1685 533.875 15.1414 533.851 15.1092C533.828 15.077 533.811 15.0404 533.801 15.0016C533.792 14.9627 533.79 14.9224 533.797 14.8829L534.915 7.16472C534.921 7.12512 534.934 7.08704 534.954 7.0527C534.975 7.01835 535.002 6.98845 535.034 6.96473C535.066 6.94102 535.103 6.92398 535.142 6.91461C535.181 6.90524 535.221 6.90373 535.261 6.91017L590.097 14.892C590.136 14.8975 590.175 14.9109 590.209 14.9314C590.243 14.9518 590.273 14.979 590.297 15.0111C590.321 15.0433 590.338 15.0799 590.347 15.1188C590.356 15.1576 590.358 15.198 590.351 15.2374L589.242 22.9738C589.237 23.0134 589.223 23.0515 589.203 23.0858C589.183 23.1202 589.155 23.1501 589.123 23.1738C589.091 23.1975 589.054 23.2145 589.016 23.2239C588.977 23.2333 588.936 23.2348 588.897 23.2284L566.515 19.9647C566.476 19.9583 566.435 19.9598 566.396 19.9692C566.358 19.9785 566.321 19.9956 566.289 20.0193C566.257 20.043 566.229 20.0729 566.209 20.1072C566.189 20.1416 566.175 20.1797 566.17 20.2193Z" fill="white"/>
<path d="M386.612 27.7027L401.139 84.5845C401.159 84.6617 401.147 84.7433 401.106 84.8115C401.065 84.8797 400.998 84.9288 400.921 84.9481L392.221 87.1663C392.144 87.1856 392.062 87.1734 391.994 87.1325C391.926 87.0916 391.877 87.0253 391.858 86.9481L377.339 30.1118C377.32 30.0346 377.271 29.9683 377.203 29.9274C377.135 29.8865 377.053 29.8743 376.976 29.8936L355.03 35.4663C354.953 35.4856 354.872 35.4734 354.803 35.4325C354.735 35.3916 354.686 35.3253 354.667 35.2481L352.767 27.6663C352.747 27.5892 352.76 27.5075 352.801 27.4393C352.841 27.3712 352.908 27.322 352.985 27.3027L406.658 13.6027C406.735 13.5834 406.816 13.5956 406.885 13.6365C406.953 13.6774 407.002 13.7437 407.021 13.8209L408.967 21.4209C408.986 21.498 408.974 21.5796 408.933 21.6478C408.892 21.716 408.826 21.7652 408.749 21.7845L386.83 27.339C386.753 27.3584 386.687 27.4075 386.646 27.4757C386.605 27.5439 386.593 27.6255 386.612 27.7027Z" fill="white"/>
<path d="M677.942 84.5194C682.879 72.8648 687.67 61.3103 692.561 49.6921C692.585 49.6319 692.632 49.5838 692.692 49.5583C692.751 49.5327 692.819 49.5318 692.879 49.5557L700.997 52.9285C701.043 52.947 701.085 52.9747 701.12 53.01C701.155 53.0452 701.182 53.0874 701.201 53.1339C701.22 53.1805 701.229 53.2305 701.228 53.2811C701.227 53.3317 701.217 53.3818 701.197 53.4285C697.124 62.9618 693.039 72.7466 688.942 82.783C687.039 87.4557 685.164 91.4073 683.315 94.6376C677.379 105.019 667.024 110.056 654.961 107.283C635.942 102.919 625.006 87.6194 632.924 68.283C637.567 56.9557 642.682 44.7042 648.27 31.5285C648.433 31.1466 648.703 31.0345 649.079 31.1921L656.888 34.4376C657.27 34.6012 657.382 34.8709 657.224 35.2466C651.958 47.6285 646.964 59.5769 642.242 71.0921C641.188 73.6739 640.497 76.4315 640.17 79.3648C639.006 89.8285 646.615 96.3285 655.943 98.6194C667.288 101.419 673.97 93.9103 677.942 84.5194Z" fill="white"/>
<path d="M310.54 91.1664C307.953 90.9483 305.374 91.1422 302.804 91.7483C298.071 92.8695 293.44 93.9301 288.913 94.9301C279.186 97.0846 270.413 95.5119 266.077 86.321C262.359 78.4665 264.686 70.0665 270.895 64.3755C279.562 56.4362 289.774 52.524 301.531 52.6392C302.047 52.6452 302.325 52.9028 302.368 53.4119L303.022 60.5028C303.065 60.9816 302.847 61.2089 302.368 61.1846C293.271 60.7301 285.35 63.2028 278.604 68.6028C276.865 69.9968 275.513 71.6362 274.55 73.521C271.731 79.0574 274.768 86.1301 281.395 86.4119C285.001 86.5634 288.737 86.0937 292.604 85.0028C298.253 83.4089 303.413 82.3846 308.086 81.9301C316.189 81.1422 321.913 84.0634 325.259 90.6937C329.322 98.7574 326.686 107.112 320.431 113.012C311.231 121.703 297.25 126.694 284.468 124.485C284.354 124.464 284.25 124.405 284.174 124.317C284.098 124.23 284.054 124.119 284.05 124.003L283.722 116.403C283.71 116.179 283.816 116.085 284.041 116.121C294.501 117.782 303.983 115.421 312.486 109.039C314.659 107.403 316.831 104.93 317.659 102.321C319.295 97.1846 316.186 91.6483 310.54 91.1664Z" fill="white"/>
<path d="M774.595 110.229L739.14 156.984C739.092 157.046 739.021 157.087 738.942 157.097C738.864 157.107 738.785 157.086 738.722 157.039L731.549 151.62C731.487 151.572 731.446 151.501 731.436 151.423C731.426 151.344 731.447 151.265 731.495 151.202L766.958 104.448C767.006 104.385 767.027 104.306 767.017 104.227C767.007 104.149 766.966 104.078 766.904 104.029L748.895 90.3568C748.832 90.3083 748.792 90.2372 748.782 90.1589C748.771 90.0806 748.792 90.0014 748.84 89.9386L753.558 83.684C753.607 83.6217 753.678 83.5811 753.756 83.5709C753.835 83.5607 753.914 83.5817 753.977 83.6295L798.131 117.139C798.193 117.187 798.234 117.258 798.244 117.336C798.254 117.415 798.233 117.494 798.186 117.557L793.44 123.793C793.392 123.855 793.32 123.896 793.242 123.906C793.164 123.916 793.085 123.895 793.022 123.848L775.013 110.175C774.95 110.127 774.871 110.106 774.793 110.116C774.714 110.127 774.643 110.167 774.595 110.229Z" fill="white"/>
<path d="M178.332 155.084L211.778 191.448C211.803 191.475 211.822 191.507 211.835 191.542C211.848 191.577 211.854 191.614 211.852 191.651C211.85 191.689 211.841 191.725 211.825 191.759C211.809 191.792 211.787 191.823 211.759 191.848L205.05 198.057C205.023 198.082 204.991 198.101 204.956 198.114C204.921 198.127 204.884 198.133 204.846 198.131C204.809 198.129 204.773 198.12 204.739 198.104C204.705 198.088 204.675 198.066 204.65 198.038L159.196 148.575C159.17 148.547 159.151 148.515 159.138 148.48C159.125 148.445 159.12 148.408 159.121 148.371C159.123 148.334 159.132 148.297 159.148 148.264C159.164 148.23 159.186 148.2 159.214 148.175L164.75 143.093C164.781 143.064 164.819 143.042 164.86 143.029C164.901 143.017 164.944 143.014 164.987 143.02L228.159 152.593C228.217 152.601 228.276 152.592 228.329 152.565C228.381 152.538 228.423 152.496 228.45 152.444C228.477 152.392 228.488 152.333 228.479 152.275C228.471 152.217 228.445 152.163 228.405 152.12L194.959 115.738C194.934 115.711 194.915 115.679 194.902 115.644C194.889 115.609 194.883 115.572 194.885 115.535C194.887 115.497 194.896 115.461 194.912 115.427C194.927 115.394 194.95 115.363 194.977 115.338L201.687 109.157C201.714 109.131 201.746 109.112 201.781 109.099C201.816 109.086 201.853 109.081 201.89 109.082C201.928 109.084 201.964 109.093 201.998 109.109C202.031 109.125 202.062 109.147 202.087 109.175L247.514 158.62C247.539 158.648 247.559 158.68 247.571 158.715C247.584 158.75 247.59 158.787 247.588 158.824C247.586 158.861 247.577 158.898 247.562 158.931C247.546 158.965 247.523 158.995 247.496 159.02L241.95 164.111C241.919 164.14 241.881 164.162 241.84 164.175C241.799 164.187 241.756 164.191 241.714 164.184L178.578 154.611C178.52 154.603 178.46 154.612 178.408 154.639C178.356 154.666 178.313 154.708 178.286 154.76C178.259 154.812 178.249 154.871 178.258 154.929C178.266 154.987 178.292 155.041 178.332 155.084Z" fill="white"/>
<path d="M426.478 135.892C557.432 110.711 689.323 156.411 775.678 257.565C821.266 310.965 849.172 372.686 859.396 442.729C864.747 479.389 864.25 517.305 857.905 556.474C857.844 556.862 857.62 557.023 857.232 556.956L845.323 554.92C844.972 554.859 844.823 554.653 844.878 554.302C850.411 520.283 851.372 487.456 847.76 455.82C839.669 384.917 812.753 322.202 767.014 267.674C743.523 239.683 714.805 214.556 683.032 194.947C628.323 161.171 568.36 143.62 503.141 142.292C497.099 142.171 491.029 142.235 484.932 142.483C418.829 145.132 358.623 164.262 304.314 199.874C220.15 255.056 162.405 344.892 148.559 445.047C143.493 481.744 144.02 518.177 150.141 554.347C150.155 554.426 150.136 554.508 150.091 554.574C150.045 554.64 149.975 554.686 149.896 554.702L137.769 556.756C137.681 556.77 137.591 556.767 137.504 556.746C137.418 556.726 137.336 556.688 137.265 556.636C137.193 556.583 137.132 556.517 137.086 556.441C137.04 556.365 137.009 556.28 136.996 556.193C129.147 507.241 130.411 459.923 140.787 414.238C155.829 348.02 186.866 290.432 233.896 241.474C285.578 187.665 352.587 150.102 426.478 135.892Z" fill="white"/>
<path d="M801.86 190.183C804.787 183.704 809.148 178.616 814.941 174.919C825.978 167.889 837.372 167.28 849.123 173.092C858.432 177.701 866.105 187.301 868.932 197.756C875.16 220.801 855.696 242.756 832.378 240.719C809.305 238.701 792.132 211.683 801.86 190.183ZM847.942 227.816C853.914 224.312 858.234 218.551 859.951 211.802C861.668 205.052 860.642 197.867 857.097 191.825C855.342 188.834 853.022 186.214 850.269 184.114C847.516 182.015 844.384 180.477 841.052 179.589C837.72 178.7 834.253 178.479 830.849 178.937C827.445 179.395 824.171 180.524 821.214 182.259C815.241 185.763 810.921 191.524 809.204 198.273C807.487 205.023 808.514 212.208 812.058 218.25C813.813 221.241 816.134 223.861 818.887 225.961C821.64 228.06 824.772 229.598 828.104 230.487C831.436 231.375 834.903 231.596 838.307 231.138C841.71 230.68 844.984 229.551 847.942 227.816Z" fill="white"/>
<path d="M170.209 241.602L115.103 203.588C114.93 203.468 114.692 203.512 114.572 203.685L109.503 211.034C109.383 211.207 109.427 211.445 109.6 211.565L164.706 249.579C164.879 249.699 165.117 249.656 165.237 249.482L170.306 242.134C170.426 241.96 170.382 241.722 170.209 241.602Z" fill="white"/>
<path d="M477.222 263.618L495.731 206.564C495.753 206.502 495.794 206.448 495.848 206.41C495.901 206.372 495.966 206.352 496.031 206.352C496.097 206.352 496.161 206.372 496.215 206.41C496.269 206.448 496.31 206.502 496.331 206.564L514.841 263.6C514.861 263.663 514.902 263.718 514.955 263.757C515.009 263.797 515.074 263.818 515.141 263.818L575.068 263.773C575.135 263.773 575.2 263.794 575.254 263.833C575.308 263.872 575.349 263.927 575.37 263.99C575.391 264.054 575.391 264.122 575.372 264.186C575.352 264.25 575.312 264.305 575.259 264.346L526.759 299.582C526.704 299.621 526.663 299.676 526.642 299.74C526.621 299.804 526.62 299.872 526.641 299.936L545.186 356.936C545.21 357.001 545.212 357.072 545.192 357.138C545.173 357.204 545.132 357.261 545.077 357.302C545.022 357.343 544.954 357.365 544.886 357.365C544.817 357.364 544.75 357.342 544.695 357.3L496.222 322.036C496.167 321.995 496.1 321.973 496.031 321.973C495.963 321.973 495.896 321.995 495.841 322.036L447.386 357.282C447.331 357.324 447.264 357.346 447.195 357.347C447.127 357.347 447.06 357.325 447.004 357.284C446.949 357.243 446.908 357.185 446.889 357.119C446.869 357.053 446.871 356.983 446.895 356.918L465.404 299.918C465.424 299.854 465.424 299.785 465.403 299.722C465.381 299.658 465.341 299.603 465.286 299.564L416.741 264.309C416.687 264.269 416.648 264.213 416.628 264.15C416.608 264.086 416.609 264.017 416.63 263.954C416.651 263.891 416.691 263.836 416.745 263.797C416.8 263.757 416.865 263.736 416.931 263.736L476.922 263.836C476.989 263.836 477.054 263.815 477.107 263.776C477.161 263.736 477.201 263.681 477.222 263.618Z" fill="white"/>
<path d="M928.078 259.146C951.16 295.8 967.869 335.755 978.042 378.155C988.66 422.446 992.405 468.255 992.223 514.673C992.132 537.97 990.439 560.713 987.142 582.9C987.087 583.282 986.869 583.446 986.487 583.391L959.842 579.528C959.484 579.479 959.332 579.276 959.387 578.919C962.272 559.531 963.854 539.797 964.133 519.719C964.723 476.691 961.569 433.428 952.332 391.646C943.999 353.949 930.448 318.837 911.678 286.31C909.387 282.346 906.978 278.313 904.451 274.21C904.257 273.894 904.317 273.637 904.632 273.437L927.569 259.028C927.609 259.002 927.654 258.984 927.702 258.976C927.749 258.968 927.798 258.969 927.845 258.98C927.893 258.991 927.938 259.011 927.978 259.04C928.017 259.068 928.052 259.104 928.078 259.146Z" fill="white"/>
<path d="M18.6526 399.728C28.3708 351.446 45.8253 306.41 71.0617 264.837C71.2435 264.534 71.4859 264.473 71.789 264.655L94.8526 278.719C94.9147 278.757 94.9687 278.807 95.0115 278.866C95.0543 278.925 95.085 278.992 95.1019 279.063C95.1187 279.134 95.1215 279.207 95.1099 279.279C95.0983 279.351 95.0727 279.42 95.0344 279.482C75.8526 310.755 61.5071 344.082 51.9981 379.464C41.7071 417.773 37.5435 457.11 36.4617 497.119C35.6738 526.119 37.3829 554.782 41.589 583.11C41.6314 583.394 41.5102 583.564 41.2253 583.619L14.6526 588.182C14.2829 588.243 14.0677 588.091 14.0071 587.728C7.35259 546.082 6.86167 503.6 10.2162 460.982C11.895 439.728 14.7072 419.31 18.6526 399.728Z" fill="white"/>
<path d="M323.057 317.992L359.211 317.592C359.352 317.588 359.49 317.63 359.605 317.711C359.72 317.792 359.805 317.908 359.849 318.042C359.893 318.176 359.893 318.32 359.848 318.453C359.804 318.587 359.717 318.702 359.602 318.783L330.12 339.71C330.006 339.79 329.921 339.905 329.877 340.038C329.833 340.17 329.832 340.313 329.875 340.446L341.429 374.71C341.477 374.843 341.48 374.988 341.438 375.124C341.396 375.259 341.311 375.377 341.196 375.46C341.082 375.543 340.943 375.586 340.802 375.584C340.66 375.581 340.523 375.533 340.411 375.446L311.402 353.874C311.289 353.789 311.152 353.744 311.011 353.744C310.87 353.744 310.733 353.789 310.62 353.874L281.611 375.446C281.499 375.533 281.362 375.581 281.221 375.584C281.079 375.586 280.941 375.543 280.826 375.46C280.711 375.377 280.627 375.259 280.585 375.124C280.543 374.988 280.546 374.843 280.593 374.71L292.148 340.446C292.191 340.313 292.19 340.17 292.146 340.038C292.102 339.905 292.016 339.79 291.902 339.71L262.42 318.783C262.305 318.702 262.219 318.587 262.174 318.453C262.13 318.32 262.129 318.176 262.173 318.042C262.217 317.908 262.303 317.792 262.418 317.711C262.533 317.63 262.671 317.588 262.811 317.592L298.966 317.992C299.106 317.992 299.243 317.947 299.356 317.864C299.469 317.78 299.552 317.662 299.593 317.528L310.384 283.028C310.424 282.893 310.507 282.775 310.62 282.69C310.733 282.606 310.87 282.561 311.011 282.561C311.152 282.561 311.289 282.606 311.402 282.69C311.515 282.775 311.598 282.893 311.638 283.028L322.429 317.528C322.47 317.662 322.553 317.78 322.666 317.864C322.779 317.947 322.916 317.992 323.057 317.992Z" fill="white"/>
<path d="M693.103 317.992L729.23 317.583C729.373 317.582 729.512 317.626 729.628 317.709C729.744 317.792 729.831 317.91 729.876 318.046C729.92 318.182 729.92 318.328 729.876 318.464C729.832 318.6 729.746 318.718 729.63 318.801L700.157 339.701C700.04 339.785 699.953 339.905 699.908 340.043C699.864 340.18 699.865 340.328 699.912 340.465L711.466 374.692C711.511 374.828 711.512 374.974 711.469 375.11C711.425 375.246 711.339 375.364 711.224 375.448C711.109 375.532 710.97 375.577 710.827 375.577C710.684 375.577 710.545 375.531 710.43 375.447L681.448 353.874C681.332 353.789 681.192 353.742 681.048 353.742C680.904 353.742 680.764 353.789 680.648 353.874L651.666 375.447C651.551 375.531 651.412 375.577 651.27 375.577C651.127 375.577 650.988 375.532 650.873 375.448C650.757 375.364 650.672 375.246 650.628 375.11C650.584 374.974 650.585 374.828 650.63 374.692L662.185 340.465C662.231 340.328 662.232 340.18 662.188 340.043C662.144 339.905 662.057 339.785 661.939 339.701L632.466 318.801C632.351 318.718 632.265 318.6 632.22 318.464C632.176 318.328 632.177 318.182 632.221 318.046C632.266 317.91 632.352 317.792 632.468 317.709C632.584 317.626 632.724 317.582 632.867 317.583L668.994 317.992C669.137 317.994 669.276 317.949 669.392 317.866C669.508 317.783 669.595 317.665 669.639 317.529L680.403 283.038C680.444 282.898 680.529 282.776 680.645 282.689C680.762 282.602 680.903 282.555 681.048 282.555C681.194 282.555 681.335 282.602 681.451 282.689C681.568 282.776 681.653 282.898 681.694 283.038L692.457 317.529C692.502 317.665 692.588 317.783 692.704 317.866C692.82 317.949 692.96 317.994 693.103 317.992Z" fill="white"/>
<path d="M894.75 441.238C887.053 390.456 870.314 342.929 844.532 298.656C844.489 298.581 844.477 298.492 844.499 298.409C844.521 298.326 844.576 298.254 844.65 298.211L868.314 284.347C868.352 284.324 868.394 284.309 868.438 284.302C868.482 284.296 868.527 284.298 868.57 284.309C868.613 284.32 868.654 284.34 868.689 284.366C868.725 284.393 868.755 284.427 868.777 284.465C900.892 339.968 919.814 399.359 925.541 462.638C927.644 485.795 927.917 509.341 926.359 533.274C925.638 544.389 924.271 555.665 922.259 567.102C922.251 567.152 922.234 567.2 922.207 567.243C922.181 567.287 922.146 567.325 922.106 567.354C922.065 567.384 922.019 567.405 921.97 567.416C921.922 567.427 921.872 567.429 921.823 567.42L894.914 562.792C894.871 562.786 894.829 562.771 894.792 562.748C894.755 562.725 894.723 562.696 894.697 562.661C894.672 562.627 894.654 562.587 894.644 562.546C894.634 562.504 894.633 562.461 894.641 562.42C897.568 545.371 899.096 528.053 899.223 510.465C899.386 487.292 898.286 464.583 894.75 441.238Z" fill="white"/>
<path d="M97.3047 344.238C103.626 327.88 111.029 311.983 119.514 296.547C119.528 296.52 119.547 296.497 119.571 296.478C119.594 296.459 119.621 296.445 119.649 296.437C119.678 296.429 119.708 296.426 119.738 296.429C119.768 296.432 119.797 296.441 119.823 296.456L143.923 309.547C143.962 309.566 143.996 309.594 144.024 309.627C144.052 309.661 144.073 309.7 144.086 309.743C144.099 309.785 144.103 309.83 144.098 309.874C144.094 309.918 144.08 309.962 144.059 310.001C101.332 389.174 86.5047 480.183 101.423 569.01C101.484 569.368 101.335 569.577 100.977 569.638L74.3411 574.21C74.0077 574.265 73.8138 574.125 73.7593 573.792C60.7653 495.028 68.6138 418.51 97.3047 344.238Z" fill="white"/>
<path d="M707.333 443.265C735.66 452.647 762.188 465.21 787.469 481.547C795.075 486.468 802.6 491.556 810.042 496.81C810.448 497.095 810.403 497.238 809.906 497.238C805.124 497.192 800.551 497.238 795.815 496.674C756.682 492.05 717.106 493.001 677.088 499.528C578.406 515.628 484.033 562.128 414.651 634.501C398.282 651.58 382.388 669.462 366.969 688.147C337.739 723.571 312.876 761.792 292.379 802.81C291.882 803.798 291.794 803.765 292.115 802.71C310.321 741.892 338.033 685.771 375.251 634.347C424.179 566.747 488.079 508.228 561.297 469.092C593.969 451.632 627.718 438.822 662.542 430.665C663.288 430.492 663.997 430.438 664.733 430.638C679.557 434.553 693.757 438.762 707.333 443.265Z" fill="white"/>
<path d="M518.349 455.646C461.831 482.2 409.877 516.955 366.122 560.382C309.825 616.261 269.407 682.246 244.867 758.337C244.74 758.731 244.528 758.782 244.231 758.491C197.116 712.673 164.489 658.407 146.349 595.691C146.3 595.526 146.295 595.351 146.337 595.183C146.378 595.015 146.464 594.861 146.586 594.737C181.519 558.84 220.41 529.585 263.258 506.973C335.864 468.658 413.777 450.888 496.995 453.664C504.255 453.906 511.352 454.434 518.286 455.246C518.77 455.307 518.792 455.44 518.349 455.646Z" fill="white"/>
<path d="M847.048 595.001C822.63 680.865 768.103 754.21 693.176 802.619C693.138 802.644 693.096 802.662 693.052 802.67C693.008 802.679 692.962 802.679 692.918 802.669C692.874 802.66 692.832 802.642 692.795 802.616C692.758 802.59 692.727 802.557 692.703 802.519C672.23 770.822 645.46 746.189 612.394 728.619C581.63 712.274 547.421 704.228 511.848 704.274C487.945 704.31 463.606 704.316 438.83 704.292C438.79 704.291 438.752 704.279 438.719 704.257C438.686 704.235 438.659 704.204 438.643 704.168C438.627 704.132 438.621 704.092 438.627 704.053C438.633 704.013 438.65 703.976 438.676 703.946C489.276 646.637 552.394 602.301 623.721 575.455C677.021 555.392 734.057 545.155 790.894 545.91C791.203 545.916 791.485 546.01 791.739 546.192C811.46 560.155 829.818 576.104 846.812 594.037C847.073 594.316 847.151 594.637 847.048 595.001Z" fill="white"/>
<path d="M47.1941 651.037C47.1553 650.934 47.0771 650.85 46.9766 650.804C46.8761 650.758 46.7615 650.754 46.6578 650.792L26.7578 658.174C26.6496 658.214 26.5296 658.209 26.4239 658.159C26.3183 658.11 26.2357 658.02 26.1941 657.91L19.2396 639.21C19.2188 639.154 19.2092 639.094 19.2112 639.034C19.2132 638.975 19.2269 638.916 19.2514 638.862C19.2759 638.808 19.3108 638.759 19.354 638.719C19.3972 638.679 19.4479 638.648 19.5032 638.628L93.7123 611.065C93.7579 611.047 93.8088 611.049 93.8545 611.069C93.9001 611.09 93.9371 611.127 93.9578 611.174C98.3396 622.871 102.727 634.743 107.121 646.792C108.267 649.925 108.921 653.795 109.085 658.401C109.549 671.465 101.203 680.728 89.0669 684.383C70.8305 689.883 58.4123 680.719 52.1032 664.137C50.3881 659.64 48.7517 655.274 47.1941 651.037ZM85.2032 636.456L62.9669 644.728C62.9211 644.744 62.8791 644.77 62.8432 644.802C62.8074 644.835 62.7785 644.875 62.7581 644.919C62.7378 644.963 62.7265 645.01 62.7249 645.059C62.7232 645.107 62.7313 645.156 62.7487 645.201L67.6941 658.483C68.7989 661.454 70.9625 663.894 73.709 665.264C76.4555 666.635 79.56 666.825 82.3396 665.792L84.3032 665.065C85.6799 664.552 86.9351 663.755 87.9973 662.718C89.0595 661.682 89.9078 660.426 90.4937 659.023C91.0796 657.62 91.3916 656.097 91.412 654.541C91.4323 652.985 91.1606 651.427 90.6123 649.956L85.6759 636.674C85.6597 636.628 85.6346 636.586 85.6019 636.55C85.5692 636.514 85.5296 636.485 85.4856 636.465C85.4415 636.445 85.3938 636.433 85.3453 636.432C85.2969 636.43 85.2485 636.438 85.2032 636.456Z" fill="white"/>
<path d="M955.825 639.884L944.498 672.02C944.479 672.074 944.476 672.132 944.491 672.187C944.505 672.243 944.537 672.292 944.58 672.329L955.743 682.029C955.787 682.066 955.818 682.116 955.832 682.171C955.847 682.226 955.845 682.285 955.825 682.338L948.907 701.938C948.892 701.983 948.865 702.023 948.83 702.055C948.794 702.087 948.752 702.11 948.705 702.12C948.659 702.131 948.611 702.13 948.565 702.118C948.519 702.105 948.477 702.081 948.444 702.047L885.062 643.62C885.022 643.583 884.994 643.534 884.981 643.481C884.968 643.428 884.971 643.372 884.989 643.32L891.98 623.475C892 623.423 892.034 623.378 892.08 623.345C892.125 623.313 892.179 623.295 892.234 623.293L977.98 618.338C978.026 618.336 978.072 618.345 978.114 618.364C978.156 618.384 978.192 618.413 978.22 618.45C978.248 618.487 978.266 618.53 978.273 618.575C978.281 618.621 978.277 618.667 978.262 618.711L971.098 639.047C971.08 639.101 971.046 639.148 971 639.182C970.955 639.216 970.9 639.236 970.844 639.238L956.08 639.693C956.023 639.695 955.969 639.715 955.923 639.749C955.878 639.783 955.844 639.83 955.825 639.884ZM931.134 660.684C931.173 660.716 931.219 660.738 931.268 660.749C931.317 660.76 931.367 660.758 931.416 660.745C931.464 660.731 931.508 660.706 931.545 660.672C931.581 660.638 931.609 660.595 931.625 660.547L938.698 640.575C938.714 640.528 938.719 640.477 938.711 640.428C938.704 640.379 938.684 640.332 938.655 640.292C938.625 640.252 938.587 640.219 938.542 640.197C938.497 640.175 938.448 640.164 938.398 640.166L909.171 641.056C909.11 641.06 909.052 641.081 909.003 641.118C908.955 641.154 908.918 641.204 908.898 641.261C908.877 641.319 908.874 641.381 908.889 641.44C908.903 641.499 908.935 641.552 908.98 641.593L931.134 660.684Z" fill="white"/>
<path d="M896.839 728.038L857.257 702.992C857.223 702.971 857.194 702.943 857.171 702.91C857.148 702.878 857.132 702.841 857.124 702.802C857.115 702.763 857.115 702.723 857.122 702.684C857.129 702.645 857.144 702.607 857.166 702.574L867.202 686.71C867.223 686.677 867.251 686.648 867.284 686.625C867.316 686.602 867.353 686.586 867.392 686.577C867.431 686.569 867.471 686.568 867.51 686.575C867.55 686.583 867.587 686.598 867.62 686.619L934.511 729.01C934.545 729.032 934.574 729.059 934.597 729.092C934.62 729.125 934.636 729.161 934.644 729.2C934.653 729.239 934.654 729.28 934.646 729.319C934.639 729.358 934.624 729.395 934.602 729.428L925.084 744.447C925.059 744.485 925.026 744.518 924.986 744.541C924.947 744.565 924.902 744.579 924.857 744.583L866.148 749.465C866.084 749.469 866.024 749.494 865.976 749.535C865.927 749.576 865.893 749.631 865.878 749.692C865.862 749.754 865.867 749.819 865.891 749.878C865.915 749.936 865.957 749.986 866.011 750.019L905.402 774.956C905.436 774.977 905.465 775.005 905.488 775.037C905.511 775.07 905.527 775.107 905.535 775.146C905.544 775.185 905.544 775.225 905.537 775.264C905.53 775.303 905.515 775.341 905.493 775.374L895.384 791.319C895.363 791.353 895.335 791.382 895.302 791.405C895.27 791.428 895.233 791.444 895.194 791.453C895.155 791.461 895.115 791.462 895.076 791.454C895.036 791.447 894.999 791.432 894.966 791.41L828.093 749.038C828.059 749.016 828.03 748.989 828.007 748.956C827.985 748.923 827.968 748.886 827.96 748.848C827.951 748.809 827.951 748.768 827.958 748.729C827.965 748.69 827.98 748.653 828.002 748.619L837.566 733.501C837.591 733.463 837.624 733.43 837.664 733.407C837.703 733.383 837.747 733.369 837.793 733.365L896.702 728.592C896.765 728.588 896.826 728.563 896.874 728.522C896.923 728.481 896.957 728.426 896.972 728.364C896.987 728.303 896.983 728.238 896.959 728.179C896.935 728.121 896.893 728.071 896.839 728.038Z" fill="white"/>
<path d="M107.975 763.737L95.3295 790.501C95.3032 790.555 95.2626 790.601 95.212 790.635C95.1614 790.668 95.1027 790.687 95.0422 790.69C94.9817 790.693 94.9215 790.679 94.8681 790.651C94.8147 790.622 94.7699 790.58 94.7386 790.528L82.7296 771.437C82.6636 771.33 82.6279 771.207 82.6263 771.082C82.6247 770.957 82.6573 770.835 82.7205 770.728L94.8023 749.891C94.9538 749.637 94.9508 749.382 94.7932 749.128L87.0023 736.719C86.9471 736.631 86.8588 736.57 86.7565 736.548C86.6543 736.525 86.5466 736.544 86.4568 736.601L68.4477 747.955C68.2174 748.094 68.0295 748.052 67.8841 747.828L57.1932 730.837C57.1646 730.793 57.145 730.745 57.1355 730.694C57.126 730.643 57.1268 730.59 57.1378 730.539C57.1488 730.489 57.1698 730.441 57.1996 730.398C57.2294 730.355 57.2674 730.319 57.3114 730.291L124.248 688.201C124.33 688.15 124.428 688.134 124.522 688.156C124.616 688.178 124.697 688.237 124.748 688.319C130.911 698.125 137.175 708.085 143.539 718.201C151.266 730.501 154.893 746.001 143.157 757.091C133.866 765.855 120.675 769.928 108.92 763.428C108.496 763.198 108.181 763.301 107.975 763.737ZM121.266 714.673L101.148 727.391C101.109 727.416 101.076 727.449 101.05 727.486C101.024 727.524 101.006 727.567 100.997 727.611C100.988 727.656 100.987 727.703 100.996 727.747C101.005 727.792 101.022 727.835 101.048 727.873L109.611 741.419C111.319 744.118 113.945 746.082 116.911 746.878C119.878 747.674 122.942 747.238 125.43 745.664L127.366 744.446C128.599 743.667 129.653 742.632 130.468 741.4C131.283 740.169 131.844 738.764 132.117 737.268C132.391 735.771 132.372 734.211 132.062 732.677C131.752 731.143 131.157 729.665 130.311 728.328L121.748 714.782C121.724 714.743 121.692 714.709 121.655 714.682C121.617 714.656 121.575 714.637 121.53 714.626C121.485 714.616 121.438 714.615 121.393 714.623C121.348 714.631 121.305 714.648 121.266 714.673Z" fill="white"/>
<path d="M186.122 778.128C200.085 784.71 211.131 798.628 212.958 814.428C215.858 839.473 194.412 860.555 169.694 858.473C151.494 856.946 134.676 842.201 130.103 824.619C121.431 791.282 154.867 763.382 186.122 778.128ZM155.38 833.133C157.467 835.079 159.937 836.574 162.648 837.532C165.359 838.49 168.259 838.892 171.182 838.716C174.105 838.54 176.993 837.789 179.683 836.505C182.373 835.222 184.81 833.432 186.857 831.237C188.904 829.042 190.52 826.485 191.613 823.712C192.705 820.94 193.253 818.006 193.225 815.078C193.197 812.149 192.593 809.285 191.448 806.647C190.304 804.009 188.641 801.65 186.554 799.704C184.467 797.758 181.998 796.264 179.286 795.306C176.575 794.348 173.675 793.946 170.752 794.122C167.829 794.298 164.941 795.049 162.251 796.332C159.561 797.615 157.124 799.406 155.077 801.601C153.03 803.796 151.414 806.353 150.321 809.125C149.229 811.898 148.681 814.832 148.709 817.76C148.738 820.688 149.341 823.553 150.486 826.191C151.63 828.828 153.294 831.188 155.38 833.133Z" fill="white"/>
<path d="M823.013 849.657L828.849 863.212C828.873 863.264 828.88 863.323 828.87 863.379C828.86 863.436 828.834 863.488 828.795 863.53L814.058 878.203C814.024 878.236 813.982 878.26 813.936 878.274C813.89 878.287 813.842 878.289 813.795 878.279C813.749 878.269 813.705 878.248 813.668 878.217C813.632 878.186 813.603 878.147 813.586 878.103L781.858 797.93C781.836 797.877 781.83 797.818 781.842 797.761C781.853 797.705 781.881 797.653 781.922 797.612L796.831 782.803C796.872 782.762 796.924 782.734 796.98 782.722C797.037 782.711 797.096 782.717 797.149 782.739L876.54 815.494C876.584 815.512 876.622 815.542 876.652 815.579C876.682 815.616 876.702 815.659 876.711 815.706C876.72 815.753 876.717 815.801 876.703 815.846C876.689 815.892 876.665 815.933 876.631 815.966L861.331 831.175C861.288 831.217 861.234 831.244 861.176 831.254C861.117 831.264 861.057 831.255 861.004 831.23L847.558 825.239C847.505 825.214 847.445 825.205 847.386 825.215C847.328 825.225 847.273 825.252 847.231 825.294L823.067 849.339C823.028 849.381 823.002 849.433 822.992 849.49C822.982 849.547 822.989 849.605 823.013 849.657ZM815.958 833.366C815.976 833.407 816.004 833.443 816.039 833.471C816.074 833.499 816.115 833.518 816.159 833.526C816.203 833.534 816.249 833.531 816.291 833.518C816.334 833.504 816.373 833.48 816.404 833.448L831.531 818.475C831.561 818.444 831.583 818.406 831.596 818.365C831.608 818.323 831.61 818.279 831.602 818.236C831.594 818.194 831.576 818.153 831.55 818.119C831.523 818.085 831.489 818.057 831.449 818.039L804.622 806.048C804.571 806.024 804.514 806.016 804.458 806.025C804.403 806.035 804.351 806.062 804.311 806.101C804.272 806.141 804.245 806.193 804.236 806.248C804.226 806.304 804.234 806.361 804.258 806.412L815.958 833.366Z" fill="white"/>
<path d="M242.022 828.128C242.06 828.067 242.12 828.023 242.19 828.006C242.26 827.989 242.334 828 242.395 828.037L273.168 847.492C277.622 850.307 281.501 853.937 284.583 858.172C287.665 862.408 289.89 867.166 291.131 872.176C292.372 877.187 292.605 882.35 291.816 887.372C291.026 892.394 289.231 897.177 286.532 901.446L285.032 903.81C282.333 908.08 278.783 911.753 274.585 914.621C270.387 917.488 265.622 919.493 260.564 920.521C255.506 921.55 250.252 921.581 245.104 920.613C239.956 919.646 235.013 917.698 230.559 914.882L199.795 895.428C199.736 895.389 199.694 895.328 199.678 895.258C199.663 895.189 199.676 895.116 199.713 895.055L242.022 828.128ZM250.532 853.764L226.268 891.992C226.241 892.034 226.223 892.081 226.214 892.131C226.205 892.18 226.207 892.231 226.218 892.28C226.229 892.329 226.249 892.375 226.278 892.416C226.307 892.457 226.344 892.492 226.386 892.519L237.586 899.628C242.282 902.608 248.002 903.55 253.486 902.247C258.971 900.945 263.771 897.504 266.832 892.682L268.422 890.182C269.939 887.794 270.982 885.138 271.492 882.366C272.002 879.595 271.97 876.762 271.397 874.029C270.823 871.296 269.721 868.717 268.151 866.44C266.582 864.162 264.576 862.231 262.25 860.755L251.059 853.646C251.016 853.619 250.969 853.601 250.92 853.592C250.87 853.584 250.82 853.585 250.771 853.596C250.722 853.607 250.675 853.627 250.634 853.656C250.593 853.685 250.558 853.722 250.532 853.764Z" fill="white"/>
<path d="M730.387 860.957C716.932 877.175 733.923 902.22 753.996 896.811C763.377 894.284 769.341 885.275 771.341 876.029C771.354 875.967 771.379 875.908 771.415 875.856C771.451 875.804 771.498 875.76 771.553 875.726C771.607 875.692 771.668 875.669 771.731 875.659C771.795 875.648 771.86 875.651 771.923 875.666L788.486 879.866C788.576 879.887 788.654 879.943 788.703 880.021C788.752 880.099 788.769 880.194 788.75 880.284C785.468 896.329 774.632 909.857 759.05 915.22C728.823 925.62 699.841 899.011 706.123 868.711C709.068 854.52 720.668 842.429 734.15 837.439C742.441 834.372 750.968 833.726 759.732 835.502C759.826 835.522 759.91 835.577 759.966 835.654C760.021 835.732 760.045 835.827 760.032 835.92L757.859 853.848C757.817 854.187 757.632 854.308 757.305 854.211C747.377 851.275 737.15 852.811 730.387 860.957Z" fill="white"/>
<path d="M673.642 871.875L655.041 880.117C654.917 880.172 654.861 880.317 654.916 880.441L687.047 952.95C687.102 953.074 687.247 953.13 687.371 953.075L705.972 944.832C706.096 944.777 706.152 944.632 706.097 944.508L673.966 872C673.911 871.876 673.766 871.82 673.642 871.875Z" fill="white"/>
<path d="M312.259 894.864C341.896 867.755 396.196 896.628 383.814 937.791C378.859 954.246 365.123 965.237 347.932 966.482C321.777 968.382 296.85 947.773 299.759 920.11C300.741 910.755 305.323 901.21 312.259 894.864ZM335.438 947.206C340.913 948.995 346.912 948.422 352.116 945.611C357.319 942.801 361.301 937.985 363.185 932.221C364.117 929.367 364.507 926.366 364.332 923.391C364.156 920.415 363.418 917.522 362.161 914.877C360.904 912.233 359.151 909.888 357.004 907.977C354.856 906.067 352.355 904.627 349.644 903.741C344.169 901.952 338.17 902.525 332.967 905.335C327.763 908.145 323.782 912.962 321.898 918.726C320.965 921.58 320.575 924.58 320.751 927.556C320.926 930.532 321.664 933.425 322.921 936.069C324.179 938.714 325.931 941.058 328.079 942.969C330.226 944.88 332.727 946.32 335.438 947.206Z" fill="white"/>
<path d="M601.533 980.418L583.224 985.118C583.187 985.128 583.149 985.13 583.111 985.125C583.073 985.12 583.036 985.107 583.003 985.087C582.971 985.068 582.942 985.042 582.919 985.012C582.896 984.981 582.879 984.946 582.87 984.909L563.224 908.118C563.215 908.081 563.212 908.043 563.218 908.005C563.223 907.967 563.236 907.931 563.255 907.898C563.275 907.865 563.3 907.836 563.331 907.813C563.361 907.79 563.396 907.774 563.433 907.764L580.77 903.309C580.812 903.3 580.856 903.299 580.898 903.309C580.941 903.318 580.981 903.337 581.015 903.364L627.242 940.346C627.29 940.384 627.348 940.406 627.409 940.409C627.471 940.412 627.531 940.396 627.582 940.363C627.634 940.33 627.673 940.281 627.695 940.224C627.718 940.167 627.721 940.105 627.706 940.046L616.051 894.591C616.042 894.554 616.04 894.516 616.045 894.478C616.05 894.44 616.063 894.404 616.082 894.371C616.102 894.338 616.128 894.309 616.158 894.286C616.189 894.263 616.223 894.246 616.26 894.237L634.451 889.564C634.488 889.554 634.527 889.552 634.565 889.558C634.603 889.563 634.639 889.576 634.672 889.595C634.705 889.614 634.734 889.64 634.757 889.671C634.78 889.701 634.796 889.736 634.806 889.773L654.47 966.573C654.479 966.61 654.481 966.649 654.476 966.686C654.471 966.724 654.458 966.761 654.439 966.794C654.419 966.827 654.393 966.855 654.363 966.878C654.332 966.901 654.298 966.918 654.261 966.928L637.015 971.346C636.973 971.356 636.929 971.356 636.886 971.346C636.844 971.337 636.804 971.318 636.769 971.291L590.615 934.537C590.567 934.498 590.509 934.476 590.448 934.473C590.387 934.47 590.326 934.486 590.275 934.519C590.224 934.553 590.184 934.601 590.162 934.658C590.14 934.715 590.136 934.777 590.151 934.837L601.742 980.064C601.752 980.101 601.754 980.139 601.749 980.177C601.743 980.215 601.731 980.252 601.711 980.285C601.692 980.317 601.666 980.346 601.636 980.369C601.605 980.392 601.57 980.409 601.533 980.418Z" fill="white"/>
<path d="M426.506 937.982L421.879 986.118C421.843 986.494 421.636 986.664 421.261 986.628L403.815 984.964C403.494 984.934 403.349 984.758 403.379 984.437L410.961 905.909C410.991 905.606 411.158 905.47 411.461 905.5L433.079 907.582C433.258 907.598 433.428 907.666 433.57 907.777C433.712 907.889 433.819 908.039 433.879 908.209L450.143 955.618C450.154 955.653 450.176 955.684 450.204 955.707C450.233 955.73 450.267 955.744 450.304 955.748C450.34 955.751 450.377 955.745 450.409 955.728C450.442 955.712 450.469 955.686 450.488 955.655L475.606 912.073C475.746 911.831 475.955 911.724 476.233 911.755L498.079 913.855C498.358 913.879 498.482 914.031 498.452 914.309L490.879 992.909C490.855 993.194 490.7 993.324 490.415 993.3L472.833 991.618C472.787 991.614 472.742 991.6 472.7 991.578C472.659 991.556 472.622 991.526 472.593 991.489C472.563 991.453 472.541 991.411 472.528 991.366C472.515 991.321 472.51 991.274 472.515 991.227L477.079 942.491C477.152 941.703 476.994 941.658 476.606 942.355L454.906 981.409C454.743 981.706 454.491 981.84 454.152 981.809L441.67 980.6C441.258 980.558 440.985 980.34 440.852 979.946L427.17 937.909C426.83 936.873 426.609 936.897 426.506 937.982Z" fill="white"/>
<path d="M540.77 909.374L520.512 911.04C520.371 911.051 520.267 911.174 520.279 911.314L526.777 990.357C526.789 990.497 526.912 990.601 527.052 990.589L547.311 988.924C547.451 988.912 547.555 988.789 547.543 988.649L541.045 909.607C541.033 909.467 540.911 909.363 540.77 909.374Z" fill="white"/>
</svg>
