<svg width="224" height="224" viewBox="0 0 224 224" fill="none" xmlns="http://www.w3.org/2000/svg">
<path d="M125.503 120.584V193.777C125.503 193.918 125.433 193.989 125.293 193.989L94.6467 194C94.5366 194.002 94.4787 193.946 94.4731 193.833C94.4115 192.385 94.5319 190.943 94.5319 189.498C94.5301 166.715 94.5207 143.932 94.5039 121.149C94.5039 120.94 94.5235 120.756 94.5627 120.598C94.5982 120.444 94.5375 120.367 94.3807 120.367H69.0952C69.0699 120.367 69.0457 120.357 69.0279 120.339C69.01 120.321 69 120.296 69 120.271L69.0028 91.4C69.0028 91.3716 69.014 91.3443 69.034 91.3242C69.0539 91.3041 69.081 91.2928 69.1092 91.2928C77.1738 91.3041 85.2794 91.3022 93.4261 91.2871C93.749 91.2871 94.0784 91.2711 94.4143 91.2391C94.4702 91.2335 94.5219 91.2071 94.5593 91.1653C94.5966 91.1235 94.6168 91.0692 94.6159 91.0133C94.586 83.8003 94.5926 76.4237 94.6355 68.8833C94.6411 67.82 94.685 66.5884 94.7671 65.1883C95.2598 56.7851 98.2749 48.3283 103.602 41.8135C109.252 34.9091 117.239 31.7561 126.018 30.6525C129.991 30.1557 133.98 29.8056 137.989 30.119C143.303 30.5367 148.672 31.3525 153.843 32.3207C153.948 32.3395 154 32.4025 154 32.5098V56.5621C154 56.6525 153.955 56.6957 153.866 56.692C152.576 56.643 151.244 56.6365 149.871 56.6722C146.715 56.755 143.522 56.8566 140.293 56.9771C139 57.025 137.586 57.0759 136.326 57.4485C132.064 58.7111 129.103 61.3184 127.443 65.2702C126.887 66.5931 126.437 68.1418 126.091 69.9164C125.662 72.1294 125.457 74.858 125.475 78.1022C125.501 82.7315 125.514 87.0578 125.512 91.0811C125.512 91.1387 125.534 91.194 125.575 91.2347C125.615 91.2755 125.67 91.2984 125.727 91.2984H152.757C152.777 91.2982 152.796 91.3023 152.814 91.3104C152.832 91.3185 152.847 91.3304 152.86 91.3454C152.873 91.3604 152.883 91.378 152.889 91.3972C152.895 91.4163 152.897 91.4365 152.894 91.4565L149.062 120.288C149.049 120.382 148.995 120.429 148.902 120.429H125.657C125.555 120.429 125.503 120.481 125.503 120.584Z" fill="#003876"/>
</svg>
