<svg width="224" height="224" viewBox="0 0 224 224" fill="none" xmlns="http://www.w3.org/2000/svg">
<path d="M82.8816 39C58.7138 39 39 58.7138 39 82.8816V140.118C39 164.283 58.7132 184 82.8816 184H140.118C164.284 184 184 164.284 184 140.118V82.8816C184 58.7132 164.283 39 140.118 39H82.8816ZM82.8816 50.4474H140.118C158.095 50.4474 172.553 64.9008 172.553 82.8816V140.118C172.553 158.095 158.095 172.553 140.118 172.553H82.8816C64.9008 172.553 50.4474 158.095 50.4474 140.118V82.8816C50.4474 64.9001 64.9001 50.4474 82.8816 50.4474ZM149.658 65.7105C145.442 65.7105 142.026 69.1256 142.026 73.3421C142.026 77.5586 145.442 80.9737 149.658 80.9737C153.874 80.9737 157.289 77.5586 157.289 73.3421C157.289 69.1256 153.874 65.7105 149.658 65.7105ZM111.5 73.3421C90.4948 73.3421 73.3421 90.4948 73.3421 111.5C73.3421 132.505 90.4948 149.658 111.5 149.658C132.505 149.658 149.658 132.505 149.658 111.5C149.658 90.4948 132.505 73.3421 111.5 73.3421ZM111.5 84.7895C126.317 84.7895 138.211 96.6825 138.211 111.5C138.211 126.317 126.317 138.211 111.5 138.211C96.6825 138.211 84.7895 126.317 84.7895 111.5C84.7895 96.6825 96.6825 84.7895 111.5 84.7895Z" fill="#003876"/>
</svg>
