<svg width="224" height="224" viewBox="0 0 224 224" fill="none" xmlns="http://www.w3.org/2000/svg">
<path d="M100.978 127.769L51.0165 185.807C50.9926 185.835 50.9631 185.858 50.9299 185.874C50.8966 185.89 50.8604 185.899 50.8235 185.9L39.263 186C39.2129 186 39.1638 185.986 39.1215 185.959C39.0792 185.932 39.0455 185.894 39.0244 185.848C39.0033 185.803 38.9956 185.752 39.0024 185.703C39.0091 185.653 39.0299 185.606 39.0623 185.568L95.6381 119.806C95.6766 119.762 95.6991 119.706 95.7019 119.647C95.7047 119.588 95.6877 119.53 95.6535 119.482L39.1395 37.4394C39.113 37.4001 39.0976 37.3543 39.0951 37.3069C39.0925 37.2596 39.1029 37.2124 39.1251 37.1705C39.1473 37.1286 39.1804 37.0934 39.221 37.0688C39.2616 37.0442 39.3081 37.0311 39.3556 37.0308L81.4922 37.0617C81.5349 37.0619 81.577 37.0726 81.6146 37.0927C81.6523 37.1129 81.6844 37.1419 81.7083 37.1773L119.33 91.7467C119.353 91.78 119.383 91.8078 119.418 91.8276C119.453 91.8475 119.493 91.859 119.533 91.8613C119.573 91.8635 119.614 91.8564 119.651 91.8405C119.688 91.8247 119.721 91.8005 119.747 91.7698L166.738 37.1696C166.762 37.1415 166.791 37.1187 166.824 37.1028C166.858 37.0869 166.894 37.0781 166.931 37.0771L178.507 37C178.557 36.9999 178.606 37.0141 178.648 37.041C178.691 37.0679 178.724 37.1063 178.745 37.1517C178.766 37.1971 178.774 37.2476 178.767 37.2972C178.761 37.3469 178.74 37.3935 178.707 37.4317L125.072 99.7405C125.033 99.7849 125.011 99.841 125.008 99.8997C125.005 99.9584 125.022 100.016 125.057 100.064L183.955 185.545C183.982 185.585 183.997 185.63 184 185.678C184.002 185.725 183.992 185.772 183.97 185.814C183.947 185.856 183.914 185.891 183.874 185.916C183.833 185.94 183.787 185.953 183.739 185.954L141.579 185.923C141.537 185.923 141.495 185.912 141.457 185.892C141.419 185.872 141.387 185.843 141.363 185.807L101.395 127.792C101.373 127.759 101.342 127.731 101.307 127.711C101.272 127.691 101.233 127.68 101.193 127.678C101.152 127.675 101.112 127.682 101.075 127.698C101.038 127.714 101.005 127.738 100.978 127.769ZM76.584 46.5047C76.561 46.4709 76.5298 46.4433 76.4935 46.4245C76.4571 46.4056 76.4166 46.3961 76.3756 46.3968H57.3447C57.3001 46.3974 57.2565 46.4101 57.2185 46.4335C57.1806 46.4569 57.1497 46.4901 57.1291 46.5297C57.1085 46.5692 57.099 46.6135 57.1017 46.658C57.1043 46.7025 57.1189 46.7454 57.144 46.7822L146.557 176.549C146.58 176.583 146.611 176.611 146.648 176.629C146.684 176.648 146.724 176.658 146.765 176.657H165.804C165.849 176.657 165.892 176.644 165.93 176.62C165.968 176.597 165.999 176.564 166.02 176.524C166.04 176.485 166.05 176.44 166.047 176.396C166.044 176.351 166.03 176.309 166.005 176.272L76.584 46.5047Z" fill="#003876"/>
</svg>
