<svg width="224" height="224" viewBox="0 0 224 224" fill="none" xmlns="http://www.w3.org/2000/svg">
<path d="M52.0464 62.4929C52.7569 62.2568 53.4484 62.0742 54.1208 61.9453C55.8442 61.6122 57.6051 61.3456 59.4037 61.1455C62.2604 60.8269 65.0836 60.5773 67.8733 60.3968C73.4393 60.0358 78.9862 59.7723 84.514 59.6063C97.1485 59.2258 108.414 59.0855 118.31 59.1855C129.908 59.3031 141.366 59.5816 152.918 60.2576C157.274 60.5123 161.397 60.8774 165.287 61.3528C166.796 61.5374 168.33 61.7932 169.891 62.1201C176.891 63.5866 182.352 68.5787 184.278 75.4224C185.125 78.4297 185.651 81.6706 186.04 84.8388C186.6 89.3982 187.006 94.6496 187.26 100.593C187.496 106.143 187.566 111.36 187.469 116.245C187.319 123.801 186.924 131.398 186.03 139.06C185.611 142.669 185.034 145.848 184.301 148.595C182.615 154.919 177.663 159.86 171.388 161.675C170.209 162.015 168.909 162.282 167.488 162.476C163.846 162.973 160.073 163.348 156.171 163.599C151.48 163.9 146.747 164.136 141.97 164.306C121.761 165.024 101.586 165.012 81.4448 164.269C77.73 164.132 73.9287 163.944 70.0406 163.706C65.3363 163.418 60.4278 163.008 55.9509 162.308C55.3631 162.215 54.7566 162.103 54.1317 161.973C51.0408 161.327 48.2826 160.002 45.857 157.998C42.9085 155.562 40.8737 152.551 39.7527 148.967C39.3587 147.706 39.0014 146.137 38.6806 144.259C37.9489 139.982 37.508 135.619 37.2048 131.364C36.8727 126.701 36.6526 121.891 36.5443 116.932C36.3803 109.432 36.6154 101.854 37.0826 94.5351C37.4616 88.6134 38.0092 83.2129 39.0473 77.8171C40.2126 71.75 43.3916 67.1627 48.5843 64.0554C49.6218 63.4335 50.7758 62.9127 52.0464 62.4929ZM97.0134 89.4425C97.0051 89.4375 96.9956 89.4349 96.9859 89.4348C96.9762 89.4348 96.9666 89.4373 96.9582 89.4422C96.9498 89.4471 96.9429 89.4542 96.9382 89.4627C96.9335 89.4712 96.9312 89.4808 96.9315 89.4905V134.541C96.9312 134.551 96.9335 134.56 96.9382 134.569C96.9429 134.577 96.9498 134.584 96.9582 134.589C96.9666 134.594 96.9762 134.597 96.9859 134.597C96.9956 134.597 97.0051 134.594 97.0134 134.589L136.121 112.062C136.129 112.057 136.135 112.051 136.14 112.042C136.144 112.034 136.147 112.025 136.147 112.016C136.147 112.006 136.144 111.997 136.14 111.989C136.135 111.981 136.129 111.974 136.121 111.969L97.0134 89.4425Z" fill="#003876"/>
</svg>
