<svg width="24" height="24" viewBox="0 0 24 24" fill="none" xmlns="http://www.w3.org/2000/svg">
<path d="M6.69486 1.91744L2.89326 1.92407C2.35246 1.92502 1.91483 2.36418 1.91577 2.90498L1.92241 6.70657C1.92335 7.24737 2.36252 7.68501 2.90331 7.68406L6.70491 7.67743C7.2457 7.67648 7.68334 7.23732 7.6824 6.69652L7.67576 2.89493C7.67482 2.35413 7.23565 1.91649 6.69486 1.91744Z" fill="#002D62"/>
<path d="M13.8941 1.91744L10.0925 1.92407C9.55168 1.92502 9.11405 2.36418 9.11499 2.90498L9.12163 6.70657C9.12257 7.24737 9.56174 7.68501 10.1025 7.68406L13.9041 7.67743C14.4449 7.67648 14.8826 7.23732 14.8816 6.69652L14.875 2.89493C14.874 2.35413 14.4349 1.91649 13.8941 1.91744Z" fill="#002D62"/>
<path d="M21.0972 1.91744L17.2956 1.92407C16.7548 1.92502 16.3172 2.36418 16.3181 2.90498L16.3248 6.70657C16.3257 7.24737 16.7649 7.68501 17.3057 7.68406L21.1073 7.67743C21.648 7.67648 22.0857 7.23732 22.0847 6.69652L22.0781 2.89493C22.0772 2.35413 21.638 1.91649 21.0972 1.91744Z" fill="#002D62"/>
<path d="M6.69486 9.11666L2.89326 9.12329C2.35246 9.12423 1.91483 9.5634 1.91577 10.1042L1.92241 13.9058C1.92335 14.4466 2.36252 14.8842 2.90331 14.8833L6.70491 14.8766C7.2457 14.8757 7.68334 14.4365 7.6824 13.8957L7.67576 10.0941C7.67482 9.55335 7.23565 9.11571 6.69486 9.11666Z" fill="#002D62"/>
<path d="M13.8941 9.11666L10.0925 9.12329C9.55168 9.12423 9.11405 9.5634 9.11499 10.1042L9.12163 13.9058C9.12257 14.4466 9.56174 14.8842 10.1025 14.8833L13.9041 14.8766C14.4449 14.8757 14.8826 14.4365 14.8816 13.8957L14.875 10.0941C14.874 9.55335 14.4349 9.11571 13.8941 9.11666Z" fill="#002D62"/>
<path d="M21.0972 9.11666L17.2956 9.12329C16.7548 9.12423 16.3172 9.5634 16.3181 10.1042L16.3248 13.9058C16.3257 14.4466 16.7649 14.8842 17.3057 14.8833L21.1073 14.8766C21.648 14.8757 22.0857 14.4365 22.0847 13.8957L22.0781 10.0941C22.0772 9.55335 21.638 9.11571 21.0972 9.11666Z" fill="#002D62"/>
<path d="M6.69486 16.3159L2.89326 16.3225C2.35246 16.3235 1.91483 16.7626 1.91577 17.3034L1.92241 21.105C1.92335 21.6458 2.36252 22.0834 2.90331 22.0825L6.70491 22.0759C7.2457 22.0749 7.68334 21.6358 7.6824 21.095L7.67576 17.2934C7.67482 16.7526 7.23565 16.3149 6.69486 16.3159Z" fill="#002D62"/>
<path d="M13.8941 16.3159L10.0925 16.3225C9.55168 16.3235 9.11405 16.7626 9.11499 17.3034L9.12163 21.105C9.12257 21.6458 9.56174 22.0834 10.1025 22.0825L13.9041 22.0759C14.4449 22.0749 14.8826 21.6358 14.8816 21.095L14.875 17.2934C14.874 16.7526 14.4349 16.3149 13.8941 16.3159Z" fill="#002D62"/>
<path d="M21.0972 16.3159L17.2956 16.3225C16.7548 16.3235 16.3172 16.7626 16.3181 17.3034L16.3248 21.105C16.3257 21.6458 16.7649 22.0834 17.3057 22.0825L21.1073 22.0759C21.648 22.0749 22.0857 21.6358 22.0847 21.095L22.0781 17.2934C22.0772 16.7526 21.638 16.3149 21.0972 16.3159Z" fill="#002D62"/>
</svg>
